M48
;GenerationSoftware,Autodesk,EAGLE,9.5.2*%
;CreationDate,2020-09-10T15:44:40Z*%
FMAT,2
ICI,OFF
METRIC,TZ,000.000
T10C0.305
T9C0.381
T8C0.400
T7C0.508
T6C0.650
T5C1.016
T4C1.100
T3C1.600
T2C3.302
T1C3.800
%
G90
M71
T1
X108077Y138430
X44069Y138430
X108077Y97282
X108077Y14986
X44069Y14986
X44069Y56134
X44069Y97282
X108077Y56134
T2
X66548Y84836
X58420Y161544
X2540Y161544
X58420Y125984
X2540Y125984
X58420Y120396
X58420Y38100
X2540Y38100
X58420Y2540
X2540Y2540
X38100Y38100
X122428Y161544
X66548Y161544
X122428Y38100
X66548Y38100
X122428Y2540
X66548Y2540
X2540Y43688
X102108Y38100
X122428Y125984
X66548Y125984
X58420Y79248
X2540Y79248
X58420Y43688
X38100Y161544
X38100Y79248
X122428Y79248
X66548Y79248
X66548Y43688
X102108Y79248
X102108Y161544
X2540Y120396
X58420Y84836
X2540Y84836
X38100Y120396
X122428Y43688
X122428Y120396
X66548Y120396
X122428Y84836
X102108Y120396
T3
X24130Y111346
X88138Y70198
X88138Y152494
X24130Y70198
X88138Y29050
X24130Y152494
X88138Y111346
X24130Y29050
T4
X24130Y132494
X88138Y9050
X88138Y132494
X24130Y91346
X88138Y50198
X24130Y9050
X88138Y91346
X24130Y50198
T5
X11938Y129794
X34290Y160274
X31750Y160274
X29210Y160274
X26670Y160274
X2540Y111506
X24130Y160274
X21590Y160274
X21590Y162814
X24130Y162814
X26670Y162814
X29210Y162814
X31750Y162814
X34290Y162814
X44450Y124714
X46990Y124714
X49530Y124714
X52070Y124714
X2540Y152654
X2540Y150114
X19050Y39370
X10795Y146304
X10795Y143764
X19050Y162814
X16510Y162814
X13970Y162814
X11430Y162814
X8890Y162814
X6350Y162814
X9398Y6350
X11938Y6350
X34290Y124714
X36830Y124714
X39370Y124714
X41910Y124714
X54610Y124714
X25400Y127254
X73406Y129794
X75946Y129794
X98298Y160274
X95758Y160274
X34290Y36830
X31750Y36830
X29210Y36830
X26670Y36830
X24130Y36830
X21590Y36830
X21590Y39370
X24130Y39370
X26670Y39370
X29210Y39370
X31750Y39370
X34290Y39370
X44450Y1270
X46990Y1270
X49530Y1270
X52070Y1270
X2540Y29210
X2540Y26670
X10795Y22860
X10795Y20320
X93218Y160274
X16510Y39370
X13970Y39370
X11430Y39370
X8890Y39370
X6350Y39370
X34290Y1270
X36830Y1270
X39370Y1270
X41910Y1270
X54610Y1270
X25400Y3810
X90678Y160274
X88138Y160274
X85598Y160274
X85598Y162814
X73406Y6350
X75946Y6350
X88138Y162814
X90678Y162814
X93218Y162814
X95758Y162814
X98298Y162814
X108458Y124714
X110998Y124714
X113538Y124714
X116078Y124714
X66548Y152654
X98298Y36830
X95758Y36830
X93218Y36830
X90678Y36830
X88138Y36830
X85598Y36830
X85598Y39370
X88138Y39370
X90678Y39370
X93218Y39370
X95758Y39370
X98298Y39370
X108458Y1270
X110998Y1270
X113538Y1270
X116078Y1270
X66548Y29210
X66548Y26670
X74803Y22860
X74803Y20320
X83058Y39370
X80518Y39370
X77978Y39370
X75438Y39370
X72898Y39370
X70358Y39370
X98298Y1270
X100838Y1270
X103378Y1270
X105918Y1270
X118618Y1270
X89408Y3810
X66548Y150114
X74803Y146304
X74803Y143764
X83058Y162814
X9398Y47498
X11938Y47498
X80518Y162814
X77978Y162814
X75438Y162814
X72898Y162814
X70358Y162814
X98298Y124714
X100838Y124714
X103378Y124714
X105918Y124714
X118618Y124714
X34290Y77978
X31750Y77978
X29210Y77978
X26670Y77978
X24130Y77978
X21590Y77978
X21590Y80518
X24130Y80518
X26670Y80518
X29210Y80518
X31750Y80518
X34290Y80518
X44450Y42418
X46990Y42418
X49530Y42418
X52070Y42418
X2540Y70358
X2540Y67818
X10795Y64008
X10795Y61468
X19050Y80518
X16510Y80518
X13970Y80518
X11430Y80518
X8890Y80518
X6350Y80518
X34290Y42418
X36830Y42418
X39370Y42418
X41910Y42418
X54610Y42418
X25400Y44958
X89408Y127254
X73406Y47498
X75946Y47498
X29210Y119126
X98298Y77978
X95758Y77978
X93218Y77978
X90678Y77978
X88138Y77978
X85598Y77978
X85598Y80518
X88138Y80518
X90678Y80518
X93218Y80518
X95758Y80518
X98298Y80518
X108458Y42418
X110998Y42418
X113538Y42418
X116078Y42418
X66548Y70358
X66548Y67818
X74803Y64008
X74803Y61468
X83058Y80518
X80518Y80518
X77978Y80518
X75438Y80518
X72898Y80518
X70358Y80518
X98298Y42418
X100838Y42418
X103378Y42418
X105918Y42418
X118618Y42418
X89408Y44958
X9398Y88646
X11938Y88646
X34290Y119126
X31750Y119126
X26670Y119126
X24130Y119126
X21590Y119126
X21590Y121666
X24130Y121666
X26670Y121666
X29210Y121666
X31750Y121666
X34290Y121666
X44450Y83566
X46990Y83566
X49530Y83566
X52070Y83566
X2540Y108966
X10795Y105156
X10795Y102616
X19050Y121666
X16510Y121666
X13970Y121666
X11430Y121666
X8890Y121666
X6350Y121666
X34290Y83566
X36830Y83566
X39370Y83566
X41910Y83566
X54610Y83566
X25400Y86106
X73406Y88646
X75946Y88646
X98298Y119126
X95758Y119126
X93218Y119126
X90678Y119126
X88138Y119126
X85598Y119126
X85598Y121666
X88138Y121666
X90678Y121666
X93218Y121666
X95758Y121666
X98298Y121666
X108458Y83566
X110998Y83566
X113538Y83566
X116078Y83566
X66548Y111506
X66548Y108966
X74803Y105156
X74803Y102616
X83058Y121666
X80518Y121666
X77978Y121666
X75438Y121666
X72898Y121666
X70358Y121666
X98298Y83566
X100838Y83566
X103378Y83566
X105918Y83566
X118618Y83566
X89408Y86106
X9398Y129794
T6
X68913Y95346
X4905Y89566
X68913Y130714
X68913Y89566
X4905Y136494
X4905Y130714
X68913Y136494
X4905Y13050
X4905Y7270
X68913Y13050
X68913Y7270
X4905Y54198
X4905Y48418
X68913Y54198
X68913Y48418
X4905Y95346
T7
X15875Y143764
X15875Y145034
X15875Y146304
X15875Y141224
X14605Y142494
X14605Y143764
X14605Y21590
X14605Y145034
X14605Y146304
X14605Y141224
X78613Y102616
X15875Y19050
X15875Y20320
X15875Y21590
X15875Y22860
X15875Y17780
X14605Y19050
X14605Y20320
X78613Y103886
X14605Y22860
X14605Y17780
X78613Y105156
X78613Y100076
X78613Y60198
X78613Y61468
X15875Y101346
X79883Y19050
X79883Y20320
X79883Y21590
X79883Y22860
X79883Y17780
X78613Y19050
X78613Y20320
X78613Y21590
X78613Y22860
X78613Y17780
X15875Y102616
X15875Y103886
X79883Y60198
X15875Y105156
X15875Y60198
X15875Y61468
X15875Y62738
X15875Y64008
X15875Y58928
X14605Y60198
X14605Y61468
X14605Y62738
X14605Y64008
X14605Y58928
X15875Y100076
X14605Y101346
X14605Y102616
X14605Y103886
X14605Y105156
X14605Y100076
X78613Y62738
X78613Y64008
X79883Y62738
X78613Y58928
X79883Y64008
X79883Y58928
X79883Y61468
X79883Y101346
X79883Y142494
X79883Y143764
X79883Y145034
X79883Y146304
X79883Y141224
X78613Y142494
X78613Y143764
X78613Y145034
X78613Y146304
X78613Y141224
X79883Y102616
X79883Y103886
X79883Y105156
X79883Y100076
X78613Y101346
X15875Y142494
T8
X65263Y55626
X5435Y137922
X69443Y46990
X1255Y96774
X65263Y96774
X65263Y88138
X1255Y14478
X1255Y5842
X5435Y5842
X5435Y14478
X69443Y88138
X69443Y96774
X65263Y14478
X65263Y5842
X69443Y5842
X69443Y14478
X1255Y55626
X1255Y46990
X5435Y46990
X5435Y55626
X1255Y88138
X65263Y137922
X65263Y129286
X65263Y46990
X69443Y129286
X69443Y137922
X5435Y88138
X69443Y55626
X1255Y137922
X1255Y129286
X5435Y129286
X5435Y96774
T9
X10668Y71120
X10668Y29972
X74676Y29972
X10668Y153416
X74676Y153416
X74676Y71120
X10668Y112268
X74676Y112268
T10
X28042Y95072
X54610Y95250
X27940Y94234
X58039Y94996
X54102Y94364
X56007Y100711
X59296Y100724
X21590Y96520
X20447Y96469
X44323Y111506
X47942Y111442
X29210Y88011
X27940Y93345
X24892Y93675
X17526Y97663
X16637Y97536
X13589Y90678
X22860Y93726
X21590Y88011
X34290Y112776
X22935Y109982
X29210Y113030
X20193Y109220
X21133Y112804
X20320Y114046
X52832Y108077
X27940Y107315
X17399Y115062
X20447Y107315
X52832Y103505
X24765Y104267
X17316Y107486
X24765Y101981
X24638Y92837
X27934Y101714
X31750Y96901
X48793Y94996
X38773Y96863
X52959Y97597
X27940Y102552
X33020Y96266
X48387Y91567
X42799Y91567
X53086Y92771
X57150Y92837
X27813Y95943
X8509Y87376
X12954Y87376
X14605Y92456
X116840Y105918
X84201Y106045
X116840Y109347
X110236Y108839
X84328Y108204
X71628Y87757
X75057Y90043
X74168Y92456
X75438Y92456
X72898Y92456
X79629Y91059
X81280Y92075
X77978Y84836
X79248Y84836
X80518Y84836
X80645Y96520
X76200Y97536
X75819Y100076
X71628Y97155
X79883Y112141
X71501Y107950
X71628Y115316
X91948Y100711
X84201Y101600
X84201Y102997
X84328Y100076
X119126Y91186
X117729Y104775
X104648Y117221
X88265Y97536
X85598Y97536
X100838Y91694
X100838Y88519
X93218Y84836
X85598Y84836
X73660Y83566
X108966Y119126
X81026Y95123
X86487Y91694
X77851Y112776
X80010Y106807
X114808Y97536
X114808Y92456
X114554Y114046
X93218Y110744
X92710Y98806
X117094Y94996
X115672Y88646
X92621Y92329
X92621Y89154
X71120Y93088
X84709Y93345
X68961Y92456
X84582Y92507
X92050Y95072
X118618Y95250
X91948Y94234
X122047Y94996
X118110Y94364
X120015Y100711
X123304Y100724
X85598Y96520
X84455Y96469
X108331Y111506
X111950Y111442
X93218Y88011
X91948Y93345
X88900Y93675
X81534Y97663
X80645Y97536
X77597Y90678
X86868Y93726
X85598Y88011
X98298Y112776
X86943Y109982
X93218Y113030
X84201Y109220
X85141Y112804
X84328Y114046
X116840Y108077
X91948Y107315
X81407Y115062
X84455Y107315
X116840Y103505
X88773Y104267
X81324Y107486
X88773Y101981
X88646Y92837
X91942Y101714
X95758Y96901
X112801Y94996
X102781Y96863
X116967Y97597
X91948Y102552
X97028Y96266
X112395Y91567
X106807Y91567
X117094Y92771
X121158Y92837
X91821Y95943
X72517Y87376
X76962Y87376
X78613Y92456
X52832Y147066
X20193Y147193
X52832Y150495
X46228Y149987
X20320Y149352
X7620Y128905
X11049Y131191
X10160Y133604
X11430Y133604
X8890Y133604
X15621Y132207
X17272Y133223
X13970Y125984
X15240Y125984
X16510Y125984
X16637Y137668
X12192Y138684
X11811Y141224
X7620Y138303
X15875Y153289
X7493Y149098
X7620Y156464
X27940Y141859
X20193Y142748
X118110Y12068
X20320Y141224
X55118Y132334
X53721Y145923
X40640Y158369
X24257Y138684
X21590Y138684
X36830Y132842
X36830Y129667
X29210Y125984
X21590Y125984
X9652Y124714
X44958Y160274
X17018Y136271
X22479Y132842
X13843Y153924
X16002Y147955
X50800Y138684
X50800Y133604
X50546Y155194
X29210Y151892
X28702Y139954
X53086Y136144
X51664Y129794
X28613Y133477
X28613Y130302
X7112Y134236
X20701Y134493
X4953Y133604
X20574Y133655
X28042Y136220
X54610Y136398
X27940Y135382
X58039Y136144
X54102Y135512
X56007Y141859
X59296Y141872
X21590Y137668
X20447Y137617
X44323Y152654
X47942Y152591
X29210Y129159
X27940Y134493
X24892Y134823
X17526Y138811
X16637Y138684
X13589Y131826
X22860Y134874
X21590Y129159
X34290Y153924
X22935Y151130
X29210Y154178
X20193Y150368
X21133Y153952
X20320Y155194
X52832Y149225
X27940Y148463
X17399Y156210
X20447Y148463
X52832Y144653
X24765Y145415
X17316Y148634
X24765Y143129
X24638Y133985
X52832Y23622
X27934Y142862
X31750Y138049
X48793Y136144
X38773Y138011
X52959Y138745
X27940Y143701
X33020Y137414
X48387Y132715
X42799Y132715
X53086Y133919
X57150Y133985
X27813Y137091
X8509Y128524
X12954Y128524
X14605Y133604
X116840Y147066
X84201Y147193
X116840Y150495
X110236Y149987
X84328Y149352
X71628Y128905
X75057Y131191
X74168Y133604
X75438Y133604
X72898Y133604
X79629Y132207
X81280Y133223
X77978Y125984
X79248Y125984
X80518Y125984
X80645Y137668
X76200Y138684
X75819Y141224
X71628Y138303
X79883Y153289
X71501Y149098
X71628Y156464
X91948Y141859
X84201Y142748
X84201Y144145
X84328Y141224
X119126Y132334
X117729Y145923
X104648Y158369
X88265Y138684
X85598Y138684
X100838Y132842
X100838Y129667
X93218Y125984
X85598Y125984
X73660Y124714
X108966Y160274
X81026Y136271
X86487Y132842
X77851Y153924
X80010Y147955
X114808Y138684
X114808Y133604
X114554Y155194
X93218Y151892
X92710Y139954
X117094Y136144
X115672Y129794
X92621Y133477
X92621Y130302
X71120Y134236
X84709Y134493
X68961Y133604
X84582Y133655
X92050Y136220
X118618Y136398
X91948Y135382
X122047Y136144
X118110Y135512
X120015Y141859
X123304Y141872
X85598Y137668
X84455Y137617
X108331Y152654
X111950Y152591
X93218Y129159
X91948Y134493
X88900Y134823
X81534Y138811
X80645Y138684
X77597Y131826
X86868Y134874
X85598Y129159
X98298Y153924
X86943Y151130
X93218Y154178
X84201Y150368
X85141Y153952
X84328Y155194
X116840Y149225
X91948Y148463
X81407Y156210
X84455Y148463
X116840Y144653
X88773Y145415
X81324Y148634
X88773Y143129
X88646Y133985
X20193Y23749
X91942Y142862
X95758Y138049
X112801Y136144
X102781Y138011
X116967Y138745
X91948Y143701
X97028Y137414
X112395Y132715
X106807Y132715
X117094Y133919
X121158Y133985
X91821Y137091
X72517Y128524
X76962Y128524
X78613Y133604
X52832Y27051
X46228Y26543
X20320Y25908
X7620Y5461
X11049Y7747
X10160Y10160
X11430Y10160
X8890Y10160
X15621Y8763
X17272Y9779
X13970Y2540
X15240Y2540
X16510Y2540
X16637Y14224
X12192Y15240
X11811Y17780
X7620Y14859
X15875Y29845
X7493Y25654
X7620Y33020
X27940Y18415
X20193Y19304
X20193Y20701
X20320Y17780
X55118Y8890
X53721Y22479
X40640Y34925
X24257Y15240
X21590Y15240
X36830Y9398
X36830Y6223
X29210Y2540
X21590Y2540
X9652Y1270
X44958Y36830
X17018Y12827
X22479Y9398
X13843Y30480
X16002Y24511
X50800Y15240
X50800Y10160
X50546Y31750
X29210Y28448
X28702Y16510
X53086Y12700
X51664Y6350
X28613Y10033
X28613Y6858
X7112Y10792
X20701Y11049
X4953Y10160
X20574Y10211
X28042Y12776
X54610Y12954
X27940Y11938
X58039Y12700
X54102Y12068
X56007Y18415
X59296Y18428
X21590Y14224
X20447Y14173
X44323Y29210
X47942Y29146
X29210Y5715
X27940Y11049
X24892Y11379
X17526Y15367
X16637Y15240
X13589Y8382
X22860Y11430
X21590Y5715
X34290Y30480
X22935Y27686
X29210Y30734
X20193Y26924
X21133Y30508
X20320Y31750
X52832Y25781
X27940Y25019
X17399Y32766
X20447Y25019
X52832Y21209
X24765Y21971
X17316Y25190
X24765Y19685
X24638Y10541
X27934Y19418
X31750Y14605
X48793Y12700
X38773Y14567
X52959Y15301
X27940Y20257
X33020Y13970
X48387Y9271
X42799Y9271
X53086Y10475
X57150Y10541
X27813Y13647
X8509Y5080
X12954Y5080
X14605Y10160
X116840Y23622
X84201Y23749
X116840Y27051
X110236Y26543
X84328Y25908
X71628Y5461
X75057Y7747
X74168Y10160
X75438Y10160
X72898Y10160
X79629Y8763
X81280Y9779
X77978Y2540
X79248Y2540
X80518Y2540
X80645Y14224
X76200Y15240
X75819Y17780
X71628Y14859
X79883Y29845
X71501Y25654
X71628Y33020
X91948Y18415
X84201Y19304
X84201Y20701
X84328Y17780
X119126Y8890
X117729Y22479
X104648Y34925
X88265Y15240
X85598Y15240
X100838Y9398
X100838Y6223
X93218Y2540
X85598Y2540
X73660Y1270
X108966Y36830
X81026Y12827
X86487Y9398
X77851Y30480
X80010Y24511
X114808Y15240
X114808Y10160
X114554Y31750
X93218Y28448
X92710Y16510
X117094Y12700
X115672Y6350
X92621Y10033
X92621Y6858
X71120Y10792
X84709Y11049
X68961Y10160
X84582Y10211
X92050Y12776
X118618Y12954
X91948Y11938
X122047Y12700
X120015Y18415
X123304Y18428
X85598Y14224
X84455Y14173
X108331Y29210
X111950Y29146
X93218Y5715
X91948Y11049
X88900Y11379
X81534Y15367
X80645Y15240
X77597Y8382
X86868Y11430
X85598Y5715
X98298Y30480
X86943Y27686
X93218Y30734
X84201Y26924
X85141Y30508
X84328Y31750
X116840Y25781
X91948Y25019
X81407Y32766
X84455Y25019
X116840Y21209
X88773Y21971
X81324Y25190
X88773Y19685
X88646Y10541
X91942Y19418
X95758Y14605
X112801Y12700
X102781Y14567
X116967Y15301
X91948Y20257
X97028Y13970
X112395Y9271
X106807Y9271
X117094Y10475
X121158Y10541
X91821Y13647
X72517Y5080
X76962Y5080
X78613Y10160
X52832Y64770
X20193Y64897
X52832Y68199
X46228Y67691
X20320Y67056
X7620Y46609
X11049Y48895
X10160Y51308
X11430Y51308
X8890Y51308
X15621Y49911
X17272Y50927
X13970Y43688
X15240Y43688
X16510Y43688
X16637Y55372
X12192Y56388
X11811Y58928
X7620Y56007
X15875Y70993
X7493Y66802
X7620Y74168
X27940Y59563
X20193Y60452
X20193Y61849
X20320Y58928
X55118Y50038
X53721Y63627
X40640Y76073
X24257Y56388
X21590Y56388
X36830Y50546
X36830Y47371
X29210Y43688
X21590Y43688
X9652Y42418
X44958Y77978
X17018Y53975
X22479Y50546
X13843Y71628
X16002Y65659
X50800Y56388
X50800Y51308
X50546Y72898
X29210Y69596
X28702Y57658
X53086Y53848
X51664Y47498
X28613Y51181
X28613Y48006
X7112Y51940
X20701Y52197
X4953Y51308
X20574Y51359
X28042Y53924
X54610Y54102
X27940Y53086
X58039Y53848
X54102Y53216
X56007Y59563
X59296Y59576
X21590Y55372
X20447Y55321
X44323Y70358
X47942Y70295
X29210Y46863
X27940Y52197
X24892Y52527
X17526Y56515
X16637Y56388
X13589Y49530
X22860Y52578
X21590Y46863
X34290Y71628
X22935Y68834
X29210Y71882
X20193Y68072
X21133Y71656
X20320Y72898
X52832Y66929
X27940Y66167
X17399Y73914
X20447Y66167
X52832Y62357
X24765Y63119
X17316Y66338
X24765Y60833
X24638Y51689
X27934Y60566
X31750Y55753
X48793Y53848
X38773Y55715
X52959Y56449
X27940Y61404
X33020Y55118
X48387Y50419
X42799Y50419
X53086Y51623
X20193Y144145
X57150Y51689
X27813Y54795
X8509Y46228
X12954Y46228
X14605Y51308
X116840Y64770
X84201Y64897
X116840Y68199
X110236Y67691
X84328Y67056
X71628Y46609
X75057Y48895
X74168Y51308
X75438Y51308
X72898Y51308
X79629Y49911
X81280Y50927
X77978Y43688
X79248Y43688
X80518Y43688
X80645Y55372
X76200Y56388
X75819Y58928
X71628Y56007
X79883Y70993
X71501Y66802
X71628Y74168
X91948Y59563
X84201Y60452
X84201Y61849
X84328Y58928
X119126Y50038
X117729Y63627
X104648Y76073
X88265Y56388
X85598Y56388
X100838Y50546
X100838Y47371
X93218Y43688
X85598Y43688
X73660Y42418
X108966Y77978
X81026Y53975
X86487Y50546
X77851Y71628
X80010Y65659
X114808Y56388
X114808Y51308
X114554Y72898
X93218Y69596
X92710Y57658
X117094Y53848
X115672Y47498
X92621Y51181
X92621Y48006
X71120Y51940
X84709Y52197
X68961Y51308
X84582Y51359
X92050Y53924
X118618Y54102
X91948Y53086
X122047Y53848
X118110Y53216
X120015Y59563
X123304Y59576
X85598Y55372
X84455Y55321
X108331Y70358
X111950Y70295
X93218Y46863
X91948Y52197
X88900Y52527
X81534Y56515
X80645Y56388
X77597Y49530
X86868Y52578
X85598Y46863
X98298Y71628
X86943Y68834
X93218Y71882
X84201Y68072
X85141Y71656
X84328Y72898
X116840Y66929
X91948Y66167
X81407Y73914
X84455Y66167
X116840Y62357
X88773Y63119
X81324Y66338
X88773Y60833
X88646Y51689
X91942Y60566
X95758Y55753
X112801Y53848
X102781Y55715
X116967Y56449
X91948Y61404
X97028Y55118
X112395Y50419
X106807Y50419
X117094Y51623
X121158Y51689
X91821Y54795
X72517Y46228
X76962Y46228
X78613Y51308
X52832Y105918
X20193Y106045
X52832Y109347
X46228Y108839
X20320Y108204
X7620Y87757
X11049Y90043
X10160Y92456
X11430Y92456
X8890Y92456
X15621Y91059
X17272Y92075
X13970Y84836
X15240Y84836
X16510Y84836
X16637Y96520
X12192Y97536
X11811Y100076
X7620Y97155
X15875Y112141
X7493Y107950
X7620Y115316
X27940Y100711
X20193Y101600
X20193Y102997
X20320Y100076
X55118Y91186
X53721Y104775
X40640Y117221
X24257Y97536
X21590Y97536
X36830Y91694
X36830Y88519
X29210Y84836
X21590Y84836
X9652Y83566
X44958Y119126
X17018Y95123
X22479Y91694
X13843Y112776
X16002Y106807
X50800Y97536
X50800Y92456
X50546Y114046
X29210Y110744
X28702Y98806
X53086Y94996
X51664Y88646
X28613Y92329
X28613Y89154
X7112Y93088
X20701Y93345
X4953Y92456
X20574Y92507
M30