G04 EAGLE Gerber RS-274X export*
G75*
%MOMM*%
%FSLAX34Y34*%
%LPD*%
%INSoldermask Bottom*%
%IPPOS*%
%AMOC8*
5,1,8,0,0,1.08239X$1,22.5*%
G01*
%ADD10C,0.853200*%
%ADD11C,0.838200*%
%ADD12C,3.505200*%
%ADD13R,1.473200X0.863600*%
%ADD14R,0.838200X1.473200*%
%ADD15C,2.082800*%
%ADD16C,1.203200*%
%ADD17C,6.203200*%
%ADD18R,1.473200X0.838200*%
%ADD19C,1.303200*%
%ADD20C,1.803200*%
%ADD21R,0.863600X1.473200*%
%ADD22C,1.270000*%
%ADD23C,1.703200*%

G36*
X750889Y1447812D02*
X750889Y1447812D01*
X750955Y1447814D01*
X750998Y1447832D01*
X751045Y1447840D01*
X751102Y1447874D01*
X751162Y1447899D01*
X751197Y1447930D01*
X751238Y1447955D01*
X751280Y1448006D01*
X751328Y1448050D01*
X751350Y1448092D01*
X751379Y1448129D01*
X751400Y1448191D01*
X751431Y1448250D01*
X751439Y1448304D01*
X751451Y1448341D01*
X751450Y1448381D01*
X751458Y1448435D01*
X751458Y1452245D01*
X751447Y1452310D01*
X751445Y1452376D01*
X751427Y1452419D01*
X751419Y1452466D01*
X751385Y1452523D01*
X751360Y1452583D01*
X751329Y1452618D01*
X751304Y1452659D01*
X751253Y1452701D01*
X751209Y1452749D01*
X751167Y1452771D01*
X751130Y1452800D01*
X751068Y1452821D01*
X751009Y1452852D01*
X750955Y1452860D01*
X750918Y1452872D01*
X750878Y1452871D01*
X750824Y1452879D01*
X745236Y1452879D01*
X745171Y1452868D01*
X745105Y1452866D01*
X745062Y1452848D01*
X745015Y1452840D01*
X744958Y1452806D01*
X744898Y1452781D01*
X744863Y1452750D01*
X744822Y1452725D01*
X744781Y1452674D01*
X744732Y1452630D01*
X744710Y1452588D01*
X744681Y1452551D01*
X744660Y1452489D01*
X744629Y1452430D01*
X744621Y1452376D01*
X744609Y1452339D01*
X744609Y1452335D01*
X744609Y1452334D01*
X744610Y1452299D01*
X744602Y1452245D01*
X744602Y1448435D01*
X744613Y1448370D01*
X744615Y1448304D01*
X744633Y1448261D01*
X744641Y1448214D01*
X744675Y1448157D01*
X744700Y1448097D01*
X744731Y1448062D01*
X744756Y1448021D01*
X744807Y1447980D01*
X744851Y1447931D01*
X744893Y1447909D01*
X744930Y1447880D01*
X744992Y1447859D01*
X745051Y1447828D01*
X745105Y1447820D01*
X745142Y1447808D01*
X745182Y1447809D01*
X745236Y1447801D01*
X750824Y1447801D01*
X750889Y1447812D01*
G37*
G36*
X110809Y1447812D02*
X110809Y1447812D01*
X110875Y1447814D01*
X110918Y1447832D01*
X110965Y1447840D01*
X111022Y1447874D01*
X111082Y1447899D01*
X111117Y1447930D01*
X111158Y1447955D01*
X111200Y1448006D01*
X111248Y1448050D01*
X111270Y1448092D01*
X111299Y1448129D01*
X111320Y1448191D01*
X111351Y1448250D01*
X111359Y1448304D01*
X111371Y1448341D01*
X111370Y1448381D01*
X111378Y1448435D01*
X111378Y1452245D01*
X111367Y1452310D01*
X111365Y1452376D01*
X111347Y1452419D01*
X111339Y1452466D01*
X111305Y1452523D01*
X111280Y1452583D01*
X111249Y1452618D01*
X111224Y1452659D01*
X111173Y1452701D01*
X111129Y1452749D01*
X111087Y1452771D01*
X111050Y1452800D01*
X110988Y1452821D01*
X110929Y1452852D01*
X110875Y1452860D01*
X110838Y1452872D01*
X110798Y1452871D01*
X110744Y1452879D01*
X105156Y1452879D01*
X105091Y1452868D01*
X105025Y1452866D01*
X104982Y1452848D01*
X104935Y1452840D01*
X104878Y1452806D01*
X104818Y1452781D01*
X104783Y1452750D01*
X104742Y1452725D01*
X104701Y1452674D01*
X104652Y1452630D01*
X104630Y1452588D01*
X104601Y1452551D01*
X104580Y1452489D01*
X104549Y1452430D01*
X104541Y1452376D01*
X104529Y1452339D01*
X104529Y1452335D01*
X104529Y1452334D01*
X104530Y1452299D01*
X104522Y1452245D01*
X104522Y1448435D01*
X104533Y1448370D01*
X104535Y1448304D01*
X104553Y1448261D01*
X104561Y1448214D01*
X104595Y1448157D01*
X104620Y1448097D01*
X104651Y1448062D01*
X104676Y1448021D01*
X104727Y1447980D01*
X104771Y1447931D01*
X104813Y1447909D01*
X104850Y1447880D01*
X104912Y1447859D01*
X104971Y1447828D01*
X105025Y1447820D01*
X105062Y1447808D01*
X105102Y1447809D01*
X105156Y1447801D01*
X110744Y1447801D01*
X110809Y1447812D01*
G37*
G36*
X750889Y1036332D02*
X750889Y1036332D01*
X750955Y1036334D01*
X750998Y1036352D01*
X751045Y1036360D01*
X751102Y1036394D01*
X751162Y1036419D01*
X751197Y1036450D01*
X751238Y1036475D01*
X751280Y1036526D01*
X751328Y1036570D01*
X751350Y1036612D01*
X751379Y1036649D01*
X751400Y1036711D01*
X751431Y1036770D01*
X751439Y1036824D01*
X751451Y1036861D01*
X751450Y1036901D01*
X751458Y1036955D01*
X751458Y1040765D01*
X751447Y1040830D01*
X751445Y1040896D01*
X751427Y1040939D01*
X751419Y1040986D01*
X751385Y1041043D01*
X751360Y1041103D01*
X751329Y1041138D01*
X751304Y1041179D01*
X751253Y1041221D01*
X751209Y1041269D01*
X751167Y1041291D01*
X751130Y1041320D01*
X751068Y1041341D01*
X751009Y1041372D01*
X750955Y1041380D01*
X750918Y1041392D01*
X750878Y1041391D01*
X750824Y1041399D01*
X745236Y1041399D01*
X745171Y1041388D01*
X745105Y1041386D01*
X745062Y1041368D01*
X745015Y1041360D01*
X744958Y1041326D01*
X744898Y1041301D01*
X744863Y1041270D01*
X744822Y1041245D01*
X744781Y1041194D01*
X744732Y1041150D01*
X744710Y1041108D01*
X744681Y1041071D01*
X744660Y1041009D01*
X744629Y1040950D01*
X744621Y1040896D01*
X744609Y1040859D01*
X744609Y1040855D01*
X744609Y1040854D01*
X744610Y1040819D01*
X744602Y1040765D01*
X744602Y1036955D01*
X744613Y1036890D01*
X744615Y1036824D01*
X744633Y1036781D01*
X744641Y1036734D01*
X744675Y1036677D01*
X744700Y1036617D01*
X744731Y1036582D01*
X744756Y1036541D01*
X744807Y1036500D01*
X744851Y1036451D01*
X744893Y1036429D01*
X744930Y1036400D01*
X744992Y1036379D01*
X745051Y1036348D01*
X745105Y1036340D01*
X745142Y1036328D01*
X745182Y1036329D01*
X745236Y1036321D01*
X750824Y1036321D01*
X750889Y1036332D01*
G37*
G36*
X750889Y624852D02*
X750889Y624852D01*
X750955Y624854D01*
X750998Y624872D01*
X751045Y624880D01*
X751102Y624914D01*
X751162Y624939D01*
X751197Y624970D01*
X751238Y624995D01*
X751280Y625046D01*
X751328Y625090D01*
X751350Y625132D01*
X751379Y625169D01*
X751400Y625231D01*
X751431Y625290D01*
X751439Y625344D01*
X751451Y625381D01*
X751450Y625421D01*
X751458Y625475D01*
X751458Y629285D01*
X751447Y629350D01*
X751445Y629416D01*
X751427Y629459D01*
X751419Y629506D01*
X751385Y629563D01*
X751360Y629623D01*
X751329Y629658D01*
X751304Y629699D01*
X751253Y629741D01*
X751209Y629789D01*
X751167Y629811D01*
X751130Y629840D01*
X751068Y629861D01*
X751009Y629892D01*
X750955Y629900D01*
X750918Y629912D01*
X750878Y629911D01*
X750824Y629919D01*
X745236Y629919D01*
X745171Y629908D01*
X745105Y629906D01*
X745062Y629888D01*
X745015Y629880D01*
X744958Y629846D01*
X744898Y629821D01*
X744863Y629790D01*
X744822Y629765D01*
X744781Y629714D01*
X744732Y629670D01*
X744710Y629628D01*
X744681Y629591D01*
X744660Y629529D01*
X744629Y629470D01*
X744621Y629416D01*
X744609Y629379D01*
X744609Y629375D01*
X744609Y629374D01*
X744610Y629339D01*
X744602Y629285D01*
X744602Y625475D01*
X744613Y625410D01*
X744615Y625344D01*
X744633Y625301D01*
X744641Y625254D01*
X744675Y625197D01*
X744700Y625137D01*
X744731Y625102D01*
X744756Y625061D01*
X744807Y625020D01*
X744851Y624971D01*
X744893Y624949D01*
X744930Y624920D01*
X744992Y624899D01*
X745051Y624868D01*
X745105Y624860D01*
X745142Y624848D01*
X745182Y624849D01*
X745236Y624841D01*
X750824Y624841D01*
X750889Y624852D01*
G37*
G36*
X750889Y213372D02*
X750889Y213372D01*
X750955Y213374D01*
X750998Y213392D01*
X751045Y213400D01*
X751102Y213434D01*
X751162Y213459D01*
X751197Y213490D01*
X751238Y213515D01*
X751280Y213566D01*
X751328Y213610D01*
X751350Y213652D01*
X751379Y213689D01*
X751400Y213751D01*
X751431Y213810D01*
X751439Y213864D01*
X751451Y213901D01*
X751450Y213941D01*
X751458Y213995D01*
X751458Y217805D01*
X751447Y217870D01*
X751445Y217936D01*
X751427Y217979D01*
X751419Y218026D01*
X751385Y218083D01*
X751360Y218143D01*
X751329Y218178D01*
X751304Y218219D01*
X751253Y218261D01*
X751209Y218309D01*
X751167Y218331D01*
X751130Y218360D01*
X751068Y218381D01*
X751009Y218412D01*
X750955Y218420D01*
X750918Y218432D01*
X750878Y218431D01*
X750824Y218439D01*
X745236Y218439D01*
X745171Y218428D01*
X745105Y218426D01*
X745062Y218408D01*
X745015Y218400D01*
X744958Y218366D01*
X744898Y218341D01*
X744863Y218310D01*
X744822Y218285D01*
X744781Y218234D01*
X744732Y218190D01*
X744710Y218148D01*
X744681Y218111D01*
X744660Y218049D01*
X744629Y217990D01*
X744621Y217936D01*
X744609Y217899D01*
X744609Y217895D01*
X744609Y217894D01*
X744610Y217859D01*
X744602Y217805D01*
X744602Y213995D01*
X744613Y213930D01*
X744615Y213864D01*
X744633Y213821D01*
X744641Y213774D01*
X744675Y213717D01*
X744700Y213657D01*
X744731Y213622D01*
X744756Y213581D01*
X744807Y213540D01*
X744851Y213491D01*
X744893Y213469D01*
X744930Y213440D01*
X744992Y213419D01*
X745051Y213388D01*
X745105Y213380D01*
X745142Y213368D01*
X745182Y213369D01*
X745236Y213361D01*
X750824Y213361D01*
X750889Y213372D01*
G37*
G36*
X110809Y624852D02*
X110809Y624852D01*
X110875Y624854D01*
X110918Y624872D01*
X110965Y624880D01*
X111022Y624914D01*
X111082Y624939D01*
X111117Y624970D01*
X111158Y624995D01*
X111200Y625046D01*
X111248Y625090D01*
X111270Y625132D01*
X111299Y625169D01*
X111320Y625231D01*
X111351Y625290D01*
X111359Y625344D01*
X111371Y625381D01*
X111370Y625421D01*
X111378Y625475D01*
X111378Y629285D01*
X111367Y629350D01*
X111365Y629416D01*
X111347Y629459D01*
X111339Y629506D01*
X111305Y629563D01*
X111280Y629623D01*
X111249Y629658D01*
X111224Y629699D01*
X111173Y629741D01*
X111129Y629789D01*
X111087Y629811D01*
X111050Y629840D01*
X110988Y629861D01*
X110929Y629892D01*
X110875Y629900D01*
X110838Y629912D01*
X110798Y629911D01*
X110744Y629919D01*
X105156Y629919D01*
X105091Y629908D01*
X105025Y629906D01*
X104982Y629888D01*
X104935Y629880D01*
X104878Y629846D01*
X104818Y629821D01*
X104783Y629790D01*
X104742Y629765D01*
X104701Y629714D01*
X104652Y629670D01*
X104630Y629628D01*
X104601Y629591D01*
X104580Y629529D01*
X104549Y629470D01*
X104541Y629416D01*
X104529Y629379D01*
X104529Y629375D01*
X104529Y629374D01*
X104530Y629339D01*
X104522Y629285D01*
X104522Y625475D01*
X104533Y625410D01*
X104535Y625344D01*
X104553Y625301D01*
X104561Y625254D01*
X104595Y625197D01*
X104620Y625137D01*
X104651Y625102D01*
X104676Y625061D01*
X104727Y625020D01*
X104771Y624971D01*
X104813Y624949D01*
X104850Y624920D01*
X104912Y624899D01*
X104971Y624868D01*
X105025Y624860D01*
X105062Y624848D01*
X105102Y624849D01*
X105156Y624841D01*
X110744Y624841D01*
X110809Y624852D01*
G37*
G36*
X110809Y1036332D02*
X110809Y1036332D01*
X110875Y1036334D01*
X110918Y1036352D01*
X110965Y1036360D01*
X111022Y1036394D01*
X111082Y1036419D01*
X111117Y1036450D01*
X111158Y1036475D01*
X111200Y1036526D01*
X111248Y1036570D01*
X111270Y1036612D01*
X111299Y1036649D01*
X111320Y1036711D01*
X111351Y1036770D01*
X111359Y1036824D01*
X111371Y1036861D01*
X111370Y1036901D01*
X111378Y1036955D01*
X111378Y1040765D01*
X111367Y1040830D01*
X111365Y1040896D01*
X111347Y1040939D01*
X111339Y1040986D01*
X111305Y1041043D01*
X111280Y1041103D01*
X111249Y1041138D01*
X111224Y1041179D01*
X111173Y1041221D01*
X111129Y1041269D01*
X111087Y1041291D01*
X111050Y1041320D01*
X110988Y1041341D01*
X110929Y1041372D01*
X110875Y1041380D01*
X110838Y1041392D01*
X110798Y1041391D01*
X110744Y1041399D01*
X105156Y1041399D01*
X105091Y1041388D01*
X105025Y1041386D01*
X104982Y1041368D01*
X104935Y1041360D01*
X104878Y1041326D01*
X104818Y1041301D01*
X104783Y1041270D01*
X104742Y1041245D01*
X104701Y1041194D01*
X104652Y1041150D01*
X104630Y1041108D01*
X104601Y1041071D01*
X104580Y1041009D01*
X104549Y1040950D01*
X104541Y1040896D01*
X104529Y1040859D01*
X104529Y1040855D01*
X104529Y1040854D01*
X104530Y1040819D01*
X104522Y1040765D01*
X104522Y1036955D01*
X104533Y1036890D01*
X104535Y1036824D01*
X104553Y1036781D01*
X104561Y1036734D01*
X104595Y1036677D01*
X104620Y1036617D01*
X104651Y1036582D01*
X104676Y1036541D01*
X104727Y1036500D01*
X104771Y1036451D01*
X104813Y1036429D01*
X104850Y1036400D01*
X104912Y1036379D01*
X104971Y1036348D01*
X105025Y1036340D01*
X105062Y1036328D01*
X105102Y1036329D01*
X105156Y1036321D01*
X110744Y1036321D01*
X110809Y1036332D01*
G37*
G36*
X110809Y213372D02*
X110809Y213372D01*
X110875Y213374D01*
X110918Y213392D01*
X110965Y213400D01*
X111022Y213434D01*
X111082Y213459D01*
X111117Y213490D01*
X111158Y213515D01*
X111200Y213566D01*
X111248Y213610D01*
X111270Y213652D01*
X111299Y213689D01*
X111320Y213751D01*
X111351Y213810D01*
X111359Y213864D01*
X111371Y213901D01*
X111370Y213941D01*
X111378Y213995D01*
X111378Y217805D01*
X111367Y217870D01*
X111365Y217936D01*
X111347Y217979D01*
X111339Y218026D01*
X111305Y218083D01*
X111280Y218143D01*
X111249Y218178D01*
X111224Y218219D01*
X111173Y218261D01*
X111129Y218309D01*
X111087Y218331D01*
X111050Y218360D01*
X110988Y218381D01*
X110929Y218412D01*
X110875Y218420D01*
X110838Y218432D01*
X110798Y218431D01*
X110744Y218439D01*
X105156Y218439D01*
X105091Y218428D01*
X105025Y218426D01*
X104982Y218408D01*
X104935Y218400D01*
X104878Y218366D01*
X104818Y218341D01*
X104783Y218310D01*
X104742Y218285D01*
X104701Y218234D01*
X104652Y218190D01*
X104630Y218148D01*
X104601Y218111D01*
X104580Y218049D01*
X104549Y217990D01*
X104541Y217936D01*
X104529Y217899D01*
X104529Y217895D01*
X104529Y217894D01*
X104530Y217859D01*
X104522Y217805D01*
X104522Y213995D01*
X104533Y213930D01*
X104535Y213864D01*
X104553Y213821D01*
X104561Y213774D01*
X104595Y213717D01*
X104620Y213657D01*
X104651Y213622D01*
X104676Y213581D01*
X104727Y213540D01*
X104771Y213491D01*
X104813Y213469D01*
X104850Y213440D01*
X104912Y213419D01*
X104971Y213388D01*
X105025Y213380D01*
X105062Y213368D01*
X105102Y213369D01*
X105156Y213361D01*
X110744Y213361D01*
X110809Y213372D01*
G37*
G36*
X108650Y60083D02*
X108650Y60083D01*
X108716Y60085D01*
X108759Y60103D01*
X108806Y60111D01*
X108863Y60145D01*
X108923Y60170D01*
X108958Y60201D01*
X108999Y60226D01*
X109041Y60277D01*
X109089Y60321D01*
X109111Y60363D01*
X109140Y60400D01*
X109161Y60462D01*
X109192Y60521D01*
X109200Y60575D01*
X109212Y60612D01*
X109211Y60652D01*
X109219Y60706D01*
X109219Y66294D01*
X109208Y66359D01*
X109206Y66425D01*
X109188Y66468D01*
X109180Y66515D01*
X109146Y66572D01*
X109121Y66632D01*
X109090Y66667D01*
X109065Y66708D01*
X109014Y66750D01*
X108970Y66798D01*
X108928Y66820D01*
X108891Y66849D01*
X108829Y66870D01*
X108770Y66901D01*
X108716Y66909D01*
X108679Y66921D01*
X108639Y66920D01*
X108585Y66928D01*
X104775Y66928D01*
X104710Y66917D01*
X104644Y66915D01*
X104601Y66897D01*
X104554Y66889D01*
X104497Y66855D01*
X104437Y66830D01*
X104402Y66799D01*
X104361Y66774D01*
X104320Y66723D01*
X104271Y66679D01*
X104249Y66637D01*
X104220Y66600D01*
X104199Y66538D01*
X104168Y66479D01*
X104160Y66425D01*
X104148Y66388D01*
X104149Y66348D01*
X104141Y66294D01*
X104141Y60706D01*
X104152Y60641D01*
X104154Y60575D01*
X104172Y60532D01*
X104180Y60485D01*
X104214Y60428D01*
X104239Y60368D01*
X104270Y60333D01*
X104295Y60292D01*
X104346Y60251D01*
X104390Y60202D01*
X104432Y60180D01*
X104469Y60151D01*
X104531Y60130D01*
X104590Y60099D01*
X104644Y60091D01*
X104681Y60079D01*
X104721Y60080D01*
X104775Y60072D01*
X108585Y60072D01*
X108650Y60083D01*
G37*
G36*
X748730Y1294523D02*
X748730Y1294523D01*
X748796Y1294525D01*
X748839Y1294543D01*
X748886Y1294551D01*
X748943Y1294585D01*
X749003Y1294610D01*
X749038Y1294641D01*
X749079Y1294666D01*
X749121Y1294717D01*
X749169Y1294761D01*
X749191Y1294803D01*
X749220Y1294840D01*
X749241Y1294902D01*
X749272Y1294961D01*
X749280Y1295015D01*
X749292Y1295052D01*
X749291Y1295092D01*
X749299Y1295146D01*
X749299Y1300734D01*
X749288Y1300799D01*
X749286Y1300865D01*
X749268Y1300908D01*
X749260Y1300955D01*
X749226Y1301012D01*
X749201Y1301072D01*
X749170Y1301107D01*
X749145Y1301148D01*
X749094Y1301190D01*
X749050Y1301238D01*
X749008Y1301260D01*
X748971Y1301289D01*
X748909Y1301310D01*
X748850Y1301341D01*
X748796Y1301349D01*
X748759Y1301361D01*
X748719Y1301360D01*
X748665Y1301368D01*
X744855Y1301368D01*
X744790Y1301357D01*
X744724Y1301355D01*
X744681Y1301337D01*
X744634Y1301329D01*
X744577Y1301295D01*
X744517Y1301270D01*
X744482Y1301239D01*
X744441Y1301214D01*
X744400Y1301163D01*
X744351Y1301119D01*
X744329Y1301077D01*
X744300Y1301040D01*
X744279Y1300978D01*
X744248Y1300919D01*
X744240Y1300865D01*
X744228Y1300828D01*
X744229Y1300788D01*
X744221Y1300734D01*
X744221Y1295146D01*
X744232Y1295081D01*
X744234Y1295015D01*
X744252Y1294972D01*
X744260Y1294925D01*
X744294Y1294868D01*
X744319Y1294808D01*
X744350Y1294773D01*
X744375Y1294732D01*
X744426Y1294691D01*
X744470Y1294642D01*
X744512Y1294620D01*
X744549Y1294591D01*
X744611Y1294570D01*
X744670Y1294539D01*
X744724Y1294531D01*
X744761Y1294519D01*
X744801Y1294520D01*
X744855Y1294512D01*
X748665Y1294512D01*
X748730Y1294523D01*
G37*
G36*
X748730Y883043D02*
X748730Y883043D01*
X748796Y883045D01*
X748839Y883063D01*
X748886Y883071D01*
X748943Y883105D01*
X749003Y883130D01*
X749038Y883161D01*
X749079Y883186D01*
X749121Y883237D01*
X749169Y883281D01*
X749191Y883323D01*
X749220Y883360D01*
X749241Y883422D01*
X749272Y883481D01*
X749280Y883535D01*
X749292Y883572D01*
X749291Y883612D01*
X749299Y883666D01*
X749299Y889254D01*
X749288Y889319D01*
X749286Y889385D01*
X749268Y889428D01*
X749260Y889475D01*
X749226Y889532D01*
X749201Y889592D01*
X749170Y889627D01*
X749145Y889668D01*
X749094Y889710D01*
X749050Y889758D01*
X749008Y889780D01*
X748971Y889809D01*
X748909Y889830D01*
X748850Y889861D01*
X748796Y889869D01*
X748759Y889881D01*
X748719Y889880D01*
X748665Y889888D01*
X744855Y889888D01*
X744790Y889877D01*
X744724Y889875D01*
X744681Y889857D01*
X744634Y889849D01*
X744577Y889815D01*
X744517Y889790D01*
X744482Y889759D01*
X744441Y889734D01*
X744400Y889683D01*
X744351Y889639D01*
X744329Y889597D01*
X744300Y889560D01*
X744279Y889498D01*
X744248Y889439D01*
X744240Y889385D01*
X744228Y889348D01*
X744229Y889308D01*
X744221Y889254D01*
X744221Y883666D01*
X744232Y883601D01*
X744234Y883535D01*
X744252Y883492D01*
X744260Y883445D01*
X744294Y883388D01*
X744319Y883328D01*
X744350Y883293D01*
X744375Y883252D01*
X744426Y883211D01*
X744470Y883162D01*
X744512Y883140D01*
X744549Y883111D01*
X744611Y883090D01*
X744670Y883059D01*
X744724Y883051D01*
X744761Y883039D01*
X744801Y883040D01*
X744855Y883032D01*
X748665Y883032D01*
X748730Y883043D01*
G37*
G36*
X108650Y471563D02*
X108650Y471563D01*
X108716Y471565D01*
X108759Y471583D01*
X108806Y471591D01*
X108863Y471625D01*
X108923Y471650D01*
X108958Y471681D01*
X108999Y471706D01*
X109041Y471757D01*
X109089Y471801D01*
X109111Y471843D01*
X109140Y471880D01*
X109161Y471942D01*
X109192Y472001D01*
X109200Y472055D01*
X109212Y472092D01*
X109211Y472132D01*
X109219Y472186D01*
X109219Y477774D01*
X109208Y477839D01*
X109206Y477905D01*
X109188Y477948D01*
X109180Y477995D01*
X109146Y478052D01*
X109121Y478112D01*
X109090Y478147D01*
X109065Y478188D01*
X109014Y478230D01*
X108970Y478278D01*
X108928Y478300D01*
X108891Y478329D01*
X108829Y478350D01*
X108770Y478381D01*
X108716Y478389D01*
X108679Y478401D01*
X108639Y478400D01*
X108585Y478408D01*
X104775Y478408D01*
X104710Y478397D01*
X104644Y478395D01*
X104601Y478377D01*
X104554Y478369D01*
X104497Y478335D01*
X104437Y478310D01*
X104402Y478279D01*
X104361Y478254D01*
X104320Y478203D01*
X104271Y478159D01*
X104249Y478117D01*
X104220Y478080D01*
X104199Y478018D01*
X104168Y477959D01*
X104160Y477905D01*
X104148Y477868D01*
X104149Y477828D01*
X104141Y477774D01*
X104141Y472186D01*
X104152Y472121D01*
X104154Y472055D01*
X104172Y472012D01*
X104180Y471965D01*
X104214Y471908D01*
X104239Y471848D01*
X104270Y471813D01*
X104295Y471772D01*
X104346Y471731D01*
X104390Y471682D01*
X104432Y471660D01*
X104469Y471631D01*
X104531Y471610D01*
X104590Y471579D01*
X104644Y471571D01*
X104681Y471559D01*
X104721Y471560D01*
X104775Y471552D01*
X108585Y471552D01*
X108650Y471563D01*
G37*
G36*
X108650Y1294523D02*
X108650Y1294523D01*
X108716Y1294525D01*
X108759Y1294543D01*
X108806Y1294551D01*
X108863Y1294585D01*
X108923Y1294610D01*
X108958Y1294641D01*
X108999Y1294666D01*
X109041Y1294717D01*
X109089Y1294761D01*
X109111Y1294803D01*
X109140Y1294840D01*
X109161Y1294902D01*
X109192Y1294961D01*
X109200Y1295015D01*
X109212Y1295052D01*
X109211Y1295092D01*
X109219Y1295146D01*
X109219Y1300734D01*
X109208Y1300799D01*
X109206Y1300865D01*
X109188Y1300908D01*
X109180Y1300955D01*
X109146Y1301012D01*
X109121Y1301072D01*
X109090Y1301107D01*
X109065Y1301148D01*
X109014Y1301190D01*
X108970Y1301238D01*
X108928Y1301260D01*
X108891Y1301289D01*
X108829Y1301310D01*
X108770Y1301341D01*
X108716Y1301349D01*
X108679Y1301361D01*
X108639Y1301360D01*
X108585Y1301368D01*
X104775Y1301368D01*
X104710Y1301357D01*
X104644Y1301355D01*
X104601Y1301337D01*
X104554Y1301329D01*
X104497Y1301295D01*
X104437Y1301270D01*
X104402Y1301239D01*
X104361Y1301214D01*
X104320Y1301163D01*
X104271Y1301119D01*
X104249Y1301077D01*
X104220Y1301040D01*
X104199Y1300978D01*
X104168Y1300919D01*
X104160Y1300865D01*
X104148Y1300828D01*
X104149Y1300788D01*
X104141Y1300734D01*
X104141Y1295146D01*
X104152Y1295081D01*
X104154Y1295015D01*
X104172Y1294972D01*
X104180Y1294925D01*
X104214Y1294868D01*
X104239Y1294808D01*
X104270Y1294773D01*
X104295Y1294732D01*
X104346Y1294691D01*
X104390Y1294642D01*
X104432Y1294620D01*
X104469Y1294591D01*
X104531Y1294570D01*
X104590Y1294539D01*
X104644Y1294531D01*
X104681Y1294519D01*
X104721Y1294520D01*
X104775Y1294512D01*
X108585Y1294512D01*
X108650Y1294523D01*
G37*
G36*
X748730Y471563D02*
X748730Y471563D01*
X748796Y471565D01*
X748839Y471583D01*
X748886Y471591D01*
X748943Y471625D01*
X749003Y471650D01*
X749038Y471681D01*
X749079Y471706D01*
X749121Y471757D01*
X749169Y471801D01*
X749191Y471843D01*
X749220Y471880D01*
X749241Y471942D01*
X749272Y472001D01*
X749280Y472055D01*
X749292Y472092D01*
X749291Y472132D01*
X749299Y472186D01*
X749299Y477774D01*
X749288Y477839D01*
X749286Y477905D01*
X749268Y477948D01*
X749260Y477995D01*
X749226Y478052D01*
X749201Y478112D01*
X749170Y478147D01*
X749145Y478188D01*
X749094Y478230D01*
X749050Y478278D01*
X749008Y478300D01*
X748971Y478329D01*
X748909Y478350D01*
X748850Y478381D01*
X748796Y478389D01*
X748759Y478401D01*
X748719Y478400D01*
X748665Y478408D01*
X744855Y478408D01*
X744790Y478397D01*
X744724Y478395D01*
X744681Y478377D01*
X744634Y478369D01*
X744577Y478335D01*
X744517Y478310D01*
X744482Y478279D01*
X744441Y478254D01*
X744400Y478203D01*
X744351Y478159D01*
X744329Y478117D01*
X744300Y478080D01*
X744279Y478018D01*
X744248Y477959D01*
X744240Y477905D01*
X744228Y477868D01*
X744229Y477828D01*
X744221Y477774D01*
X744221Y472186D01*
X744232Y472121D01*
X744234Y472055D01*
X744252Y472012D01*
X744260Y471965D01*
X744294Y471908D01*
X744319Y471848D01*
X744350Y471813D01*
X744375Y471772D01*
X744426Y471731D01*
X744470Y471682D01*
X744512Y471660D01*
X744549Y471631D01*
X744611Y471610D01*
X744670Y471579D01*
X744724Y471571D01*
X744761Y471559D01*
X744801Y471560D01*
X744855Y471552D01*
X748665Y471552D01*
X748730Y471563D01*
G37*
G36*
X748730Y60083D02*
X748730Y60083D01*
X748796Y60085D01*
X748839Y60103D01*
X748886Y60111D01*
X748943Y60145D01*
X749003Y60170D01*
X749038Y60201D01*
X749079Y60226D01*
X749121Y60277D01*
X749169Y60321D01*
X749191Y60363D01*
X749220Y60400D01*
X749241Y60462D01*
X749272Y60521D01*
X749280Y60575D01*
X749292Y60612D01*
X749291Y60652D01*
X749299Y60706D01*
X749299Y66294D01*
X749288Y66359D01*
X749286Y66425D01*
X749268Y66468D01*
X749260Y66515D01*
X749226Y66572D01*
X749201Y66632D01*
X749170Y66667D01*
X749145Y66708D01*
X749094Y66750D01*
X749050Y66798D01*
X749008Y66820D01*
X748971Y66849D01*
X748909Y66870D01*
X748850Y66901D01*
X748796Y66909D01*
X748759Y66921D01*
X748719Y66920D01*
X748665Y66928D01*
X744855Y66928D01*
X744790Y66917D01*
X744724Y66915D01*
X744681Y66897D01*
X744634Y66889D01*
X744577Y66855D01*
X744517Y66830D01*
X744482Y66799D01*
X744441Y66774D01*
X744400Y66723D01*
X744351Y66679D01*
X744329Y66637D01*
X744300Y66600D01*
X744279Y66538D01*
X744248Y66479D01*
X744240Y66425D01*
X744228Y66388D01*
X744229Y66348D01*
X744221Y66294D01*
X744221Y60706D01*
X744232Y60641D01*
X744234Y60575D01*
X744252Y60532D01*
X744260Y60485D01*
X744294Y60428D01*
X744319Y60368D01*
X744350Y60333D01*
X744375Y60292D01*
X744426Y60251D01*
X744470Y60202D01*
X744512Y60180D01*
X744549Y60151D01*
X744611Y60130D01*
X744670Y60099D01*
X744724Y60091D01*
X744761Y60079D01*
X744801Y60080D01*
X744855Y60072D01*
X748665Y60072D01*
X748730Y60083D01*
G37*
G36*
X108650Y883043D02*
X108650Y883043D01*
X108716Y883045D01*
X108759Y883063D01*
X108806Y883071D01*
X108863Y883105D01*
X108923Y883130D01*
X108958Y883161D01*
X108999Y883186D01*
X109041Y883237D01*
X109089Y883281D01*
X109111Y883323D01*
X109140Y883360D01*
X109161Y883422D01*
X109192Y883481D01*
X109200Y883535D01*
X109212Y883572D01*
X109211Y883612D01*
X109219Y883666D01*
X109219Y889254D01*
X109208Y889319D01*
X109206Y889385D01*
X109188Y889428D01*
X109180Y889475D01*
X109146Y889532D01*
X109121Y889592D01*
X109090Y889627D01*
X109065Y889668D01*
X109014Y889710D01*
X108970Y889758D01*
X108928Y889780D01*
X108891Y889809D01*
X108829Y889830D01*
X108770Y889861D01*
X108716Y889869D01*
X108679Y889881D01*
X108639Y889880D01*
X108585Y889888D01*
X104775Y889888D01*
X104710Y889877D01*
X104644Y889875D01*
X104601Y889857D01*
X104554Y889849D01*
X104497Y889815D01*
X104437Y889790D01*
X104402Y889759D01*
X104361Y889734D01*
X104320Y889683D01*
X104271Y889639D01*
X104249Y889597D01*
X104220Y889560D01*
X104199Y889498D01*
X104168Y889439D01*
X104160Y889385D01*
X104148Y889348D01*
X104149Y889308D01*
X104141Y889254D01*
X104141Y883666D01*
X104152Y883601D01*
X104154Y883535D01*
X104172Y883492D01*
X104180Y883445D01*
X104214Y883388D01*
X104239Y883328D01*
X104270Y883293D01*
X104295Y883252D01*
X104346Y883211D01*
X104390Y883162D01*
X104432Y883140D01*
X104469Y883111D01*
X104531Y883090D01*
X104590Y883059D01*
X104644Y883051D01*
X104681Y883039D01*
X104721Y883040D01*
X104775Y883032D01*
X108585Y883032D01*
X108650Y883043D01*
G37*
G36*
X1225615Y1402092D02*
X1225615Y1402092D01*
X1225681Y1402094D01*
X1225724Y1402112D01*
X1225771Y1402120D01*
X1225828Y1402154D01*
X1225888Y1402179D01*
X1225923Y1402210D01*
X1225964Y1402235D01*
X1226006Y1402286D01*
X1226054Y1402330D01*
X1226076Y1402372D01*
X1226105Y1402409D01*
X1226126Y1402471D01*
X1226157Y1402530D01*
X1226165Y1402584D01*
X1226177Y1402621D01*
X1226176Y1402661D01*
X1226184Y1402715D01*
X1226184Y1406525D01*
X1226173Y1406590D01*
X1226171Y1406656D01*
X1226153Y1406699D01*
X1226145Y1406746D01*
X1226111Y1406803D01*
X1226086Y1406863D01*
X1226055Y1406898D01*
X1226030Y1406939D01*
X1225979Y1406981D01*
X1225935Y1407029D01*
X1225893Y1407051D01*
X1225856Y1407080D01*
X1225794Y1407101D01*
X1225735Y1407132D01*
X1225681Y1407140D01*
X1225644Y1407152D01*
X1225604Y1407151D01*
X1225550Y1407159D01*
X1223010Y1407159D01*
X1222945Y1407148D01*
X1222879Y1407146D01*
X1222836Y1407128D01*
X1222789Y1407120D01*
X1222732Y1407086D01*
X1222672Y1407061D01*
X1222637Y1407030D01*
X1222596Y1407005D01*
X1222555Y1406954D01*
X1222506Y1406910D01*
X1222484Y1406868D01*
X1222455Y1406831D01*
X1222434Y1406769D01*
X1222403Y1406710D01*
X1222395Y1406656D01*
X1222383Y1406619D01*
X1222383Y1406615D01*
X1222383Y1406614D01*
X1222384Y1406579D01*
X1222376Y1406525D01*
X1222376Y1402715D01*
X1222387Y1402650D01*
X1222389Y1402584D01*
X1222407Y1402541D01*
X1222415Y1402494D01*
X1222449Y1402437D01*
X1222474Y1402377D01*
X1222505Y1402342D01*
X1222530Y1402301D01*
X1222581Y1402260D01*
X1222625Y1402211D01*
X1222667Y1402189D01*
X1222704Y1402160D01*
X1222766Y1402139D01*
X1222825Y1402108D01*
X1222879Y1402100D01*
X1222916Y1402088D01*
X1222956Y1402089D01*
X1223010Y1402081D01*
X1225550Y1402081D01*
X1225615Y1402092D01*
G37*
G36*
X585535Y1402092D02*
X585535Y1402092D01*
X585601Y1402094D01*
X585644Y1402112D01*
X585691Y1402120D01*
X585748Y1402154D01*
X585808Y1402179D01*
X585843Y1402210D01*
X585884Y1402235D01*
X585926Y1402286D01*
X585974Y1402330D01*
X585996Y1402372D01*
X586025Y1402409D01*
X586046Y1402471D01*
X586077Y1402530D01*
X586085Y1402584D01*
X586097Y1402621D01*
X586096Y1402661D01*
X586104Y1402715D01*
X586104Y1406525D01*
X586093Y1406590D01*
X586091Y1406656D01*
X586073Y1406699D01*
X586065Y1406746D01*
X586031Y1406803D01*
X586006Y1406863D01*
X585975Y1406898D01*
X585950Y1406939D01*
X585899Y1406981D01*
X585855Y1407029D01*
X585813Y1407051D01*
X585776Y1407080D01*
X585714Y1407101D01*
X585655Y1407132D01*
X585601Y1407140D01*
X585564Y1407152D01*
X585524Y1407151D01*
X585470Y1407159D01*
X582930Y1407159D01*
X582865Y1407148D01*
X582799Y1407146D01*
X582756Y1407128D01*
X582709Y1407120D01*
X582652Y1407086D01*
X582592Y1407061D01*
X582557Y1407030D01*
X582516Y1407005D01*
X582475Y1406954D01*
X582426Y1406910D01*
X582404Y1406868D01*
X582375Y1406831D01*
X582354Y1406769D01*
X582323Y1406710D01*
X582315Y1406656D01*
X582303Y1406619D01*
X582303Y1406615D01*
X582303Y1406614D01*
X582304Y1406579D01*
X582296Y1406525D01*
X582296Y1402715D01*
X582307Y1402650D01*
X582309Y1402584D01*
X582327Y1402541D01*
X582335Y1402494D01*
X582369Y1402437D01*
X582394Y1402377D01*
X582425Y1402342D01*
X582450Y1402301D01*
X582501Y1402260D01*
X582545Y1402211D01*
X582587Y1402189D01*
X582624Y1402160D01*
X582686Y1402139D01*
X582745Y1402108D01*
X582799Y1402100D01*
X582836Y1402088D01*
X582876Y1402089D01*
X582930Y1402081D01*
X585470Y1402081D01*
X585535Y1402092D01*
G37*
G36*
X1225615Y1391932D02*
X1225615Y1391932D01*
X1225681Y1391934D01*
X1225724Y1391952D01*
X1225771Y1391960D01*
X1225828Y1391994D01*
X1225888Y1392019D01*
X1225923Y1392050D01*
X1225964Y1392075D01*
X1226006Y1392126D01*
X1226054Y1392170D01*
X1226076Y1392212D01*
X1226105Y1392249D01*
X1226126Y1392311D01*
X1226157Y1392370D01*
X1226165Y1392424D01*
X1226177Y1392461D01*
X1226176Y1392501D01*
X1226184Y1392555D01*
X1226184Y1396365D01*
X1226173Y1396430D01*
X1226171Y1396496D01*
X1226153Y1396539D01*
X1226145Y1396586D01*
X1226111Y1396643D01*
X1226086Y1396703D01*
X1226055Y1396738D01*
X1226030Y1396779D01*
X1225979Y1396821D01*
X1225935Y1396869D01*
X1225893Y1396891D01*
X1225856Y1396920D01*
X1225794Y1396941D01*
X1225735Y1396972D01*
X1225681Y1396980D01*
X1225644Y1396992D01*
X1225604Y1396991D01*
X1225550Y1396999D01*
X1223010Y1396999D01*
X1222945Y1396988D01*
X1222879Y1396986D01*
X1222836Y1396968D01*
X1222789Y1396960D01*
X1222732Y1396926D01*
X1222672Y1396901D01*
X1222637Y1396870D01*
X1222596Y1396845D01*
X1222555Y1396794D01*
X1222506Y1396750D01*
X1222484Y1396708D01*
X1222455Y1396671D01*
X1222434Y1396609D01*
X1222403Y1396550D01*
X1222395Y1396496D01*
X1222383Y1396459D01*
X1222383Y1396455D01*
X1222383Y1396454D01*
X1222384Y1396419D01*
X1222376Y1396365D01*
X1222376Y1392555D01*
X1222387Y1392490D01*
X1222389Y1392424D01*
X1222407Y1392381D01*
X1222415Y1392334D01*
X1222449Y1392277D01*
X1222474Y1392217D01*
X1222505Y1392182D01*
X1222530Y1392141D01*
X1222581Y1392100D01*
X1222625Y1392051D01*
X1222667Y1392029D01*
X1222704Y1392000D01*
X1222766Y1391979D01*
X1222825Y1391948D01*
X1222879Y1391940D01*
X1222916Y1391928D01*
X1222956Y1391929D01*
X1223010Y1391921D01*
X1225550Y1391921D01*
X1225615Y1391932D01*
G37*
G36*
X585535Y1391932D02*
X585535Y1391932D01*
X585601Y1391934D01*
X585644Y1391952D01*
X585691Y1391960D01*
X585748Y1391994D01*
X585808Y1392019D01*
X585843Y1392050D01*
X585884Y1392075D01*
X585926Y1392126D01*
X585974Y1392170D01*
X585996Y1392212D01*
X586025Y1392249D01*
X586046Y1392311D01*
X586077Y1392370D01*
X586085Y1392424D01*
X586097Y1392461D01*
X586096Y1392501D01*
X586104Y1392555D01*
X586104Y1396365D01*
X586093Y1396430D01*
X586091Y1396496D01*
X586073Y1396539D01*
X586065Y1396586D01*
X586031Y1396643D01*
X586006Y1396703D01*
X585975Y1396738D01*
X585950Y1396779D01*
X585899Y1396821D01*
X585855Y1396869D01*
X585813Y1396891D01*
X585776Y1396920D01*
X585714Y1396941D01*
X585655Y1396972D01*
X585601Y1396980D01*
X585564Y1396992D01*
X585524Y1396991D01*
X585470Y1396999D01*
X582930Y1396999D01*
X582865Y1396988D01*
X582799Y1396986D01*
X582756Y1396968D01*
X582709Y1396960D01*
X582652Y1396926D01*
X582592Y1396901D01*
X582557Y1396870D01*
X582516Y1396845D01*
X582475Y1396794D01*
X582426Y1396750D01*
X582404Y1396708D01*
X582375Y1396671D01*
X582354Y1396609D01*
X582323Y1396550D01*
X582315Y1396496D01*
X582303Y1396459D01*
X582303Y1396455D01*
X582303Y1396454D01*
X582304Y1396419D01*
X582296Y1396365D01*
X582296Y1392555D01*
X582307Y1392490D01*
X582309Y1392424D01*
X582327Y1392381D01*
X582335Y1392334D01*
X582369Y1392277D01*
X582394Y1392217D01*
X582425Y1392182D01*
X582450Y1392141D01*
X582501Y1392100D01*
X582545Y1392051D01*
X582587Y1392029D01*
X582624Y1392000D01*
X582686Y1391979D01*
X582745Y1391948D01*
X582799Y1391940D01*
X582836Y1391928D01*
X582876Y1391929D01*
X582930Y1391921D01*
X585470Y1391921D01*
X585535Y1391932D01*
G37*
G36*
X585535Y990612D02*
X585535Y990612D01*
X585601Y990614D01*
X585644Y990632D01*
X585691Y990640D01*
X585748Y990674D01*
X585808Y990699D01*
X585843Y990730D01*
X585884Y990755D01*
X585926Y990806D01*
X585974Y990850D01*
X585996Y990892D01*
X586025Y990929D01*
X586046Y990991D01*
X586077Y991050D01*
X586085Y991104D01*
X586097Y991141D01*
X586096Y991181D01*
X586104Y991235D01*
X586104Y995045D01*
X586093Y995110D01*
X586091Y995176D01*
X586073Y995219D01*
X586065Y995266D01*
X586031Y995323D01*
X586006Y995383D01*
X585975Y995418D01*
X585950Y995459D01*
X585899Y995501D01*
X585855Y995549D01*
X585813Y995571D01*
X585776Y995600D01*
X585714Y995621D01*
X585655Y995652D01*
X585601Y995660D01*
X585564Y995672D01*
X585524Y995671D01*
X585470Y995679D01*
X582930Y995679D01*
X582865Y995668D01*
X582799Y995666D01*
X582756Y995648D01*
X582709Y995640D01*
X582652Y995606D01*
X582592Y995581D01*
X582557Y995550D01*
X582516Y995525D01*
X582475Y995474D01*
X582426Y995430D01*
X582404Y995388D01*
X582375Y995351D01*
X582354Y995289D01*
X582323Y995230D01*
X582315Y995176D01*
X582303Y995139D01*
X582303Y995135D01*
X582303Y995134D01*
X582304Y995099D01*
X582296Y995045D01*
X582296Y991235D01*
X582307Y991170D01*
X582309Y991104D01*
X582327Y991061D01*
X582335Y991014D01*
X582369Y990957D01*
X582394Y990897D01*
X582425Y990862D01*
X582450Y990821D01*
X582501Y990780D01*
X582545Y990731D01*
X582587Y990709D01*
X582624Y990680D01*
X582686Y990659D01*
X582745Y990628D01*
X582799Y990620D01*
X582836Y990608D01*
X582876Y990609D01*
X582930Y990601D01*
X585470Y990601D01*
X585535Y990612D01*
G37*
G36*
X1225615Y990612D02*
X1225615Y990612D01*
X1225681Y990614D01*
X1225724Y990632D01*
X1225771Y990640D01*
X1225828Y990674D01*
X1225888Y990699D01*
X1225923Y990730D01*
X1225964Y990755D01*
X1226006Y990806D01*
X1226054Y990850D01*
X1226076Y990892D01*
X1226105Y990929D01*
X1226126Y990991D01*
X1226157Y991050D01*
X1226165Y991104D01*
X1226177Y991141D01*
X1226176Y991181D01*
X1226184Y991235D01*
X1226184Y995045D01*
X1226173Y995110D01*
X1226171Y995176D01*
X1226153Y995219D01*
X1226145Y995266D01*
X1226111Y995323D01*
X1226086Y995383D01*
X1226055Y995418D01*
X1226030Y995459D01*
X1225979Y995501D01*
X1225935Y995549D01*
X1225893Y995571D01*
X1225856Y995600D01*
X1225794Y995621D01*
X1225735Y995652D01*
X1225681Y995660D01*
X1225644Y995672D01*
X1225604Y995671D01*
X1225550Y995679D01*
X1223010Y995679D01*
X1222945Y995668D01*
X1222879Y995666D01*
X1222836Y995648D01*
X1222789Y995640D01*
X1222732Y995606D01*
X1222672Y995581D01*
X1222637Y995550D01*
X1222596Y995525D01*
X1222555Y995474D01*
X1222506Y995430D01*
X1222484Y995388D01*
X1222455Y995351D01*
X1222434Y995289D01*
X1222403Y995230D01*
X1222395Y995176D01*
X1222383Y995139D01*
X1222383Y995135D01*
X1222383Y995134D01*
X1222384Y995099D01*
X1222376Y995045D01*
X1222376Y991235D01*
X1222387Y991170D01*
X1222389Y991104D01*
X1222407Y991061D01*
X1222415Y991014D01*
X1222449Y990957D01*
X1222474Y990897D01*
X1222505Y990862D01*
X1222530Y990821D01*
X1222581Y990780D01*
X1222625Y990731D01*
X1222667Y990709D01*
X1222704Y990680D01*
X1222766Y990659D01*
X1222825Y990628D01*
X1222879Y990620D01*
X1222916Y990608D01*
X1222956Y990609D01*
X1223010Y990601D01*
X1225550Y990601D01*
X1225615Y990612D01*
G37*
G36*
X585535Y980452D02*
X585535Y980452D01*
X585601Y980454D01*
X585644Y980472D01*
X585691Y980480D01*
X585748Y980514D01*
X585808Y980539D01*
X585843Y980570D01*
X585884Y980595D01*
X585926Y980646D01*
X585974Y980690D01*
X585996Y980732D01*
X586025Y980769D01*
X586046Y980831D01*
X586077Y980890D01*
X586085Y980944D01*
X586097Y980981D01*
X586096Y981021D01*
X586104Y981075D01*
X586104Y984885D01*
X586093Y984950D01*
X586091Y985016D01*
X586073Y985059D01*
X586065Y985106D01*
X586031Y985163D01*
X586006Y985223D01*
X585975Y985258D01*
X585950Y985299D01*
X585899Y985341D01*
X585855Y985389D01*
X585813Y985411D01*
X585776Y985440D01*
X585714Y985461D01*
X585655Y985492D01*
X585601Y985500D01*
X585564Y985512D01*
X585524Y985511D01*
X585470Y985519D01*
X582930Y985519D01*
X582865Y985508D01*
X582799Y985506D01*
X582756Y985488D01*
X582709Y985480D01*
X582652Y985446D01*
X582592Y985421D01*
X582557Y985390D01*
X582516Y985365D01*
X582475Y985314D01*
X582426Y985270D01*
X582404Y985228D01*
X582375Y985191D01*
X582354Y985129D01*
X582323Y985070D01*
X582315Y985016D01*
X582303Y984979D01*
X582303Y984975D01*
X582303Y984974D01*
X582304Y984939D01*
X582296Y984885D01*
X582296Y981075D01*
X582307Y981010D01*
X582309Y980944D01*
X582327Y980901D01*
X582335Y980854D01*
X582369Y980797D01*
X582394Y980737D01*
X582425Y980702D01*
X582450Y980661D01*
X582501Y980620D01*
X582545Y980571D01*
X582587Y980549D01*
X582624Y980520D01*
X582686Y980499D01*
X582745Y980468D01*
X582799Y980460D01*
X582836Y980448D01*
X582876Y980449D01*
X582930Y980441D01*
X585470Y980441D01*
X585535Y980452D01*
G37*
G36*
X1225615Y980452D02*
X1225615Y980452D01*
X1225681Y980454D01*
X1225724Y980472D01*
X1225771Y980480D01*
X1225828Y980514D01*
X1225888Y980539D01*
X1225923Y980570D01*
X1225964Y980595D01*
X1226006Y980646D01*
X1226054Y980690D01*
X1226076Y980732D01*
X1226105Y980769D01*
X1226126Y980831D01*
X1226157Y980890D01*
X1226165Y980944D01*
X1226177Y980981D01*
X1226176Y981021D01*
X1226184Y981075D01*
X1226184Y984885D01*
X1226173Y984950D01*
X1226171Y985016D01*
X1226153Y985059D01*
X1226145Y985106D01*
X1226111Y985163D01*
X1226086Y985223D01*
X1226055Y985258D01*
X1226030Y985299D01*
X1225979Y985341D01*
X1225935Y985389D01*
X1225893Y985411D01*
X1225856Y985440D01*
X1225794Y985461D01*
X1225735Y985492D01*
X1225681Y985500D01*
X1225644Y985512D01*
X1225604Y985511D01*
X1225550Y985519D01*
X1223010Y985519D01*
X1222945Y985508D01*
X1222879Y985506D01*
X1222836Y985488D01*
X1222789Y985480D01*
X1222732Y985446D01*
X1222672Y985421D01*
X1222637Y985390D01*
X1222596Y985365D01*
X1222555Y985314D01*
X1222506Y985270D01*
X1222484Y985228D01*
X1222455Y985191D01*
X1222434Y985129D01*
X1222403Y985070D01*
X1222395Y985016D01*
X1222383Y984979D01*
X1222383Y984975D01*
X1222383Y984974D01*
X1222384Y984939D01*
X1222376Y984885D01*
X1222376Y981075D01*
X1222387Y981010D01*
X1222389Y980944D01*
X1222407Y980901D01*
X1222415Y980854D01*
X1222449Y980797D01*
X1222474Y980737D01*
X1222505Y980702D01*
X1222530Y980661D01*
X1222581Y980620D01*
X1222625Y980571D01*
X1222667Y980549D01*
X1222704Y980520D01*
X1222766Y980499D01*
X1222825Y980468D01*
X1222879Y980460D01*
X1222916Y980448D01*
X1222956Y980449D01*
X1223010Y980441D01*
X1225550Y980441D01*
X1225615Y980452D01*
G37*
G36*
X1225615Y568972D02*
X1225615Y568972D01*
X1225681Y568974D01*
X1225724Y568992D01*
X1225771Y569000D01*
X1225828Y569034D01*
X1225888Y569059D01*
X1225923Y569090D01*
X1225964Y569115D01*
X1226006Y569166D01*
X1226054Y569210D01*
X1226076Y569252D01*
X1226105Y569289D01*
X1226126Y569351D01*
X1226157Y569410D01*
X1226165Y569464D01*
X1226177Y569501D01*
X1226176Y569541D01*
X1226184Y569595D01*
X1226184Y573405D01*
X1226173Y573470D01*
X1226171Y573536D01*
X1226153Y573579D01*
X1226145Y573626D01*
X1226111Y573683D01*
X1226086Y573743D01*
X1226055Y573778D01*
X1226030Y573819D01*
X1225979Y573861D01*
X1225935Y573909D01*
X1225893Y573931D01*
X1225856Y573960D01*
X1225794Y573981D01*
X1225735Y574012D01*
X1225681Y574020D01*
X1225644Y574032D01*
X1225604Y574031D01*
X1225550Y574039D01*
X1223010Y574039D01*
X1222945Y574028D01*
X1222879Y574026D01*
X1222836Y574008D01*
X1222789Y574000D01*
X1222732Y573966D01*
X1222672Y573941D01*
X1222637Y573910D01*
X1222596Y573885D01*
X1222555Y573834D01*
X1222506Y573790D01*
X1222484Y573748D01*
X1222455Y573711D01*
X1222434Y573649D01*
X1222403Y573590D01*
X1222395Y573536D01*
X1222383Y573499D01*
X1222383Y573495D01*
X1222383Y573494D01*
X1222384Y573459D01*
X1222376Y573405D01*
X1222376Y569595D01*
X1222387Y569530D01*
X1222389Y569464D01*
X1222407Y569421D01*
X1222415Y569374D01*
X1222449Y569317D01*
X1222474Y569257D01*
X1222505Y569222D01*
X1222530Y569181D01*
X1222581Y569140D01*
X1222625Y569091D01*
X1222667Y569069D01*
X1222704Y569040D01*
X1222766Y569019D01*
X1222825Y568988D01*
X1222879Y568980D01*
X1222916Y568968D01*
X1222956Y568969D01*
X1223010Y568961D01*
X1225550Y568961D01*
X1225615Y568972D01*
G37*
G36*
X1225615Y579132D02*
X1225615Y579132D01*
X1225681Y579134D01*
X1225724Y579152D01*
X1225771Y579160D01*
X1225828Y579194D01*
X1225888Y579219D01*
X1225923Y579250D01*
X1225964Y579275D01*
X1226006Y579326D01*
X1226054Y579370D01*
X1226076Y579412D01*
X1226105Y579449D01*
X1226126Y579511D01*
X1226157Y579570D01*
X1226165Y579624D01*
X1226177Y579661D01*
X1226176Y579701D01*
X1226184Y579755D01*
X1226184Y583565D01*
X1226173Y583630D01*
X1226171Y583696D01*
X1226153Y583739D01*
X1226145Y583786D01*
X1226111Y583843D01*
X1226086Y583903D01*
X1226055Y583938D01*
X1226030Y583979D01*
X1225979Y584021D01*
X1225935Y584069D01*
X1225893Y584091D01*
X1225856Y584120D01*
X1225794Y584141D01*
X1225735Y584172D01*
X1225681Y584180D01*
X1225644Y584192D01*
X1225604Y584191D01*
X1225550Y584199D01*
X1223010Y584199D01*
X1222945Y584188D01*
X1222879Y584186D01*
X1222836Y584168D01*
X1222789Y584160D01*
X1222732Y584126D01*
X1222672Y584101D01*
X1222637Y584070D01*
X1222596Y584045D01*
X1222555Y583994D01*
X1222506Y583950D01*
X1222484Y583908D01*
X1222455Y583871D01*
X1222434Y583809D01*
X1222403Y583750D01*
X1222395Y583696D01*
X1222383Y583659D01*
X1222383Y583655D01*
X1222383Y583654D01*
X1222384Y583619D01*
X1222376Y583565D01*
X1222376Y579755D01*
X1222387Y579690D01*
X1222389Y579624D01*
X1222407Y579581D01*
X1222415Y579534D01*
X1222449Y579477D01*
X1222474Y579417D01*
X1222505Y579382D01*
X1222530Y579341D01*
X1222581Y579300D01*
X1222625Y579251D01*
X1222667Y579229D01*
X1222704Y579200D01*
X1222766Y579179D01*
X1222825Y579148D01*
X1222879Y579140D01*
X1222916Y579128D01*
X1222956Y579129D01*
X1223010Y579121D01*
X1225550Y579121D01*
X1225615Y579132D01*
G37*
G36*
X585535Y157492D02*
X585535Y157492D01*
X585601Y157494D01*
X585644Y157512D01*
X585691Y157520D01*
X585748Y157554D01*
X585808Y157579D01*
X585843Y157610D01*
X585884Y157635D01*
X585926Y157686D01*
X585974Y157730D01*
X585996Y157772D01*
X586025Y157809D01*
X586046Y157871D01*
X586077Y157930D01*
X586085Y157984D01*
X586097Y158021D01*
X586096Y158061D01*
X586104Y158115D01*
X586104Y161925D01*
X586093Y161990D01*
X586091Y162056D01*
X586073Y162099D01*
X586065Y162146D01*
X586031Y162203D01*
X586006Y162263D01*
X585975Y162298D01*
X585950Y162339D01*
X585899Y162381D01*
X585855Y162429D01*
X585813Y162451D01*
X585776Y162480D01*
X585714Y162501D01*
X585655Y162532D01*
X585601Y162540D01*
X585564Y162552D01*
X585524Y162551D01*
X585470Y162559D01*
X582930Y162559D01*
X582865Y162548D01*
X582799Y162546D01*
X582756Y162528D01*
X582709Y162520D01*
X582652Y162486D01*
X582592Y162461D01*
X582557Y162430D01*
X582516Y162405D01*
X582475Y162354D01*
X582426Y162310D01*
X582404Y162268D01*
X582375Y162231D01*
X582354Y162169D01*
X582323Y162110D01*
X582315Y162056D01*
X582303Y162019D01*
X582303Y162015D01*
X582303Y162014D01*
X582304Y161979D01*
X582296Y161925D01*
X582296Y158115D01*
X582307Y158050D01*
X582309Y157984D01*
X582327Y157941D01*
X582335Y157894D01*
X582369Y157837D01*
X582394Y157777D01*
X582425Y157742D01*
X582450Y157701D01*
X582501Y157660D01*
X582545Y157611D01*
X582587Y157589D01*
X582624Y157560D01*
X582686Y157539D01*
X582745Y157508D01*
X582799Y157500D01*
X582836Y157488D01*
X582876Y157489D01*
X582930Y157481D01*
X585470Y157481D01*
X585535Y157492D01*
G37*
G36*
X1225615Y167652D02*
X1225615Y167652D01*
X1225681Y167654D01*
X1225724Y167672D01*
X1225771Y167680D01*
X1225828Y167714D01*
X1225888Y167739D01*
X1225923Y167770D01*
X1225964Y167795D01*
X1226006Y167846D01*
X1226054Y167890D01*
X1226076Y167932D01*
X1226105Y167969D01*
X1226126Y168031D01*
X1226157Y168090D01*
X1226165Y168144D01*
X1226177Y168181D01*
X1226176Y168221D01*
X1226184Y168275D01*
X1226184Y172085D01*
X1226173Y172150D01*
X1226171Y172216D01*
X1226153Y172259D01*
X1226145Y172306D01*
X1226111Y172363D01*
X1226086Y172423D01*
X1226055Y172458D01*
X1226030Y172499D01*
X1225979Y172541D01*
X1225935Y172589D01*
X1225893Y172611D01*
X1225856Y172640D01*
X1225794Y172661D01*
X1225735Y172692D01*
X1225681Y172700D01*
X1225644Y172712D01*
X1225604Y172711D01*
X1225550Y172719D01*
X1223010Y172719D01*
X1222945Y172708D01*
X1222879Y172706D01*
X1222836Y172688D01*
X1222789Y172680D01*
X1222732Y172646D01*
X1222672Y172621D01*
X1222637Y172590D01*
X1222596Y172565D01*
X1222555Y172514D01*
X1222506Y172470D01*
X1222484Y172428D01*
X1222455Y172391D01*
X1222434Y172329D01*
X1222403Y172270D01*
X1222395Y172216D01*
X1222383Y172179D01*
X1222383Y172175D01*
X1222383Y172174D01*
X1222384Y172139D01*
X1222376Y172085D01*
X1222376Y168275D01*
X1222387Y168210D01*
X1222389Y168144D01*
X1222407Y168101D01*
X1222415Y168054D01*
X1222449Y167997D01*
X1222474Y167937D01*
X1222505Y167902D01*
X1222530Y167861D01*
X1222581Y167820D01*
X1222625Y167771D01*
X1222667Y167749D01*
X1222704Y167720D01*
X1222766Y167699D01*
X1222825Y167668D01*
X1222879Y167660D01*
X1222916Y167648D01*
X1222956Y167649D01*
X1223010Y167641D01*
X1225550Y167641D01*
X1225615Y167652D01*
G37*
G36*
X585535Y167652D02*
X585535Y167652D01*
X585601Y167654D01*
X585644Y167672D01*
X585691Y167680D01*
X585748Y167714D01*
X585808Y167739D01*
X585843Y167770D01*
X585884Y167795D01*
X585926Y167846D01*
X585974Y167890D01*
X585996Y167932D01*
X586025Y167969D01*
X586046Y168031D01*
X586077Y168090D01*
X586085Y168144D01*
X586097Y168181D01*
X586096Y168221D01*
X586104Y168275D01*
X586104Y172085D01*
X586093Y172150D01*
X586091Y172216D01*
X586073Y172259D01*
X586065Y172306D01*
X586031Y172363D01*
X586006Y172423D01*
X585975Y172458D01*
X585950Y172499D01*
X585899Y172541D01*
X585855Y172589D01*
X585813Y172611D01*
X585776Y172640D01*
X585714Y172661D01*
X585655Y172692D01*
X585601Y172700D01*
X585564Y172712D01*
X585524Y172711D01*
X585470Y172719D01*
X582930Y172719D01*
X582865Y172708D01*
X582799Y172706D01*
X582756Y172688D01*
X582709Y172680D01*
X582652Y172646D01*
X582592Y172621D01*
X582557Y172590D01*
X582516Y172565D01*
X582475Y172514D01*
X582426Y172470D01*
X582404Y172428D01*
X582375Y172391D01*
X582354Y172329D01*
X582323Y172270D01*
X582315Y172216D01*
X582303Y172179D01*
X582303Y172175D01*
X582303Y172174D01*
X582304Y172139D01*
X582296Y172085D01*
X582296Y168275D01*
X582307Y168210D01*
X582309Y168144D01*
X582327Y168101D01*
X582335Y168054D01*
X582369Y167997D01*
X582394Y167937D01*
X582425Y167902D01*
X582450Y167861D01*
X582501Y167820D01*
X582545Y167771D01*
X582587Y167749D01*
X582624Y167720D01*
X582686Y167699D01*
X582745Y167668D01*
X582799Y167660D01*
X582836Y167648D01*
X582876Y167649D01*
X582930Y167641D01*
X585470Y167641D01*
X585535Y167652D01*
G37*
G36*
X1225615Y157492D02*
X1225615Y157492D01*
X1225681Y157494D01*
X1225724Y157512D01*
X1225771Y157520D01*
X1225828Y157554D01*
X1225888Y157579D01*
X1225923Y157610D01*
X1225964Y157635D01*
X1226006Y157686D01*
X1226054Y157730D01*
X1226076Y157772D01*
X1226105Y157809D01*
X1226126Y157871D01*
X1226157Y157930D01*
X1226165Y157984D01*
X1226177Y158021D01*
X1226176Y158061D01*
X1226184Y158115D01*
X1226184Y161925D01*
X1226173Y161990D01*
X1226171Y162056D01*
X1226153Y162099D01*
X1226145Y162146D01*
X1226111Y162203D01*
X1226086Y162263D01*
X1226055Y162298D01*
X1226030Y162339D01*
X1225979Y162381D01*
X1225935Y162429D01*
X1225893Y162451D01*
X1225856Y162480D01*
X1225794Y162501D01*
X1225735Y162532D01*
X1225681Y162540D01*
X1225644Y162552D01*
X1225604Y162551D01*
X1225550Y162559D01*
X1223010Y162559D01*
X1222945Y162548D01*
X1222879Y162546D01*
X1222836Y162528D01*
X1222789Y162520D01*
X1222732Y162486D01*
X1222672Y162461D01*
X1222637Y162430D01*
X1222596Y162405D01*
X1222555Y162354D01*
X1222506Y162310D01*
X1222484Y162268D01*
X1222455Y162231D01*
X1222434Y162169D01*
X1222403Y162110D01*
X1222395Y162056D01*
X1222383Y162019D01*
X1222383Y162015D01*
X1222383Y162014D01*
X1222384Y161979D01*
X1222376Y161925D01*
X1222376Y158115D01*
X1222387Y158050D01*
X1222389Y157984D01*
X1222407Y157941D01*
X1222415Y157894D01*
X1222449Y157837D01*
X1222474Y157777D01*
X1222505Y157742D01*
X1222530Y157701D01*
X1222581Y157660D01*
X1222625Y157611D01*
X1222667Y157589D01*
X1222704Y157560D01*
X1222766Y157539D01*
X1222825Y157508D01*
X1222879Y157500D01*
X1222916Y157488D01*
X1222956Y157489D01*
X1223010Y157481D01*
X1225550Y157481D01*
X1225615Y157492D01*
G37*
G36*
X585535Y579132D02*
X585535Y579132D01*
X585601Y579134D01*
X585644Y579152D01*
X585691Y579160D01*
X585748Y579194D01*
X585808Y579219D01*
X585843Y579250D01*
X585884Y579275D01*
X585926Y579326D01*
X585974Y579370D01*
X585996Y579412D01*
X586025Y579449D01*
X586046Y579511D01*
X586077Y579570D01*
X586085Y579624D01*
X586097Y579661D01*
X586096Y579701D01*
X586104Y579755D01*
X586104Y583565D01*
X586093Y583630D01*
X586091Y583696D01*
X586073Y583739D01*
X586065Y583786D01*
X586031Y583843D01*
X586006Y583903D01*
X585975Y583938D01*
X585950Y583979D01*
X585899Y584021D01*
X585855Y584069D01*
X585813Y584091D01*
X585776Y584120D01*
X585714Y584141D01*
X585655Y584172D01*
X585601Y584180D01*
X585564Y584192D01*
X585524Y584191D01*
X585470Y584199D01*
X582930Y584199D01*
X582865Y584188D01*
X582799Y584186D01*
X582756Y584168D01*
X582709Y584160D01*
X582652Y584126D01*
X582592Y584101D01*
X582557Y584070D01*
X582516Y584045D01*
X582475Y583994D01*
X582426Y583950D01*
X582404Y583908D01*
X582375Y583871D01*
X582354Y583809D01*
X582323Y583750D01*
X582315Y583696D01*
X582303Y583659D01*
X582303Y583655D01*
X582303Y583654D01*
X582304Y583619D01*
X582296Y583565D01*
X582296Y579755D01*
X582307Y579690D01*
X582309Y579624D01*
X582327Y579581D01*
X582335Y579534D01*
X582369Y579477D01*
X582394Y579417D01*
X582425Y579382D01*
X582450Y579341D01*
X582501Y579300D01*
X582545Y579251D01*
X582587Y579229D01*
X582624Y579200D01*
X582686Y579179D01*
X582745Y579148D01*
X582799Y579140D01*
X582836Y579128D01*
X582876Y579129D01*
X582930Y579121D01*
X585470Y579121D01*
X585535Y579132D01*
G37*
G36*
X585535Y568972D02*
X585535Y568972D01*
X585601Y568974D01*
X585644Y568992D01*
X585691Y569000D01*
X585748Y569034D01*
X585808Y569059D01*
X585843Y569090D01*
X585884Y569115D01*
X585926Y569166D01*
X585974Y569210D01*
X585996Y569252D01*
X586025Y569289D01*
X586046Y569351D01*
X586077Y569410D01*
X586085Y569464D01*
X586097Y569501D01*
X586096Y569541D01*
X586104Y569595D01*
X586104Y573405D01*
X586093Y573470D01*
X586091Y573536D01*
X586073Y573579D01*
X586065Y573626D01*
X586031Y573683D01*
X586006Y573743D01*
X585975Y573778D01*
X585950Y573819D01*
X585899Y573861D01*
X585855Y573909D01*
X585813Y573931D01*
X585776Y573960D01*
X585714Y573981D01*
X585655Y574012D01*
X585601Y574020D01*
X585564Y574032D01*
X585524Y574031D01*
X585470Y574039D01*
X582930Y574039D01*
X582865Y574028D01*
X582799Y574026D01*
X582756Y574008D01*
X582709Y574000D01*
X582652Y573966D01*
X582592Y573941D01*
X582557Y573910D01*
X582516Y573885D01*
X582475Y573834D01*
X582426Y573790D01*
X582404Y573748D01*
X582375Y573711D01*
X582354Y573649D01*
X582323Y573590D01*
X582315Y573536D01*
X582303Y573499D01*
X582303Y573495D01*
X582303Y573494D01*
X582304Y573459D01*
X582296Y573405D01*
X582296Y569595D01*
X582307Y569530D01*
X582309Y569464D01*
X582327Y569421D01*
X582335Y569374D01*
X582369Y569317D01*
X582394Y569257D01*
X582425Y569222D01*
X582450Y569181D01*
X582501Y569140D01*
X582545Y569091D01*
X582587Y569069D01*
X582624Y569040D01*
X582686Y569019D01*
X582745Y568988D01*
X582799Y568980D01*
X582836Y568968D01*
X582876Y568969D01*
X582930Y568961D01*
X585470Y568961D01*
X585535Y568972D01*
G37*
G36*
X807150Y1270647D02*
X807150Y1270647D01*
X807216Y1270649D01*
X807259Y1270667D01*
X807306Y1270675D01*
X807363Y1270709D01*
X807423Y1270734D01*
X807458Y1270765D01*
X807499Y1270790D01*
X807541Y1270841D01*
X807589Y1270885D01*
X807611Y1270927D01*
X807640Y1270964D01*
X807661Y1271026D01*
X807692Y1271085D01*
X807700Y1271139D01*
X807712Y1271176D01*
X807711Y1271216D01*
X807719Y1271270D01*
X807719Y1273810D01*
X807708Y1273875D01*
X807706Y1273941D01*
X807688Y1273984D01*
X807680Y1274031D01*
X807646Y1274088D01*
X807621Y1274148D01*
X807590Y1274183D01*
X807565Y1274224D01*
X807514Y1274266D01*
X807470Y1274314D01*
X807428Y1274336D01*
X807391Y1274365D01*
X807329Y1274386D01*
X807270Y1274417D01*
X807216Y1274425D01*
X807179Y1274437D01*
X807139Y1274436D01*
X807085Y1274444D01*
X803275Y1274444D01*
X803210Y1274433D01*
X803144Y1274431D01*
X803101Y1274413D01*
X803054Y1274405D01*
X802997Y1274371D01*
X802937Y1274346D01*
X802902Y1274315D01*
X802861Y1274290D01*
X802820Y1274239D01*
X802771Y1274195D01*
X802749Y1274153D01*
X802720Y1274116D01*
X802699Y1274054D01*
X802668Y1273995D01*
X802660Y1273941D01*
X802648Y1273904D01*
X802648Y1273901D01*
X802649Y1273864D01*
X802641Y1273810D01*
X802641Y1271270D01*
X802652Y1271205D01*
X802654Y1271139D01*
X802672Y1271096D01*
X802680Y1271049D01*
X802714Y1270992D01*
X802739Y1270932D01*
X802770Y1270897D01*
X802795Y1270856D01*
X802846Y1270815D01*
X802890Y1270766D01*
X802932Y1270744D01*
X802969Y1270715D01*
X803031Y1270694D01*
X803090Y1270663D01*
X803144Y1270655D01*
X803181Y1270643D01*
X803221Y1270644D01*
X803275Y1270636D01*
X807085Y1270636D01*
X807150Y1270647D01*
G37*
G36*
X103570Y1270647D02*
X103570Y1270647D01*
X103636Y1270649D01*
X103679Y1270667D01*
X103726Y1270675D01*
X103783Y1270709D01*
X103843Y1270734D01*
X103878Y1270765D01*
X103919Y1270790D01*
X103961Y1270841D01*
X104009Y1270885D01*
X104031Y1270927D01*
X104060Y1270964D01*
X104081Y1271026D01*
X104112Y1271085D01*
X104120Y1271139D01*
X104132Y1271176D01*
X104131Y1271216D01*
X104139Y1271270D01*
X104139Y1273810D01*
X104128Y1273875D01*
X104126Y1273941D01*
X104108Y1273984D01*
X104100Y1274031D01*
X104066Y1274088D01*
X104041Y1274148D01*
X104010Y1274183D01*
X103985Y1274224D01*
X103934Y1274266D01*
X103890Y1274314D01*
X103848Y1274336D01*
X103811Y1274365D01*
X103749Y1274386D01*
X103690Y1274417D01*
X103636Y1274425D01*
X103599Y1274437D01*
X103559Y1274436D01*
X103505Y1274444D01*
X99695Y1274444D01*
X99630Y1274433D01*
X99564Y1274431D01*
X99521Y1274413D01*
X99474Y1274405D01*
X99417Y1274371D01*
X99357Y1274346D01*
X99322Y1274315D01*
X99281Y1274290D01*
X99240Y1274239D01*
X99191Y1274195D01*
X99169Y1274153D01*
X99140Y1274116D01*
X99119Y1274054D01*
X99088Y1273995D01*
X99080Y1273941D01*
X99068Y1273904D01*
X99068Y1273901D01*
X99069Y1273864D01*
X99061Y1273810D01*
X99061Y1271270D01*
X99072Y1271205D01*
X99074Y1271139D01*
X99092Y1271096D01*
X99100Y1271049D01*
X99134Y1270992D01*
X99159Y1270932D01*
X99190Y1270897D01*
X99215Y1270856D01*
X99266Y1270815D01*
X99310Y1270766D01*
X99352Y1270744D01*
X99389Y1270715D01*
X99451Y1270694D01*
X99510Y1270663D01*
X99564Y1270655D01*
X99601Y1270643D01*
X99641Y1270644D01*
X99695Y1270636D01*
X103505Y1270636D01*
X103570Y1270647D01*
G37*
G36*
X743650Y1270647D02*
X743650Y1270647D01*
X743716Y1270649D01*
X743759Y1270667D01*
X743806Y1270675D01*
X743863Y1270709D01*
X743923Y1270734D01*
X743958Y1270765D01*
X743999Y1270790D01*
X744041Y1270841D01*
X744089Y1270885D01*
X744111Y1270927D01*
X744140Y1270964D01*
X744161Y1271026D01*
X744192Y1271085D01*
X744200Y1271139D01*
X744212Y1271176D01*
X744211Y1271216D01*
X744219Y1271270D01*
X744219Y1273810D01*
X744208Y1273875D01*
X744206Y1273941D01*
X744188Y1273984D01*
X744180Y1274031D01*
X744146Y1274088D01*
X744121Y1274148D01*
X744090Y1274183D01*
X744065Y1274224D01*
X744014Y1274266D01*
X743970Y1274314D01*
X743928Y1274336D01*
X743891Y1274365D01*
X743829Y1274386D01*
X743770Y1274417D01*
X743716Y1274425D01*
X743679Y1274437D01*
X743639Y1274436D01*
X743585Y1274444D01*
X739775Y1274444D01*
X739710Y1274433D01*
X739644Y1274431D01*
X739601Y1274413D01*
X739554Y1274405D01*
X739497Y1274371D01*
X739437Y1274346D01*
X739402Y1274315D01*
X739361Y1274290D01*
X739320Y1274239D01*
X739271Y1274195D01*
X739249Y1274153D01*
X739220Y1274116D01*
X739199Y1274054D01*
X739168Y1273995D01*
X739160Y1273941D01*
X739148Y1273904D01*
X739148Y1273901D01*
X739149Y1273864D01*
X739141Y1273810D01*
X739141Y1271270D01*
X739152Y1271205D01*
X739154Y1271139D01*
X739172Y1271096D01*
X739180Y1271049D01*
X739214Y1270992D01*
X739239Y1270932D01*
X739270Y1270897D01*
X739295Y1270856D01*
X739346Y1270815D01*
X739390Y1270766D01*
X739432Y1270744D01*
X739469Y1270715D01*
X739531Y1270694D01*
X739590Y1270663D01*
X739644Y1270655D01*
X739681Y1270643D01*
X739721Y1270644D01*
X739775Y1270636D01*
X743585Y1270636D01*
X743650Y1270647D01*
G37*
G36*
X167070Y1270647D02*
X167070Y1270647D01*
X167136Y1270649D01*
X167179Y1270667D01*
X167226Y1270675D01*
X167283Y1270709D01*
X167343Y1270734D01*
X167378Y1270765D01*
X167419Y1270790D01*
X167461Y1270841D01*
X167509Y1270885D01*
X167531Y1270927D01*
X167560Y1270964D01*
X167581Y1271026D01*
X167612Y1271085D01*
X167620Y1271139D01*
X167632Y1271176D01*
X167631Y1271216D01*
X167639Y1271270D01*
X167639Y1273810D01*
X167628Y1273875D01*
X167626Y1273941D01*
X167608Y1273984D01*
X167600Y1274031D01*
X167566Y1274088D01*
X167541Y1274148D01*
X167510Y1274183D01*
X167485Y1274224D01*
X167434Y1274266D01*
X167390Y1274314D01*
X167348Y1274336D01*
X167311Y1274365D01*
X167249Y1274386D01*
X167190Y1274417D01*
X167136Y1274425D01*
X167099Y1274437D01*
X167059Y1274436D01*
X167005Y1274444D01*
X163195Y1274444D01*
X163130Y1274433D01*
X163064Y1274431D01*
X163021Y1274413D01*
X162974Y1274405D01*
X162917Y1274371D01*
X162857Y1274346D01*
X162822Y1274315D01*
X162781Y1274290D01*
X162740Y1274239D01*
X162691Y1274195D01*
X162669Y1274153D01*
X162640Y1274116D01*
X162619Y1274054D01*
X162588Y1273995D01*
X162580Y1273941D01*
X162568Y1273904D01*
X162568Y1273901D01*
X162569Y1273864D01*
X162561Y1273810D01*
X162561Y1271270D01*
X162572Y1271205D01*
X162574Y1271139D01*
X162592Y1271096D01*
X162600Y1271049D01*
X162634Y1270992D01*
X162659Y1270932D01*
X162690Y1270897D01*
X162715Y1270856D01*
X162766Y1270815D01*
X162810Y1270766D01*
X162852Y1270744D01*
X162889Y1270715D01*
X162951Y1270694D01*
X163010Y1270663D01*
X163064Y1270655D01*
X163101Y1270643D01*
X163141Y1270644D01*
X163195Y1270636D01*
X167005Y1270636D01*
X167070Y1270647D01*
G37*
G36*
X743650Y859167D02*
X743650Y859167D01*
X743716Y859169D01*
X743759Y859187D01*
X743806Y859195D01*
X743863Y859229D01*
X743923Y859254D01*
X743958Y859285D01*
X743999Y859310D01*
X744041Y859361D01*
X744089Y859405D01*
X744111Y859447D01*
X744140Y859484D01*
X744161Y859546D01*
X744192Y859605D01*
X744200Y859659D01*
X744212Y859696D01*
X744211Y859736D01*
X744219Y859790D01*
X744219Y862330D01*
X744208Y862395D01*
X744206Y862461D01*
X744188Y862504D01*
X744180Y862551D01*
X744146Y862608D01*
X744121Y862668D01*
X744090Y862703D01*
X744065Y862744D01*
X744014Y862786D01*
X743970Y862834D01*
X743928Y862856D01*
X743891Y862885D01*
X743829Y862906D01*
X743770Y862937D01*
X743716Y862945D01*
X743679Y862957D01*
X743639Y862956D01*
X743585Y862964D01*
X739775Y862964D01*
X739710Y862953D01*
X739644Y862951D01*
X739601Y862933D01*
X739554Y862925D01*
X739497Y862891D01*
X739437Y862866D01*
X739402Y862835D01*
X739361Y862810D01*
X739320Y862759D01*
X739271Y862715D01*
X739249Y862673D01*
X739220Y862636D01*
X739199Y862574D01*
X739168Y862515D01*
X739160Y862461D01*
X739148Y862424D01*
X739148Y862421D01*
X739149Y862384D01*
X739141Y862330D01*
X739141Y859790D01*
X739152Y859725D01*
X739154Y859659D01*
X739172Y859616D01*
X739180Y859569D01*
X739214Y859512D01*
X739239Y859452D01*
X739270Y859417D01*
X739295Y859376D01*
X739346Y859335D01*
X739390Y859286D01*
X739432Y859264D01*
X739469Y859235D01*
X739531Y859214D01*
X739590Y859183D01*
X739644Y859175D01*
X739681Y859163D01*
X739721Y859164D01*
X739775Y859156D01*
X743585Y859156D01*
X743650Y859167D01*
G37*
G36*
X807150Y859167D02*
X807150Y859167D01*
X807216Y859169D01*
X807259Y859187D01*
X807306Y859195D01*
X807363Y859229D01*
X807423Y859254D01*
X807458Y859285D01*
X807499Y859310D01*
X807541Y859361D01*
X807589Y859405D01*
X807611Y859447D01*
X807640Y859484D01*
X807661Y859546D01*
X807692Y859605D01*
X807700Y859659D01*
X807712Y859696D01*
X807711Y859736D01*
X807719Y859790D01*
X807719Y862330D01*
X807708Y862395D01*
X807706Y862461D01*
X807688Y862504D01*
X807680Y862551D01*
X807646Y862608D01*
X807621Y862668D01*
X807590Y862703D01*
X807565Y862744D01*
X807514Y862786D01*
X807470Y862834D01*
X807428Y862856D01*
X807391Y862885D01*
X807329Y862906D01*
X807270Y862937D01*
X807216Y862945D01*
X807179Y862957D01*
X807139Y862956D01*
X807085Y862964D01*
X803275Y862964D01*
X803210Y862953D01*
X803144Y862951D01*
X803101Y862933D01*
X803054Y862925D01*
X802997Y862891D01*
X802937Y862866D01*
X802902Y862835D01*
X802861Y862810D01*
X802820Y862759D01*
X802771Y862715D01*
X802749Y862673D01*
X802720Y862636D01*
X802699Y862574D01*
X802668Y862515D01*
X802660Y862461D01*
X802648Y862424D01*
X802648Y862421D01*
X802649Y862384D01*
X802641Y862330D01*
X802641Y859790D01*
X802652Y859725D01*
X802654Y859659D01*
X802672Y859616D01*
X802680Y859569D01*
X802714Y859512D01*
X802739Y859452D01*
X802770Y859417D01*
X802795Y859376D01*
X802846Y859335D01*
X802890Y859286D01*
X802932Y859264D01*
X802969Y859235D01*
X803031Y859214D01*
X803090Y859183D01*
X803144Y859175D01*
X803181Y859163D01*
X803221Y859164D01*
X803275Y859156D01*
X807085Y859156D01*
X807150Y859167D01*
G37*
G36*
X103570Y447687D02*
X103570Y447687D01*
X103636Y447689D01*
X103679Y447707D01*
X103726Y447715D01*
X103783Y447749D01*
X103843Y447774D01*
X103878Y447805D01*
X103919Y447830D01*
X103961Y447881D01*
X104009Y447925D01*
X104031Y447967D01*
X104060Y448004D01*
X104081Y448066D01*
X104112Y448125D01*
X104120Y448179D01*
X104132Y448216D01*
X104131Y448256D01*
X104139Y448310D01*
X104139Y450850D01*
X104128Y450915D01*
X104126Y450981D01*
X104108Y451024D01*
X104100Y451071D01*
X104066Y451128D01*
X104041Y451188D01*
X104010Y451223D01*
X103985Y451264D01*
X103934Y451306D01*
X103890Y451354D01*
X103848Y451376D01*
X103811Y451405D01*
X103749Y451426D01*
X103690Y451457D01*
X103636Y451465D01*
X103599Y451477D01*
X103559Y451476D01*
X103505Y451484D01*
X99695Y451484D01*
X99630Y451473D01*
X99564Y451471D01*
X99521Y451453D01*
X99474Y451445D01*
X99417Y451411D01*
X99357Y451386D01*
X99322Y451355D01*
X99281Y451330D01*
X99240Y451279D01*
X99191Y451235D01*
X99169Y451193D01*
X99140Y451156D01*
X99119Y451094D01*
X99088Y451035D01*
X99080Y450981D01*
X99068Y450944D01*
X99068Y450941D01*
X99069Y450904D01*
X99061Y450850D01*
X99061Y448310D01*
X99072Y448245D01*
X99074Y448179D01*
X99092Y448136D01*
X99100Y448089D01*
X99134Y448032D01*
X99159Y447972D01*
X99190Y447937D01*
X99215Y447896D01*
X99266Y447855D01*
X99310Y447806D01*
X99352Y447784D01*
X99389Y447755D01*
X99451Y447734D01*
X99510Y447703D01*
X99564Y447695D01*
X99601Y447683D01*
X99641Y447684D01*
X99695Y447676D01*
X103505Y447676D01*
X103570Y447687D01*
G37*
G36*
X743650Y447687D02*
X743650Y447687D01*
X743716Y447689D01*
X743759Y447707D01*
X743806Y447715D01*
X743863Y447749D01*
X743923Y447774D01*
X743958Y447805D01*
X743999Y447830D01*
X744041Y447881D01*
X744089Y447925D01*
X744111Y447967D01*
X744140Y448004D01*
X744161Y448066D01*
X744192Y448125D01*
X744200Y448179D01*
X744212Y448216D01*
X744211Y448256D01*
X744219Y448310D01*
X744219Y450850D01*
X744208Y450915D01*
X744206Y450981D01*
X744188Y451024D01*
X744180Y451071D01*
X744146Y451128D01*
X744121Y451188D01*
X744090Y451223D01*
X744065Y451264D01*
X744014Y451306D01*
X743970Y451354D01*
X743928Y451376D01*
X743891Y451405D01*
X743829Y451426D01*
X743770Y451457D01*
X743716Y451465D01*
X743679Y451477D01*
X743639Y451476D01*
X743585Y451484D01*
X739775Y451484D01*
X739710Y451473D01*
X739644Y451471D01*
X739601Y451453D01*
X739554Y451445D01*
X739497Y451411D01*
X739437Y451386D01*
X739402Y451355D01*
X739361Y451330D01*
X739320Y451279D01*
X739271Y451235D01*
X739249Y451193D01*
X739220Y451156D01*
X739199Y451094D01*
X739168Y451035D01*
X739160Y450981D01*
X739148Y450944D01*
X739148Y450941D01*
X739149Y450904D01*
X739141Y450850D01*
X739141Y448310D01*
X739152Y448245D01*
X739154Y448179D01*
X739172Y448136D01*
X739180Y448089D01*
X739214Y448032D01*
X739239Y447972D01*
X739270Y447937D01*
X739295Y447896D01*
X739346Y447855D01*
X739390Y447806D01*
X739432Y447784D01*
X739469Y447755D01*
X739531Y447734D01*
X739590Y447703D01*
X739644Y447695D01*
X739681Y447683D01*
X739721Y447684D01*
X739775Y447676D01*
X743585Y447676D01*
X743650Y447687D01*
G37*
G36*
X167070Y447687D02*
X167070Y447687D01*
X167136Y447689D01*
X167179Y447707D01*
X167226Y447715D01*
X167283Y447749D01*
X167343Y447774D01*
X167378Y447805D01*
X167419Y447830D01*
X167461Y447881D01*
X167509Y447925D01*
X167531Y447967D01*
X167560Y448004D01*
X167581Y448066D01*
X167612Y448125D01*
X167620Y448179D01*
X167632Y448216D01*
X167631Y448256D01*
X167639Y448310D01*
X167639Y450850D01*
X167628Y450915D01*
X167626Y450981D01*
X167608Y451024D01*
X167600Y451071D01*
X167566Y451128D01*
X167541Y451188D01*
X167510Y451223D01*
X167485Y451264D01*
X167434Y451306D01*
X167390Y451354D01*
X167348Y451376D01*
X167311Y451405D01*
X167249Y451426D01*
X167190Y451457D01*
X167136Y451465D01*
X167099Y451477D01*
X167059Y451476D01*
X167005Y451484D01*
X163195Y451484D01*
X163130Y451473D01*
X163064Y451471D01*
X163021Y451453D01*
X162974Y451445D01*
X162917Y451411D01*
X162857Y451386D01*
X162822Y451355D01*
X162781Y451330D01*
X162740Y451279D01*
X162691Y451235D01*
X162669Y451193D01*
X162640Y451156D01*
X162619Y451094D01*
X162588Y451035D01*
X162580Y450981D01*
X162568Y450944D01*
X162568Y450941D01*
X162569Y450904D01*
X162561Y450850D01*
X162561Y448310D01*
X162572Y448245D01*
X162574Y448179D01*
X162592Y448136D01*
X162600Y448089D01*
X162634Y448032D01*
X162659Y447972D01*
X162690Y447937D01*
X162715Y447896D01*
X162766Y447855D01*
X162810Y447806D01*
X162852Y447784D01*
X162889Y447755D01*
X162951Y447734D01*
X163010Y447703D01*
X163064Y447695D01*
X163101Y447683D01*
X163141Y447684D01*
X163195Y447676D01*
X167005Y447676D01*
X167070Y447687D01*
G37*
G36*
X167070Y859167D02*
X167070Y859167D01*
X167136Y859169D01*
X167179Y859187D01*
X167226Y859195D01*
X167283Y859229D01*
X167343Y859254D01*
X167378Y859285D01*
X167419Y859310D01*
X167461Y859361D01*
X167509Y859405D01*
X167531Y859447D01*
X167560Y859484D01*
X167581Y859546D01*
X167612Y859605D01*
X167620Y859659D01*
X167632Y859696D01*
X167631Y859736D01*
X167639Y859790D01*
X167639Y862330D01*
X167628Y862395D01*
X167626Y862461D01*
X167608Y862504D01*
X167600Y862551D01*
X167566Y862608D01*
X167541Y862668D01*
X167510Y862703D01*
X167485Y862744D01*
X167434Y862786D01*
X167390Y862834D01*
X167348Y862856D01*
X167311Y862885D01*
X167249Y862906D01*
X167190Y862937D01*
X167136Y862945D01*
X167099Y862957D01*
X167059Y862956D01*
X167005Y862964D01*
X163195Y862964D01*
X163130Y862953D01*
X163064Y862951D01*
X163021Y862933D01*
X162974Y862925D01*
X162917Y862891D01*
X162857Y862866D01*
X162822Y862835D01*
X162781Y862810D01*
X162740Y862759D01*
X162691Y862715D01*
X162669Y862673D01*
X162640Y862636D01*
X162619Y862574D01*
X162588Y862515D01*
X162580Y862461D01*
X162568Y862424D01*
X162568Y862421D01*
X162569Y862384D01*
X162561Y862330D01*
X162561Y859790D01*
X162572Y859725D01*
X162574Y859659D01*
X162592Y859616D01*
X162600Y859569D01*
X162634Y859512D01*
X162659Y859452D01*
X162690Y859417D01*
X162715Y859376D01*
X162766Y859335D01*
X162810Y859286D01*
X162852Y859264D01*
X162889Y859235D01*
X162951Y859214D01*
X163010Y859183D01*
X163064Y859175D01*
X163101Y859163D01*
X163141Y859164D01*
X163195Y859156D01*
X167005Y859156D01*
X167070Y859167D01*
G37*
G36*
X103570Y859167D02*
X103570Y859167D01*
X103636Y859169D01*
X103679Y859187D01*
X103726Y859195D01*
X103783Y859229D01*
X103843Y859254D01*
X103878Y859285D01*
X103919Y859310D01*
X103961Y859361D01*
X104009Y859405D01*
X104031Y859447D01*
X104060Y859484D01*
X104081Y859546D01*
X104112Y859605D01*
X104120Y859659D01*
X104132Y859696D01*
X104131Y859736D01*
X104139Y859790D01*
X104139Y862330D01*
X104128Y862395D01*
X104126Y862461D01*
X104108Y862504D01*
X104100Y862551D01*
X104066Y862608D01*
X104041Y862668D01*
X104010Y862703D01*
X103985Y862744D01*
X103934Y862786D01*
X103890Y862834D01*
X103848Y862856D01*
X103811Y862885D01*
X103749Y862906D01*
X103690Y862937D01*
X103636Y862945D01*
X103599Y862957D01*
X103559Y862956D01*
X103505Y862964D01*
X99695Y862964D01*
X99630Y862953D01*
X99564Y862951D01*
X99521Y862933D01*
X99474Y862925D01*
X99417Y862891D01*
X99357Y862866D01*
X99322Y862835D01*
X99281Y862810D01*
X99240Y862759D01*
X99191Y862715D01*
X99169Y862673D01*
X99140Y862636D01*
X99119Y862574D01*
X99088Y862515D01*
X99080Y862461D01*
X99068Y862424D01*
X99068Y862421D01*
X99069Y862384D01*
X99061Y862330D01*
X99061Y859790D01*
X99072Y859725D01*
X99074Y859659D01*
X99092Y859616D01*
X99100Y859569D01*
X99134Y859512D01*
X99159Y859452D01*
X99190Y859417D01*
X99215Y859376D01*
X99266Y859335D01*
X99310Y859286D01*
X99352Y859264D01*
X99389Y859235D01*
X99451Y859214D01*
X99510Y859183D01*
X99564Y859175D01*
X99601Y859163D01*
X99641Y859164D01*
X99695Y859156D01*
X103505Y859156D01*
X103570Y859167D01*
G37*
G36*
X807150Y447687D02*
X807150Y447687D01*
X807216Y447689D01*
X807259Y447707D01*
X807306Y447715D01*
X807363Y447749D01*
X807423Y447774D01*
X807458Y447805D01*
X807499Y447830D01*
X807541Y447881D01*
X807589Y447925D01*
X807611Y447967D01*
X807640Y448004D01*
X807661Y448066D01*
X807692Y448125D01*
X807700Y448179D01*
X807712Y448216D01*
X807711Y448256D01*
X807719Y448310D01*
X807719Y450850D01*
X807708Y450915D01*
X807706Y450981D01*
X807688Y451024D01*
X807680Y451071D01*
X807646Y451128D01*
X807621Y451188D01*
X807590Y451223D01*
X807565Y451264D01*
X807514Y451306D01*
X807470Y451354D01*
X807428Y451376D01*
X807391Y451405D01*
X807329Y451426D01*
X807270Y451457D01*
X807216Y451465D01*
X807179Y451477D01*
X807139Y451476D01*
X807085Y451484D01*
X803275Y451484D01*
X803210Y451473D01*
X803144Y451471D01*
X803101Y451453D01*
X803054Y451445D01*
X802997Y451411D01*
X802937Y451386D01*
X802902Y451355D01*
X802861Y451330D01*
X802820Y451279D01*
X802771Y451235D01*
X802749Y451193D01*
X802720Y451156D01*
X802699Y451094D01*
X802668Y451035D01*
X802660Y450981D01*
X802648Y450944D01*
X802648Y450941D01*
X802649Y450904D01*
X802641Y450850D01*
X802641Y448310D01*
X802652Y448245D01*
X802654Y448179D01*
X802672Y448136D01*
X802680Y448089D01*
X802714Y448032D01*
X802739Y447972D01*
X802770Y447937D01*
X802795Y447896D01*
X802846Y447855D01*
X802890Y447806D01*
X802932Y447784D01*
X802969Y447755D01*
X803031Y447734D01*
X803090Y447703D01*
X803144Y447695D01*
X803181Y447683D01*
X803221Y447684D01*
X803275Y447676D01*
X807085Y447676D01*
X807150Y447687D01*
G37*
G36*
X743650Y36207D02*
X743650Y36207D01*
X743716Y36209D01*
X743759Y36227D01*
X743806Y36235D01*
X743863Y36269D01*
X743923Y36294D01*
X743958Y36325D01*
X743999Y36350D01*
X744041Y36401D01*
X744089Y36445D01*
X744111Y36487D01*
X744140Y36524D01*
X744161Y36586D01*
X744192Y36645D01*
X744200Y36699D01*
X744212Y36736D01*
X744211Y36776D01*
X744219Y36830D01*
X744219Y39370D01*
X744208Y39435D01*
X744206Y39501D01*
X744188Y39544D01*
X744180Y39591D01*
X744146Y39648D01*
X744121Y39708D01*
X744090Y39743D01*
X744065Y39784D01*
X744014Y39826D01*
X743970Y39874D01*
X743928Y39896D01*
X743891Y39925D01*
X743829Y39946D01*
X743770Y39977D01*
X743716Y39985D01*
X743679Y39997D01*
X743639Y39996D01*
X743585Y40004D01*
X739775Y40004D01*
X739710Y39993D01*
X739644Y39991D01*
X739601Y39973D01*
X739554Y39965D01*
X739497Y39931D01*
X739437Y39906D01*
X739402Y39875D01*
X739361Y39850D01*
X739320Y39799D01*
X739271Y39755D01*
X739249Y39713D01*
X739220Y39676D01*
X739199Y39614D01*
X739168Y39555D01*
X739160Y39501D01*
X739148Y39464D01*
X739148Y39461D01*
X739149Y39424D01*
X739141Y39370D01*
X739141Y36830D01*
X739152Y36765D01*
X739154Y36699D01*
X739172Y36656D01*
X739180Y36609D01*
X739214Y36552D01*
X739239Y36492D01*
X739270Y36457D01*
X739295Y36416D01*
X739346Y36375D01*
X739390Y36326D01*
X739432Y36304D01*
X739469Y36275D01*
X739531Y36254D01*
X739590Y36223D01*
X739644Y36215D01*
X739681Y36203D01*
X739721Y36204D01*
X739775Y36196D01*
X743585Y36196D01*
X743650Y36207D01*
G37*
G36*
X167070Y36207D02*
X167070Y36207D01*
X167136Y36209D01*
X167179Y36227D01*
X167226Y36235D01*
X167283Y36269D01*
X167343Y36294D01*
X167378Y36325D01*
X167419Y36350D01*
X167461Y36401D01*
X167509Y36445D01*
X167531Y36487D01*
X167560Y36524D01*
X167581Y36586D01*
X167612Y36645D01*
X167620Y36699D01*
X167632Y36736D01*
X167631Y36776D01*
X167639Y36830D01*
X167639Y39370D01*
X167628Y39435D01*
X167626Y39501D01*
X167608Y39544D01*
X167600Y39591D01*
X167566Y39648D01*
X167541Y39708D01*
X167510Y39743D01*
X167485Y39784D01*
X167434Y39826D01*
X167390Y39874D01*
X167348Y39896D01*
X167311Y39925D01*
X167249Y39946D01*
X167190Y39977D01*
X167136Y39985D01*
X167099Y39997D01*
X167059Y39996D01*
X167005Y40004D01*
X163195Y40004D01*
X163130Y39993D01*
X163064Y39991D01*
X163021Y39973D01*
X162974Y39965D01*
X162917Y39931D01*
X162857Y39906D01*
X162822Y39875D01*
X162781Y39850D01*
X162740Y39799D01*
X162691Y39755D01*
X162669Y39713D01*
X162640Y39676D01*
X162619Y39614D01*
X162588Y39555D01*
X162580Y39501D01*
X162568Y39464D01*
X162568Y39461D01*
X162569Y39424D01*
X162561Y39370D01*
X162561Y36830D01*
X162572Y36765D01*
X162574Y36699D01*
X162592Y36656D01*
X162600Y36609D01*
X162634Y36552D01*
X162659Y36492D01*
X162690Y36457D01*
X162715Y36416D01*
X162766Y36375D01*
X162810Y36326D01*
X162852Y36304D01*
X162889Y36275D01*
X162951Y36254D01*
X163010Y36223D01*
X163064Y36215D01*
X163101Y36203D01*
X163141Y36204D01*
X163195Y36196D01*
X167005Y36196D01*
X167070Y36207D01*
G37*
G36*
X103570Y36207D02*
X103570Y36207D01*
X103636Y36209D01*
X103679Y36227D01*
X103726Y36235D01*
X103783Y36269D01*
X103843Y36294D01*
X103878Y36325D01*
X103919Y36350D01*
X103961Y36401D01*
X104009Y36445D01*
X104031Y36487D01*
X104060Y36524D01*
X104081Y36586D01*
X104112Y36645D01*
X104120Y36699D01*
X104132Y36736D01*
X104131Y36776D01*
X104139Y36830D01*
X104139Y39370D01*
X104128Y39435D01*
X104126Y39501D01*
X104108Y39544D01*
X104100Y39591D01*
X104066Y39648D01*
X104041Y39708D01*
X104010Y39743D01*
X103985Y39784D01*
X103934Y39826D01*
X103890Y39874D01*
X103848Y39896D01*
X103811Y39925D01*
X103749Y39946D01*
X103690Y39977D01*
X103636Y39985D01*
X103599Y39997D01*
X103559Y39996D01*
X103505Y40004D01*
X99695Y40004D01*
X99630Y39993D01*
X99564Y39991D01*
X99521Y39973D01*
X99474Y39965D01*
X99417Y39931D01*
X99357Y39906D01*
X99322Y39875D01*
X99281Y39850D01*
X99240Y39799D01*
X99191Y39755D01*
X99169Y39713D01*
X99140Y39676D01*
X99119Y39614D01*
X99088Y39555D01*
X99080Y39501D01*
X99068Y39464D01*
X99068Y39461D01*
X99069Y39424D01*
X99061Y39370D01*
X99061Y36830D01*
X99072Y36765D01*
X99074Y36699D01*
X99092Y36656D01*
X99100Y36609D01*
X99134Y36552D01*
X99159Y36492D01*
X99190Y36457D01*
X99215Y36416D01*
X99266Y36375D01*
X99310Y36326D01*
X99352Y36304D01*
X99389Y36275D01*
X99451Y36254D01*
X99510Y36223D01*
X99564Y36215D01*
X99601Y36203D01*
X99641Y36204D01*
X99695Y36196D01*
X103505Y36196D01*
X103570Y36207D01*
G37*
G36*
X807150Y36207D02*
X807150Y36207D01*
X807216Y36209D01*
X807259Y36227D01*
X807306Y36235D01*
X807363Y36269D01*
X807423Y36294D01*
X807458Y36325D01*
X807499Y36350D01*
X807541Y36401D01*
X807589Y36445D01*
X807611Y36487D01*
X807640Y36524D01*
X807661Y36586D01*
X807692Y36645D01*
X807700Y36699D01*
X807712Y36736D01*
X807711Y36776D01*
X807719Y36830D01*
X807719Y39370D01*
X807708Y39435D01*
X807706Y39501D01*
X807688Y39544D01*
X807680Y39591D01*
X807646Y39648D01*
X807621Y39708D01*
X807590Y39743D01*
X807565Y39784D01*
X807514Y39826D01*
X807470Y39874D01*
X807428Y39896D01*
X807391Y39925D01*
X807329Y39946D01*
X807270Y39977D01*
X807216Y39985D01*
X807179Y39997D01*
X807139Y39996D01*
X807085Y40004D01*
X803275Y40004D01*
X803210Y39993D01*
X803144Y39991D01*
X803101Y39973D01*
X803054Y39965D01*
X802997Y39931D01*
X802937Y39906D01*
X802902Y39875D01*
X802861Y39850D01*
X802820Y39799D01*
X802771Y39755D01*
X802749Y39713D01*
X802720Y39676D01*
X802699Y39614D01*
X802668Y39555D01*
X802660Y39501D01*
X802648Y39464D01*
X802648Y39461D01*
X802649Y39424D01*
X802641Y39370D01*
X802641Y36830D01*
X802652Y36765D01*
X802654Y36699D01*
X802672Y36656D01*
X802680Y36609D01*
X802714Y36552D01*
X802739Y36492D01*
X802770Y36457D01*
X802795Y36416D01*
X802846Y36375D01*
X802890Y36326D01*
X802932Y36304D01*
X802969Y36275D01*
X803031Y36254D01*
X803090Y36223D01*
X803144Y36215D01*
X803181Y36203D01*
X803221Y36204D01*
X803275Y36196D01*
X807085Y36196D01*
X807150Y36207D01*
G37*
D10*
X49050Y130500D03*
X49050Y72700D03*
D11*
X7620Y7620D03*
X601980Y400050D03*
D12*
X584200Y381000D03*
X25400Y381000D03*
X584200Y25400D03*
X25400Y25400D03*
D13*
X584200Y154686D03*
X584200Y165100D03*
X584200Y175514D03*
D14*
X101600Y63500D03*
X111760Y63500D03*
D15*
X93980Y63500D03*
X119380Y63500D03*
D16*
X158750Y190500D03*
X158750Y203200D03*
X158750Y215900D03*
X158750Y228600D03*
X158750Y177800D03*
X146050Y190500D03*
X146050Y203200D03*
X146050Y215900D03*
X146050Y228600D03*
X146050Y177800D03*
D15*
X342900Y368300D03*
X317500Y368300D03*
X292100Y368300D03*
X266700Y368300D03*
X241300Y368300D03*
X215900Y368300D03*
X215900Y393700D03*
X241300Y393700D03*
X266700Y393700D03*
X292100Y393700D03*
X317500Y393700D03*
X342900Y393700D03*
X444500Y12700D03*
X469900Y12700D03*
X495300Y12700D03*
X520700Y12700D03*
D17*
X440690Y149860D03*
D15*
X25400Y292100D03*
X25400Y266700D03*
D18*
X107950Y220980D03*
X107950Y210820D03*
D15*
X107950Y228600D03*
X107950Y203200D03*
X190500Y393700D03*
X165100Y393700D03*
X139700Y393700D03*
X114300Y393700D03*
X88900Y393700D03*
X63500Y393700D03*
X342900Y12700D03*
X368300Y12700D03*
X393700Y12700D03*
X419100Y12700D03*
D19*
X241300Y90500D03*
D20*
X241300Y290500D03*
D15*
X546100Y12700D03*
X254000Y38100D03*
D21*
X96393Y38100D03*
X106807Y38100D03*
X159893Y38100D03*
X170307Y38100D03*
D12*
X381000Y381000D03*
D14*
X207264Y88900D03*
X199136Y88900D03*
D10*
X689130Y130500D03*
X689130Y72700D03*
D11*
X647700Y7620D03*
X1242060Y400050D03*
D12*
X1224280Y381000D03*
X665480Y381000D03*
X1224280Y25400D03*
X665480Y25400D03*
D13*
X1224280Y154686D03*
X1224280Y165100D03*
X1224280Y175514D03*
D14*
X741680Y63500D03*
X751840Y63500D03*
D15*
X734060Y63500D03*
X759460Y63500D03*
D16*
X798830Y190500D03*
X798830Y203200D03*
X798830Y215900D03*
X798830Y228600D03*
X798830Y177800D03*
X786130Y190500D03*
X786130Y203200D03*
X786130Y215900D03*
X786130Y228600D03*
X786130Y177800D03*
D15*
X982980Y368300D03*
X957580Y368300D03*
X932180Y368300D03*
X906780Y368300D03*
X881380Y368300D03*
X855980Y368300D03*
X855980Y393700D03*
X881380Y393700D03*
X906780Y393700D03*
X932180Y393700D03*
X957580Y393700D03*
X982980Y393700D03*
X1084580Y12700D03*
X1109980Y12700D03*
X1135380Y12700D03*
X1160780Y12700D03*
D17*
X1080770Y149860D03*
D15*
X665480Y292100D03*
X665480Y266700D03*
D18*
X748030Y220980D03*
X748030Y210820D03*
D15*
X748030Y228600D03*
X748030Y203200D03*
X830580Y393700D03*
X805180Y393700D03*
X779780Y393700D03*
X754380Y393700D03*
X728980Y393700D03*
X703580Y393700D03*
X982980Y12700D03*
X1008380Y12700D03*
X1033780Y12700D03*
X1059180Y12700D03*
D19*
X881380Y90500D03*
D20*
X881380Y290500D03*
D15*
X1186180Y12700D03*
X894080Y38100D03*
D21*
X736473Y38100D03*
X746887Y38100D03*
X799973Y38100D03*
X810387Y38100D03*
D12*
X1021080Y381000D03*
D14*
X847344Y88900D03*
X839216Y88900D03*
D10*
X49050Y541980D03*
X49050Y484180D03*
D11*
X7620Y419100D03*
X601980Y811530D03*
D12*
X584200Y792480D03*
X25400Y792480D03*
X584200Y436880D03*
X25400Y436880D03*
D13*
X584200Y566166D03*
X584200Y576580D03*
X584200Y586994D03*
D14*
X101600Y474980D03*
X111760Y474980D03*
D15*
X93980Y474980D03*
X119380Y474980D03*
D16*
X158750Y601980D03*
X158750Y614680D03*
X158750Y627380D03*
X158750Y640080D03*
X158750Y589280D03*
X146050Y601980D03*
X146050Y614680D03*
X146050Y627380D03*
X146050Y640080D03*
X146050Y589280D03*
D15*
X342900Y779780D03*
X317500Y779780D03*
X292100Y779780D03*
X266700Y779780D03*
X241300Y779780D03*
X215900Y779780D03*
X215900Y805180D03*
X241300Y805180D03*
X266700Y805180D03*
X292100Y805180D03*
X317500Y805180D03*
X342900Y805180D03*
X444500Y424180D03*
X469900Y424180D03*
X495300Y424180D03*
X520700Y424180D03*
D17*
X440690Y561340D03*
D15*
X25400Y703580D03*
X25400Y678180D03*
D18*
X107950Y632460D03*
X107950Y622300D03*
D15*
X107950Y640080D03*
X107950Y614680D03*
X190500Y805180D03*
X165100Y805180D03*
X139700Y805180D03*
X114300Y805180D03*
X88900Y805180D03*
X63500Y805180D03*
X342900Y424180D03*
X368300Y424180D03*
X393700Y424180D03*
X419100Y424180D03*
D19*
X241300Y501980D03*
D20*
X241300Y701980D03*
D15*
X546100Y424180D03*
X254000Y449580D03*
D21*
X96393Y449580D03*
X106807Y449580D03*
X159893Y449580D03*
X170307Y449580D03*
D12*
X381000Y792480D03*
D14*
X207264Y500380D03*
X199136Y500380D03*
D10*
X689130Y541980D03*
X689130Y484180D03*
D11*
X647700Y419100D03*
X1242060Y811530D03*
D12*
X1224280Y792480D03*
X665480Y792480D03*
X1224280Y436880D03*
X665480Y436880D03*
D13*
X1224280Y566166D03*
X1224280Y576580D03*
X1224280Y586994D03*
D14*
X741680Y474980D03*
X751840Y474980D03*
D15*
X734060Y474980D03*
X759460Y474980D03*
D16*
X798830Y601980D03*
X798830Y614680D03*
X798830Y627380D03*
X798830Y640080D03*
X798830Y589280D03*
X786130Y601980D03*
X786130Y614680D03*
X786130Y627380D03*
X786130Y640080D03*
X786130Y589280D03*
D15*
X982980Y779780D03*
X957580Y779780D03*
X932180Y779780D03*
X906780Y779780D03*
X881380Y779780D03*
X855980Y779780D03*
X855980Y805180D03*
X881380Y805180D03*
X906780Y805180D03*
X932180Y805180D03*
X957580Y805180D03*
X982980Y805180D03*
X1084580Y424180D03*
X1109980Y424180D03*
X1135380Y424180D03*
X1160780Y424180D03*
D17*
X1080770Y561340D03*
D15*
X665480Y703580D03*
X665480Y678180D03*
D18*
X748030Y632460D03*
X748030Y622300D03*
D15*
X748030Y640080D03*
X748030Y614680D03*
X830580Y805180D03*
X805180Y805180D03*
X779780Y805180D03*
X754380Y805180D03*
X728980Y805180D03*
X703580Y805180D03*
X982980Y424180D03*
X1008380Y424180D03*
X1033780Y424180D03*
X1059180Y424180D03*
D19*
X881380Y501980D03*
D20*
X881380Y701980D03*
D15*
X1186180Y424180D03*
X894080Y449580D03*
D21*
X736473Y449580D03*
X746887Y449580D03*
X799973Y449580D03*
X810387Y449580D03*
D12*
X1021080Y792480D03*
D14*
X847344Y500380D03*
X839216Y500380D03*
D10*
X49050Y953460D03*
X49050Y895660D03*
D11*
X7620Y830580D03*
X601980Y1223010D03*
D12*
X584200Y1203960D03*
X25400Y1203960D03*
X584200Y848360D03*
X25400Y848360D03*
D13*
X584200Y977646D03*
X584200Y988060D03*
X584200Y998474D03*
D14*
X101600Y886460D03*
X111760Y886460D03*
D15*
X93980Y886460D03*
X119380Y886460D03*
D16*
X158750Y1013460D03*
X158750Y1026160D03*
X158750Y1038860D03*
X158750Y1051560D03*
X158750Y1000760D03*
X146050Y1013460D03*
X146050Y1026160D03*
X146050Y1038860D03*
X146050Y1051560D03*
X146050Y1000760D03*
D15*
X342900Y1191260D03*
X317500Y1191260D03*
X292100Y1191260D03*
X266700Y1191260D03*
X241300Y1191260D03*
X215900Y1191260D03*
X215900Y1216660D03*
X241300Y1216660D03*
X266700Y1216660D03*
X292100Y1216660D03*
X317500Y1216660D03*
X342900Y1216660D03*
X444500Y835660D03*
X469900Y835660D03*
X495300Y835660D03*
X520700Y835660D03*
D17*
X440690Y972820D03*
D15*
X25400Y1115060D03*
X25400Y1089660D03*
D18*
X107950Y1043940D03*
X107950Y1033780D03*
D15*
X107950Y1051560D03*
X107950Y1026160D03*
X190500Y1216660D03*
X165100Y1216660D03*
X139700Y1216660D03*
X114300Y1216660D03*
X88900Y1216660D03*
X63500Y1216660D03*
X342900Y835660D03*
X368300Y835660D03*
X393700Y835660D03*
X419100Y835660D03*
D19*
X241300Y913460D03*
D20*
X241300Y1113460D03*
D15*
X546100Y835660D03*
X254000Y861060D03*
D21*
X96393Y861060D03*
X106807Y861060D03*
X159893Y861060D03*
X170307Y861060D03*
D12*
X381000Y1203960D03*
D14*
X207264Y911860D03*
X199136Y911860D03*
D10*
X689130Y953460D03*
X689130Y895660D03*
D11*
X647700Y830580D03*
X1242060Y1223010D03*
D12*
X1224280Y1203960D03*
X665480Y1203960D03*
X1224280Y848360D03*
X665480Y848360D03*
D13*
X1224280Y977646D03*
X1224280Y988060D03*
X1224280Y998474D03*
D14*
X741680Y886460D03*
X751840Y886460D03*
D15*
X734060Y886460D03*
X759460Y886460D03*
D16*
X798830Y1013460D03*
X798830Y1026160D03*
X798830Y1038860D03*
X798830Y1051560D03*
X798830Y1000760D03*
X786130Y1013460D03*
X786130Y1026160D03*
X786130Y1038860D03*
X786130Y1051560D03*
X786130Y1000760D03*
D15*
X982980Y1191260D03*
X957580Y1191260D03*
X932180Y1191260D03*
X906780Y1191260D03*
X881380Y1191260D03*
X855980Y1191260D03*
X855980Y1216660D03*
X881380Y1216660D03*
X906780Y1216660D03*
X932180Y1216660D03*
X957580Y1216660D03*
X982980Y1216660D03*
X1084580Y835660D03*
X1109980Y835660D03*
X1135380Y835660D03*
X1160780Y835660D03*
D17*
X1080770Y972820D03*
D15*
X665480Y1115060D03*
X665480Y1089660D03*
D18*
X748030Y1043940D03*
X748030Y1033780D03*
D15*
X748030Y1051560D03*
X748030Y1026160D03*
X830580Y1216660D03*
X805180Y1216660D03*
X779780Y1216660D03*
X754380Y1216660D03*
X728980Y1216660D03*
X703580Y1216660D03*
X982980Y835660D03*
X1008380Y835660D03*
X1033780Y835660D03*
X1059180Y835660D03*
D19*
X881380Y913460D03*
D20*
X881380Y1113460D03*
D15*
X1186180Y835660D03*
X894080Y861060D03*
D21*
X736473Y861060D03*
X746887Y861060D03*
X799973Y861060D03*
X810387Y861060D03*
D12*
X1021080Y1203960D03*
D14*
X847344Y911860D03*
X839216Y911860D03*
D10*
X49050Y1364940D03*
X49050Y1307140D03*
D11*
X7620Y1242060D03*
X601980Y1634490D03*
D12*
X584200Y1615440D03*
X25400Y1615440D03*
X584200Y1259840D03*
X25400Y1259840D03*
D13*
X584200Y1389126D03*
X584200Y1399540D03*
X584200Y1409954D03*
D14*
X101600Y1297940D03*
X111760Y1297940D03*
D15*
X93980Y1297940D03*
X119380Y1297940D03*
D16*
X158750Y1424940D03*
X158750Y1437640D03*
X158750Y1450340D03*
X158750Y1463040D03*
X158750Y1412240D03*
X146050Y1424940D03*
X146050Y1437640D03*
X146050Y1450340D03*
X146050Y1463040D03*
X146050Y1412240D03*
D15*
X342900Y1602740D03*
X317500Y1602740D03*
X292100Y1602740D03*
X266700Y1602740D03*
X241300Y1602740D03*
X215900Y1602740D03*
X215900Y1628140D03*
X241300Y1628140D03*
X266700Y1628140D03*
X292100Y1628140D03*
X317500Y1628140D03*
X342900Y1628140D03*
X444500Y1247140D03*
X469900Y1247140D03*
X495300Y1247140D03*
X520700Y1247140D03*
D17*
X440690Y1384300D03*
D15*
X25400Y1526540D03*
X25400Y1501140D03*
D18*
X107950Y1455420D03*
X107950Y1445260D03*
D15*
X107950Y1463040D03*
X107950Y1437640D03*
X190500Y1628140D03*
X165100Y1628140D03*
X139700Y1628140D03*
X114300Y1628140D03*
X88900Y1628140D03*
X63500Y1628140D03*
X342900Y1247140D03*
X368300Y1247140D03*
X393700Y1247140D03*
X419100Y1247140D03*
D19*
X241300Y1324940D03*
D20*
X241300Y1524940D03*
D15*
X546100Y1247140D03*
X254000Y1272540D03*
D21*
X96393Y1272540D03*
X106807Y1272540D03*
X159893Y1272540D03*
X170307Y1272540D03*
D12*
X381000Y1615440D03*
D14*
X207264Y1323340D03*
X199136Y1323340D03*
D10*
X689130Y1364940D03*
X689130Y1307140D03*
D11*
X647700Y1242060D03*
X1242060Y1634490D03*
D12*
X1224280Y1615440D03*
X665480Y1615440D03*
X1224280Y1259840D03*
X665480Y1259840D03*
D13*
X1224280Y1389126D03*
X1224280Y1399540D03*
X1224280Y1409954D03*
D14*
X741680Y1297940D03*
X751840Y1297940D03*
D15*
X734060Y1297940D03*
X759460Y1297940D03*
D16*
X798830Y1424940D03*
X798830Y1437640D03*
X798830Y1450340D03*
X798830Y1463040D03*
X798830Y1412240D03*
X786130Y1424940D03*
X786130Y1437640D03*
X786130Y1450340D03*
X786130Y1463040D03*
X786130Y1412240D03*
D15*
X982980Y1602740D03*
X957580Y1602740D03*
X932180Y1602740D03*
X906780Y1602740D03*
X881380Y1602740D03*
X855980Y1602740D03*
X855980Y1628140D03*
X881380Y1628140D03*
X906780Y1628140D03*
X932180Y1628140D03*
X957580Y1628140D03*
X982980Y1628140D03*
X1084580Y1247140D03*
X1109980Y1247140D03*
X1135380Y1247140D03*
X1160780Y1247140D03*
D17*
X1080770Y1384300D03*
D15*
X665480Y1526540D03*
X665480Y1501140D03*
D18*
X748030Y1455420D03*
X748030Y1445260D03*
D15*
X748030Y1463040D03*
X748030Y1437640D03*
X830580Y1628140D03*
X805180Y1628140D03*
X779780Y1628140D03*
X754380Y1628140D03*
X728980Y1628140D03*
X703580Y1628140D03*
X982980Y1247140D03*
X1008380Y1247140D03*
X1033780Y1247140D03*
X1059180Y1247140D03*
D19*
X881380Y1324940D03*
D20*
X881380Y1524940D03*
D15*
X1186180Y1247140D03*
X894080Y1272540D03*
D21*
X736473Y1272540D03*
X746887Y1272540D03*
X799973Y1272540D03*
X810387Y1272540D03*
D12*
X1021080Y1615440D03*
D14*
X847344Y1323340D03*
X839216Y1323340D03*
D16*
X93980Y1661795D03*
X1231265Y1661795D03*
D22*
X84925Y-20955D02*
X84928Y-20733D01*
X84936Y-20511D01*
X84950Y-20289D01*
X84969Y-20067D01*
X84993Y-19847D01*
X85023Y-19626D01*
X85058Y-19407D01*
X85099Y-19188D01*
X85145Y-18971D01*
X85196Y-18755D01*
X85253Y-18540D01*
X85315Y-18326D01*
X85382Y-18115D01*
X85454Y-17904D01*
X85532Y-17696D01*
X85614Y-17490D01*
X85702Y-17286D01*
X85794Y-17083D01*
X85892Y-16884D01*
X85994Y-16687D01*
X86101Y-16492D01*
X86213Y-16300D01*
X86330Y-16111D01*
X86451Y-15924D01*
X86577Y-15741D01*
X86707Y-15561D01*
X86842Y-15384D01*
X86980Y-15211D01*
X87123Y-15041D01*
X87271Y-14874D01*
X87422Y-14711D01*
X87577Y-14552D01*
X87736Y-14397D01*
X87899Y-14246D01*
X88066Y-14098D01*
X88236Y-13955D01*
X88409Y-13817D01*
X88586Y-13682D01*
X88766Y-13552D01*
X88949Y-13426D01*
X89136Y-13305D01*
X89325Y-13188D01*
X89517Y-13076D01*
X89712Y-12969D01*
X89909Y-12867D01*
X90108Y-12769D01*
X90311Y-12677D01*
X90515Y-12589D01*
X90721Y-12507D01*
X90929Y-12429D01*
X91140Y-12357D01*
X91351Y-12290D01*
X91565Y-12228D01*
X91780Y-12171D01*
X91996Y-12120D01*
X92213Y-12074D01*
X92432Y-12033D01*
X92651Y-11998D01*
X92872Y-11968D01*
X93092Y-11944D01*
X93314Y-11925D01*
X93536Y-11911D01*
X93758Y-11903D01*
X93980Y-11900D01*
X94202Y-11903D01*
X94424Y-11911D01*
X94646Y-11925D01*
X94868Y-11944D01*
X95088Y-11968D01*
X95309Y-11998D01*
X95528Y-12033D01*
X95747Y-12074D01*
X95964Y-12120D01*
X96180Y-12171D01*
X96395Y-12228D01*
X96609Y-12290D01*
X96820Y-12357D01*
X97031Y-12429D01*
X97239Y-12507D01*
X97445Y-12589D01*
X97649Y-12677D01*
X97852Y-12769D01*
X98051Y-12867D01*
X98248Y-12969D01*
X98443Y-13076D01*
X98635Y-13188D01*
X98824Y-13305D01*
X99011Y-13426D01*
X99194Y-13552D01*
X99374Y-13682D01*
X99551Y-13817D01*
X99724Y-13955D01*
X99894Y-14098D01*
X100061Y-14246D01*
X100224Y-14397D01*
X100383Y-14552D01*
X100538Y-14711D01*
X100689Y-14874D01*
X100837Y-15041D01*
X100980Y-15211D01*
X101118Y-15384D01*
X101253Y-15561D01*
X101383Y-15741D01*
X101509Y-15924D01*
X101630Y-16111D01*
X101747Y-16300D01*
X101859Y-16492D01*
X101966Y-16687D01*
X102068Y-16884D01*
X102166Y-17083D01*
X102258Y-17286D01*
X102346Y-17490D01*
X102428Y-17696D01*
X102506Y-17904D01*
X102578Y-18115D01*
X102645Y-18326D01*
X102707Y-18540D01*
X102764Y-18755D01*
X102815Y-18971D01*
X102861Y-19188D01*
X102902Y-19407D01*
X102937Y-19626D01*
X102967Y-19847D01*
X102991Y-20067D01*
X103010Y-20289D01*
X103024Y-20511D01*
X103032Y-20733D01*
X103035Y-20955D01*
X103032Y-21177D01*
X103024Y-21399D01*
X103010Y-21621D01*
X102991Y-21843D01*
X102967Y-22063D01*
X102937Y-22284D01*
X102902Y-22503D01*
X102861Y-22722D01*
X102815Y-22939D01*
X102764Y-23155D01*
X102707Y-23370D01*
X102645Y-23584D01*
X102578Y-23795D01*
X102506Y-24006D01*
X102428Y-24214D01*
X102346Y-24420D01*
X102258Y-24624D01*
X102166Y-24827D01*
X102068Y-25026D01*
X101966Y-25223D01*
X101859Y-25418D01*
X101747Y-25610D01*
X101630Y-25799D01*
X101509Y-25986D01*
X101383Y-26169D01*
X101253Y-26349D01*
X101118Y-26526D01*
X100980Y-26699D01*
X100837Y-26869D01*
X100689Y-27036D01*
X100538Y-27199D01*
X100383Y-27358D01*
X100224Y-27513D01*
X100061Y-27664D01*
X99894Y-27812D01*
X99724Y-27955D01*
X99551Y-28093D01*
X99374Y-28228D01*
X99194Y-28358D01*
X99011Y-28484D01*
X98824Y-28605D01*
X98635Y-28722D01*
X98443Y-28834D01*
X98248Y-28941D01*
X98051Y-29043D01*
X97852Y-29141D01*
X97649Y-29233D01*
X97445Y-29321D01*
X97239Y-29403D01*
X97031Y-29481D01*
X96820Y-29553D01*
X96609Y-29620D01*
X96395Y-29682D01*
X96180Y-29739D01*
X95964Y-29790D01*
X95747Y-29836D01*
X95528Y-29877D01*
X95309Y-29912D01*
X95088Y-29942D01*
X94868Y-29966D01*
X94646Y-29985D01*
X94424Y-29999D01*
X94202Y-30007D01*
X93980Y-30010D01*
X93758Y-30007D01*
X93536Y-29999D01*
X93314Y-29985D01*
X93092Y-29966D01*
X92872Y-29942D01*
X92651Y-29912D01*
X92432Y-29877D01*
X92213Y-29836D01*
X91996Y-29790D01*
X91780Y-29739D01*
X91565Y-29682D01*
X91351Y-29620D01*
X91140Y-29553D01*
X90929Y-29481D01*
X90721Y-29403D01*
X90515Y-29321D01*
X90311Y-29233D01*
X90108Y-29141D01*
X89909Y-29043D01*
X89712Y-28941D01*
X89517Y-28834D01*
X89325Y-28722D01*
X89136Y-28605D01*
X88949Y-28484D01*
X88766Y-28358D01*
X88586Y-28228D01*
X88409Y-28093D01*
X88236Y-27955D01*
X88066Y-27812D01*
X87899Y-27664D01*
X87736Y-27513D01*
X87577Y-27358D01*
X87422Y-27199D01*
X87271Y-27036D01*
X87123Y-26869D01*
X86980Y-26699D01*
X86842Y-26526D01*
X86707Y-26349D01*
X86577Y-26169D01*
X86451Y-25986D01*
X86330Y-25799D01*
X86213Y-25610D01*
X86101Y-25418D01*
X85994Y-25223D01*
X85892Y-25026D01*
X85794Y-24827D01*
X85702Y-24624D01*
X85614Y-24420D01*
X85532Y-24214D01*
X85454Y-24006D01*
X85382Y-23795D01*
X85315Y-23584D01*
X85253Y-23370D01*
X85196Y-23155D01*
X85145Y-22939D01*
X85099Y-22722D01*
X85058Y-22503D01*
X85023Y-22284D01*
X84993Y-22063D01*
X84969Y-21843D01*
X84950Y-21621D01*
X84936Y-21399D01*
X84928Y-21177D01*
X84925Y-20955D01*
D23*
X93980Y-20955D03*
M02*
