G04 EAGLE Gerber RS-274X export*
G75*
%MOMM*%
%FSLAX34Y34*%
%LPD*%
%INSoldermask Top*%
%IPPOS*%
%AMOC8*
5,1,8,0,0,1.08239X$1,22.5*%
G01*
%ADD10R,1.203200X0.503200*%
%ADD11R,1.203200X0.803200*%
%ADD12C,0.853200*%
%ADD13R,1.203200X1.303200*%
%ADD14R,0.503200X0.853200*%
%ADD15R,2.553200X1.803200*%
%ADD16R,1.303200X1.203200*%
%ADD17C,0.838200*%
%ADD18C,3.505200*%
%ADD19R,4.200000X1.700000*%
%ADD20R,1.033200X0.833200*%
%ADD21R,2.203200X1.403200*%
%ADD22R,1.553200X0.803200*%
%ADD23R,1.727200X0.965200*%
%ADD24R,0.838200X1.473200*%
%ADD25R,1.203200X3.003200*%
%ADD26R,1.603200X1.803200*%
%ADD27C,2.082800*%
%ADD28C,1.203200*%
%ADD29R,1.603200X2.003200*%
%ADD30R,2.103200X1.603200*%
%ADD31R,1.703200X1.003200*%
%ADD32C,6.203200*%
%ADD33R,0.753200X1.403200*%
%ADD34C,0.505344*%
%ADD35R,4.803200X1.203200*%
%ADD36R,3.603200X1.803200*%
%ADD37C,1.303200*%
%ADD38C,1.803200*%
%ADD39R,1.753200X0.503200*%
%ADD40R,2.953200X1.403200*%
%ADD41R,1.103200X1.003200*%
%ADD42R,1.403200X0.753200*%
%ADD43C,1.270000*%
%ADD44C,1.703200*%

G36*
X1111439Y1605304D02*
X1111439Y1605304D01*
X1111466Y1605306D01*
X1111501Y1605332D01*
X1111541Y1605350D01*
X1111556Y1605373D01*
X1111578Y1605389D01*
X1111594Y1605430D01*
X1111618Y1605467D01*
X1111625Y1605510D01*
X1111628Y1605519D01*
X1111627Y1605526D01*
X1111629Y1605540D01*
X1111629Y1629540D01*
X1111624Y1629556D01*
X1111627Y1629573D01*
X1111605Y1629623D01*
X1111590Y1629674D01*
X1111577Y1629685D01*
X1111570Y1629701D01*
X1111525Y1629731D01*
X1111485Y1629766D01*
X1111468Y1629769D01*
X1111454Y1629778D01*
X1111380Y1629789D01*
X1087380Y1629789D01*
X1087338Y1629777D01*
X1087294Y1629774D01*
X1087272Y1629758D01*
X1087246Y1629750D01*
X1087217Y1629717D01*
X1087182Y1629691D01*
X1087172Y1629665D01*
X1087154Y1629645D01*
X1087147Y1629601D01*
X1087132Y1629561D01*
X1087137Y1629534D01*
X1087133Y1629507D01*
X1087151Y1629466D01*
X1087160Y1629424D01*
X1087186Y1629388D01*
X1087190Y1629379D01*
X1087195Y1629375D01*
X1087204Y1629364D01*
X1111204Y1605364D01*
X1111242Y1605343D01*
X1111275Y1605314D01*
X1111302Y1605310D01*
X1111326Y1605297D01*
X1111370Y1605300D01*
X1111413Y1605293D01*
X1111439Y1605304D01*
G37*
G36*
X471359Y1605304D02*
X471359Y1605304D01*
X471386Y1605306D01*
X471421Y1605332D01*
X471461Y1605350D01*
X471476Y1605373D01*
X471498Y1605389D01*
X471514Y1605430D01*
X471538Y1605467D01*
X471545Y1605510D01*
X471548Y1605519D01*
X471547Y1605526D01*
X471549Y1605540D01*
X471549Y1629540D01*
X471544Y1629556D01*
X471547Y1629573D01*
X471525Y1629623D01*
X471510Y1629674D01*
X471497Y1629685D01*
X471490Y1629701D01*
X471445Y1629731D01*
X471405Y1629766D01*
X471388Y1629769D01*
X471374Y1629778D01*
X471300Y1629789D01*
X447300Y1629789D01*
X447258Y1629777D01*
X447214Y1629774D01*
X447192Y1629758D01*
X447166Y1629750D01*
X447137Y1629717D01*
X447102Y1629691D01*
X447092Y1629665D01*
X447074Y1629645D01*
X447067Y1629601D01*
X447052Y1629561D01*
X447057Y1629534D01*
X447053Y1629507D01*
X447071Y1629466D01*
X447080Y1629424D01*
X447106Y1629388D01*
X447110Y1629379D01*
X447115Y1629375D01*
X447124Y1629364D01*
X471124Y1605364D01*
X471162Y1605343D01*
X471195Y1605314D01*
X471222Y1605310D01*
X471246Y1605297D01*
X471290Y1605300D01*
X471333Y1605293D01*
X471359Y1605304D01*
G37*
G36*
X1111439Y370864D02*
X1111439Y370864D01*
X1111466Y370866D01*
X1111501Y370892D01*
X1111541Y370910D01*
X1111556Y370933D01*
X1111578Y370949D01*
X1111594Y370990D01*
X1111618Y371027D01*
X1111625Y371070D01*
X1111628Y371079D01*
X1111627Y371086D01*
X1111629Y371100D01*
X1111629Y395100D01*
X1111624Y395116D01*
X1111627Y395133D01*
X1111605Y395183D01*
X1111590Y395234D01*
X1111577Y395245D01*
X1111570Y395261D01*
X1111525Y395291D01*
X1111485Y395326D01*
X1111468Y395329D01*
X1111454Y395338D01*
X1111380Y395349D01*
X1087380Y395349D01*
X1087338Y395337D01*
X1087294Y395334D01*
X1087272Y395318D01*
X1087246Y395310D01*
X1087217Y395277D01*
X1087182Y395251D01*
X1087172Y395225D01*
X1087154Y395205D01*
X1087147Y395161D01*
X1087132Y395121D01*
X1087137Y395094D01*
X1087133Y395067D01*
X1087151Y395026D01*
X1087160Y394984D01*
X1087186Y394948D01*
X1087190Y394939D01*
X1087195Y394935D01*
X1087204Y394924D01*
X1111204Y370924D01*
X1111242Y370903D01*
X1111275Y370874D01*
X1111302Y370870D01*
X1111326Y370857D01*
X1111370Y370860D01*
X1111413Y370853D01*
X1111439Y370864D01*
G37*
G36*
X471359Y370864D02*
X471359Y370864D01*
X471386Y370866D01*
X471421Y370892D01*
X471461Y370910D01*
X471476Y370933D01*
X471498Y370949D01*
X471514Y370990D01*
X471538Y371027D01*
X471545Y371070D01*
X471548Y371079D01*
X471547Y371086D01*
X471549Y371100D01*
X471549Y395100D01*
X471544Y395116D01*
X471547Y395133D01*
X471525Y395183D01*
X471510Y395234D01*
X471497Y395245D01*
X471490Y395261D01*
X471445Y395291D01*
X471405Y395326D01*
X471388Y395329D01*
X471374Y395338D01*
X471300Y395349D01*
X447300Y395349D01*
X447258Y395337D01*
X447214Y395334D01*
X447192Y395318D01*
X447166Y395310D01*
X447137Y395277D01*
X447102Y395251D01*
X447092Y395225D01*
X447074Y395205D01*
X447067Y395161D01*
X447052Y395121D01*
X447057Y395094D01*
X447053Y395067D01*
X447071Y395026D01*
X447080Y394984D01*
X447106Y394948D01*
X447110Y394939D01*
X447115Y394935D01*
X447124Y394924D01*
X471124Y370924D01*
X471162Y370903D01*
X471195Y370874D01*
X471222Y370870D01*
X471246Y370857D01*
X471290Y370860D01*
X471333Y370853D01*
X471359Y370864D01*
G37*
G36*
X1111439Y1193824D02*
X1111439Y1193824D01*
X1111466Y1193826D01*
X1111501Y1193852D01*
X1111541Y1193870D01*
X1111556Y1193893D01*
X1111578Y1193909D01*
X1111594Y1193950D01*
X1111618Y1193987D01*
X1111625Y1194030D01*
X1111628Y1194039D01*
X1111627Y1194046D01*
X1111629Y1194060D01*
X1111629Y1218060D01*
X1111624Y1218076D01*
X1111627Y1218093D01*
X1111605Y1218143D01*
X1111590Y1218194D01*
X1111577Y1218205D01*
X1111570Y1218221D01*
X1111525Y1218251D01*
X1111485Y1218286D01*
X1111468Y1218289D01*
X1111454Y1218298D01*
X1111380Y1218309D01*
X1087380Y1218309D01*
X1087338Y1218297D01*
X1087294Y1218294D01*
X1087272Y1218278D01*
X1087246Y1218270D01*
X1087217Y1218237D01*
X1087182Y1218211D01*
X1087172Y1218185D01*
X1087154Y1218165D01*
X1087147Y1218121D01*
X1087132Y1218081D01*
X1087137Y1218054D01*
X1087133Y1218027D01*
X1087151Y1217986D01*
X1087160Y1217944D01*
X1087186Y1217908D01*
X1087190Y1217899D01*
X1087195Y1217895D01*
X1087204Y1217884D01*
X1111204Y1193884D01*
X1111242Y1193863D01*
X1111275Y1193834D01*
X1111302Y1193830D01*
X1111326Y1193817D01*
X1111370Y1193820D01*
X1111413Y1193813D01*
X1111439Y1193824D01*
G37*
G36*
X471359Y1193824D02*
X471359Y1193824D01*
X471386Y1193826D01*
X471421Y1193852D01*
X471461Y1193870D01*
X471476Y1193893D01*
X471498Y1193909D01*
X471514Y1193950D01*
X471538Y1193987D01*
X471545Y1194030D01*
X471548Y1194039D01*
X471547Y1194046D01*
X471549Y1194060D01*
X471549Y1218060D01*
X471544Y1218076D01*
X471547Y1218093D01*
X471525Y1218143D01*
X471510Y1218194D01*
X471497Y1218205D01*
X471490Y1218221D01*
X471445Y1218251D01*
X471405Y1218286D01*
X471388Y1218289D01*
X471374Y1218298D01*
X471300Y1218309D01*
X447300Y1218309D01*
X447258Y1218297D01*
X447214Y1218294D01*
X447192Y1218278D01*
X447166Y1218270D01*
X447137Y1218237D01*
X447102Y1218211D01*
X447092Y1218185D01*
X447074Y1218165D01*
X447067Y1218121D01*
X447052Y1218081D01*
X447057Y1218054D01*
X447053Y1218027D01*
X447071Y1217986D01*
X447080Y1217944D01*
X447106Y1217908D01*
X447110Y1217899D01*
X447115Y1217895D01*
X447124Y1217884D01*
X471124Y1193884D01*
X471162Y1193863D01*
X471195Y1193834D01*
X471222Y1193830D01*
X471246Y1193817D01*
X471290Y1193820D01*
X471333Y1193813D01*
X471359Y1193824D01*
G37*
G36*
X1111439Y782344D02*
X1111439Y782344D01*
X1111466Y782346D01*
X1111501Y782372D01*
X1111541Y782390D01*
X1111556Y782413D01*
X1111578Y782429D01*
X1111594Y782470D01*
X1111618Y782507D01*
X1111625Y782550D01*
X1111628Y782559D01*
X1111627Y782566D01*
X1111629Y782580D01*
X1111629Y806580D01*
X1111624Y806596D01*
X1111627Y806613D01*
X1111605Y806663D01*
X1111590Y806714D01*
X1111577Y806725D01*
X1111570Y806741D01*
X1111525Y806771D01*
X1111485Y806806D01*
X1111468Y806809D01*
X1111454Y806818D01*
X1111380Y806829D01*
X1087380Y806829D01*
X1087338Y806817D01*
X1087294Y806814D01*
X1087272Y806798D01*
X1087246Y806790D01*
X1087217Y806757D01*
X1087182Y806731D01*
X1087172Y806705D01*
X1087154Y806685D01*
X1087147Y806641D01*
X1087132Y806601D01*
X1087137Y806574D01*
X1087133Y806547D01*
X1087151Y806506D01*
X1087160Y806464D01*
X1087186Y806428D01*
X1087190Y806419D01*
X1087195Y806415D01*
X1087204Y806404D01*
X1111204Y782404D01*
X1111242Y782383D01*
X1111275Y782354D01*
X1111302Y782350D01*
X1111326Y782337D01*
X1111370Y782340D01*
X1111413Y782333D01*
X1111439Y782344D01*
G37*
G36*
X471359Y782344D02*
X471359Y782344D01*
X471386Y782346D01*
X471421Y782372D01*
X471461Y782390D01*
X471476Y782413D01*
X471498Y782429D01*
X471514Y782470D01*
X471538Y782507D01*
X471545Y782550D01*
X471548Y782559D01*
X471547Y782566D01*
X471549Y782580D01*
X471549Y806580D01*
X471544Y806596D01*
X471547Y806613D01*
X471525Y806663D01*
X471510Y806714D01*
X471497Y806725D01*
X471490Y806741D01*
X471445Y806771D01*
X471405Y806806D01*
X471388Y806809D01*
X471374Y806818D01*
X471300Y806829D01*
X447300Y806829D01*
X447258Y806817D01*
X447214Y806814D01*
X447192Y806798D01*
X447166Y806790D01*
X447137Y806757D01*
X447102Y806731D01*
X447092Y806705D01*
X447074Y806685D01*
X447067Y806641D01*
X447052Y806601D01*
X447057Y806574D01*
X447053Y806547D01*
X447071Y806506D01*
X447080Y806464D01*
X447106Y806428D01*
X447110Y806419D01*
X447115Y806415D01*
X447124Y806404D01*
X471124Y782404D01*
X471162Y782383D01*
X471195Y782354D01*
X471222Y782350D01*
X471246Y782337D01*
X471290Y782340D01*
X471333Y782333D01*
X471359Y782344D01*
G37*
G36*
X700384Y1373194D02*
X700384Y1373194D01*
X700387Y1373191D01*
X701509Y1373346D01*
X701514Y1373351D01*
X701518Y1373348D01*
X702589Y1373719D01*
X702593Y1373725D01*
X702598Y1373723D01*
X703575Y1374296D01*
X703578Y1374302D01*
X703583Y1374301D01*
X704430Y1375054D01*
X704432Y1375061D01*
X704437Y1375061D01*
X705121Y1375964D01*
X705121Y1375971D01*
X705126Y1375972D01*
X705621Y1376991D01*
X705619Y1376998D01*
X705624Y1377000D01*
X705911Y1378097D01*
X705909Y1378101D01*
X705911Y1378102D01*
X705909Y1378104D01*
X705912Y1378106D01*
X705979Y1379237D01*
X705977Y1379241D01*
X705979Y1379243D01*
X705912Y1380374D01*
X705907Y1380379D01*
X705911Y1380383D01*
X705624Y1381480D01*
X705618Y1381484D01*
X705621Y1381489D01*
X705126Y1382508D01*
X705120Y1382511D01*
X705121Y1382516D01*
X704437Y1383419D01*
X704430Y1383421D01*
X704430Y1383426D01*
X703583Y1384179D01*
X703576Y1384179D01*
X703575Y1384184D01*
X702598Y1384757D01*
X702591Y1384756D01*
X702589Y1384761D01*
X701518Y1385132D01*
X701512Y1385129D01*
X701509Y1385134D01*
X700387Y1385289D01*
X700382Y1385286D01*
X700380Y1385289D01*
X688380Y1385289D01*
X688375Y1385286D01*
X688372Y1385289D01*
X687105Y1385084D01*
X687099Y1385078D01*
X687095Y1385081D01*
X685905Y1384599D01*
X685901Y1384592D01*
X685895Y1384594D01*
X684842Y1383860D01*
X684840Y1383852D01*
X684834Y1383853D01*
X683971Y1382903D01*
X683970Y1382894D01*
X683965Y1382894D01*
X683335Y1381775D01*
X683336Y1381767D01*
X683330Y1381765D01*
X682965Y1380535D01*
X682968Y1380527D01*
X682963Y1380524D01*
X682881Y1379243D01*
X682884Y1379239D01*
X682881Y1379237D01*
X682963Y1377956D01*
X682969Y1377950D01*
X682965Y1377945D01*
X683330Y1376715D01*
X683337Y1376710D01*
X683335Y1376705D01*
X683965Y1375586D01*
X683972Y1375583D01*
X683971Y1375577D01*
X684834Y1374627D01*
X684842Y1374626D01*
X684842Y1374620D01*
X685895Y1373886D01*
X685903Y1373886D01*
X685905Y1373881D01*
X687095Y1373399D01*
X687102Y1373401D01*
X687105Y1373396D01*
X688372Y1373191D01*
X688377Y1373194D01*
X688380Y1373191D01*
X700380Y1373191D01*
X700384Y1373194D01*
G37*
G36*
X60304Y1373194D02*
X60304Y1373194D01*
X60307Y1373191D01*
X61429Y1373346D01*
X61434Y1373351D01*
X61438Y1373348D01*
X62509Y1373719D01*
X62513Y1373725D01*
X62518Y1373723D01*
X63495Y1374296D01*
X63498Y1374302D01*
X63503Y1374301D01*
X64350Y1375054D01*
X64352Y1375061D01*
X64357Y1375061D01*
X65041Y1375964D01*
X65041Y1375971D01*
X65046Y1375972D01*
X65541Y1376991D01*
X65539Y1376998D01*
X65544Y1377000D01*
X65831Y1378097D01*
X65829Y1378101D01*
X65831Y1378102D01*
X65829Y1378104D01*
X65832Y1378106D01*
X65899Y1379237D01*
X65897Y1379241D01*
X65899Y1379243D01*
X65832Y1380374D01*
X65827Y1380379D01*
X65831Y1380383D01*
X65544Y1381480D01*
X65538Y1381484D01*
X65541Y1381489D01*
X65046Y1382508D01*
X65040Y1382511D01*
X65041Y1382516D01*
X64357Y1383419D01*
X64350Y1383421D01*
X64350Y1383426D01*
X63503Y1384179D01*
X63496Y1384179D01*
X63495Y1384184D01*
X62518Y1384757D01*
X62511Y1384756D01*
X62509Y1384761D01*
X61438Y1385132D01*
X61432Y1385129D01*
X61429Y1385134D01*
X60307Y1385289D01*
X60302Y1385286D01*
X60300Y1385289D01*
X48300Y1385289D01*
X48295Y1385286D01*
X48292Y1385289D01*
X47025Y1385084D01*
X47019Y1385078D01*
X47015Y1385081D01*
X45825Y1384599D01*
X45821Y1384592D01*
X45815Y1384594D01*
X44762Y1383860D01*
X44760Y1383852D01*
X44754Y1383853D01*
X43891Y1382903D01*
X43890Y1382894D01*
X43885Y1382894D01*
X43255Y1381775D01*
X43256Y1381767D01*
X43250Y1381765D01*
X42885Y1380535D01*
X42888Y1380527D01*
X42883Y1380524D01*
X42801Y1379243D01*
X42804Y1379239D01*
X42801Y1379237D01*
X42883Y1377956D01*
X42889Y1377950D01*
X42885Y1377945D01*
X43250Y1376715D01*
X43257Y1376710D01*
X43255Y1376705D01*
X43885Y1375586D01*
X43892Y1375583D01*
X43891Y1375577D01*
X44754Y1374627D01*
X44762Y1374626D01*
X44762Y1374620D01*
X45815Y1373886D01*
X45823Y1373886D01*
X45825Y1373881D01*
X47015Y1373399D01*
X47022Y1373401D01*
X47025Y1373396D01*
X48292Y1373191D01*
X48297Y1373194D01*
X48300Y1373191D01*
X60300Y1373191D01*
X60304Y1373194D01*
G37*
G36*
X60304Y1286794D02*
X60304Y1286794D01*
X60307Y1286791D01*
X61429Y1286946D01*
X61434Y1286951D01*
X61438Y1286948D01*
X62509Y1287319D01*
X62513Y1287325D01*
X62518Y1287323D01*
X63495Y1287896D01*
X63498Y1287902D01*
X63503Y1287901D01*
X64350Y1288654D01*
X64352Y1288661D01*
X64357Y1288661D01*
X65041Y1289564D01*
X65041Y1289571D01*
X65046Y1289572D01*
X65541Y1290591D01*
X65539Y1290598D01*
X65544Y1290600D01*
X65831Y1291697D01*
X65829Y1291701D01*
X65831Y1291702D01*
X65829Y1291704D01*
X65832Y1291706D01*
X65899Y1292837D01*
X65897Y1292841D01*
X65899Y1292843D01*
X65832Y1293974D01*
X65827Y1293979D01*
X65831Y1293983D01*
X65544Y1295080D01*
X65538Y1295084D01*
X65541Y1295089D01*
X65046Y1296108D01*
X65040Y1296111D01*
X65041Y1296116D01*
X64357Y1297019D01*
X64350Y1297021D01*
X64350Y1297026D01*
X63503Y1297779D01*
X63496Y1297779D01*
X63495Y1297784D01*
X62518Y1298357D01*
X62511Y1298356D01*
X62509Y1298361D01*
X61438Y1298732D01*
X61432Y1298729D01*
X61429Y1298734D01*
X60307Y1298889D01*
X60302Y1298886D01*
X60300Y1298889D01*
X48300Y1298889D01*
X48295Y1298886D01*
X48292Y1298889D01*
X47025Y1298684D01*
X47019Y1298678D01*
X47015Y1298681D01*
X45825Y1298199D01*
X45821Y1298192D01*
X45815Y1298194D01*
X44762Y1297460D01*
X44760Y1297452D01*
X44754Y1297453D01*
X43891Y1296503D01*
X43890Y1296494D01*
X43885Y1296494D01*
X43255Y1295375D01*
X43256Y1295367D01*
X43250Y1295365D01*
X42885Y1294135D01*
X42888Y1294127D01*
X42883Y1294124D01*
X42801Y1292843D01*
X42804Y1292839D01*
X42801Y1292837D01*
X42883Y1291556D01*
X42889Y1291550D01*
X42885Y1291545D01*
X43250Y1290315D01*
X43257Y1290310D01*
X43255Y1290305D01*
X43885Y1289186D01*
X43892Y1289183D01*
X43891Y1289177D01*
X44754Y1288227D01*
X44762Y1288226D01*
X44762Y1288220D01*
X45815Y1287486D01*
X45823Y1287486D01*
X45825Y1287481D01*
X47015Y1286999D01*
X47022Y1287001D01*
X47025Y1286996D01*
X48292Y1286791D01*
X48297Y1286794D01*
X48300Y1286791D01*
X60300Y1286791D01*
X60304Y1286794D01*
G37*
G36*
X700384Y1286794D02*
X700384Y1286794D01*
X700387Y1286791D01*
X701509Y1286946D01*
X701514Y1286951D01*
X701518Y1286948D01*
X702589Y1287319D01*
X702593Y1287325D01*
X702598Y1287323D01*
X703575Y1287896D01*
X703578Y1287902D01*
X703583Y1287901D01*
X704430Y1288654D01*
X704432Y1288661D01*
X704437Y1288661D01*
X705121Y1289564D01*
X705121Y1289571D01*
X705126Y1289572D01*
X705621Y1290591D01*
X705619Y1290598D01*
X705624Y1290600D01*
X705911Y1291697D01*
X705909Y1291701D01*
X705911Y1291702D01*
X705909Y1291704D01*
X705912Y1291706D01*
X705979Y1292837D01*
X705977Y1292841D01*
X705979Y1292843D01*
X705912Y1293974D01*
X705907Y1293979D01*
X705911Y1293983D01*
X705624Y1295080D01*
X705618Y1295084D01*
X705621Y1295089D01*
X705126Y1296108D01*
X705120Y1296111D01*
X705121Y1296116D01*
X704437Y1297019D01*
X704430Y1297021D01*
X704430Y1297026D01*
X703583Y1297779D01*
X703576Y1297779D01*
X703575Y1297784D01*
X702598Y1298357D01*
X702591Y1298356D01*
X702589Y1298361D01*
X701518Y1298732D01*
X701512Y1298729D01*
X701509Y1298734D01*
X700387Y1298889D01*
X700382Y1298886D01*
X700380Y1298889D01*
X688380Y1298889D01*
X688375Y1298886D01*
X688372Y1298889D01*
X687105Y1298684D01*
X687099Y1298678D01*
X687095Y1298681D01*
X685905Y1298199D01*
X685901Y1298192D01*
X685895Y1298194D01*
X684842Y1297460D01*
X684840Y1297452D01*
X684834Y1297453D01*
X683971Y1296503D01*
X683970Y1296494D01*
X683965Y1296494D01*
X683335Y1295375D01*
X683336Y1295367D01*
X683330Y1295365D01*
X682965Y1294135D01*
X682968Y1294127D01*
X682963Y1294124D01*
X682881Y1292843D01*
X682884Y1292839D01*
X682881Y1292837D01*
X682963Y1291556D01*
X682969Y1291550D01*
X682965Y1291545D01*
X683330Y1290315D01*
X683337Y1290310D01*
X683335Y1290305D01*
X683965Y1289186D01*
X683972Y1289183D01*
X683971Y1289177D01*
X684834Y1288227D01*
X684842Y1288226D01*
X684842Y1288220D01*
X685895Y1287486D01*
X685903Y1287486D01*
X685905Y1287481D01*
X687095Y1286999D01*
X687102Y1287001D01*
X687105Y1286996D01*
X688372Y1286791D01*
X688377Y1286794D01*
X688380Y1286791D01*
X700380Y1286791D01*
X700384Y1286794D01*
G37*
G36*
X700384Y961714D02*
X700384Y961714D01*
X700387Y961711D01*
X701509Y961866D01*
X701514Y961871D01*
X701518Y961868D01*
X702589Y962239D01*
X702593Y962245D01*
X702598Y962243D01*
X703575Y962816D01*
X703578Y962822D01*
X703583Y962821D01*
X704430Y963574D01*
X704432Y963581D01*
X704437Y963581D01*
X705121Y964484D01*
X705121Y964491D01*
X705126Y964492D01*
X705621Y965511D01*
X705619Y965518D01*
X705624Y965520D01*
X705911Y966617D01*
X705909Y966621D01*
X705911Y966622D01*
X705909Y966624D01*
X705912Y966626D01*
X705979Y967757D01*
X705977Y967761D01*
X705979Y967763D01*
X705912Y968894D01*
X705907Y968899D01*
X705911Y968903D01*
X705624Y970000D01*
X705618Y970004D01*
X705621Y970009D01*
X705126Y971028D01*
X705120Y971031D01*
X705121Y971036D01*
X704437Y971939D01*
X704430Y971941D01*
X704430Y971946D01*
X703583Y972699D01*
X703576Y972699D01*
X703575Y972704D01*
X702598Y973277D01*
X702591Y973276D01*
X702589Y973281D01*
X701518Y973652D01*
X701512Y973649D01*
X701509Y973654D01*
X700387Y973809D01*
X700382Y973806D01*
X700380Y973809D01*
X688380Y973809D01*
X688375Y973806D01*
X688372Y973809D01*
X687105Y973604D01*
X687099Y973598D01*
X687095Y973601D01*
X685905Y973119D01*
X685901Y973112D01*
X685895Y973114D01*
X684842Y972380D01*
X684840Y972372D01*
X684834Y972373D01*
X683971Y971423D01*
X683970Y971414D01*
X683965Y971414D01*
X683335Y970295D01*
X683336Y970287D01*
X683330Y970285D01*
X682965Y969055D01*
X682968Y969047D01*
X682963Y969044D01*
X682881Y967763D01*
X682884Y967759D01*
X682881Y967757D01*
X682963Y966476D01*
X682969Y966470D01*
X682965Y966465D01*
X683330Y965235D01*
X683337Y965230D01*
X683335Y965225D01*
X683965Y964106D01*
X683972Y964103D01*
X683971Y964097D01*
X684834Y963147D01*
X684842Y963146D01*
X684842Y963140D01*
X685895Y962406D01*
X685903Y962406D01*
X685905Y962401D01*
X687095Y961919D01*
X687102Y961921D01*
X687105Y961916D01*
X688372Y961711D01*
X688377Y961714D01*
X688380Y961711D01*
X700380Y961711D01*
X700384Y961714D01*
G37*
G36*
X60304Y961714D02*
X60304Y961714D01*
X60307Y961711D01*
X61429Y961866D01*
X61434Y961871D01*
X61438Y961868D01*
X62509Y962239D01*
X62513Y962245D01*
X62518Y962243D01*
X63495Y962816D01*
X63498Y962822D01*
X63503Y962821D01*
X64350Y963574D01*
X64352Y963581D01*
X64357Y963581D01*
X65041Y964484D01*
X65041Y964491D01*
X65046Y964492D01*
X65541Y965511D01*
X65539Y965518D01*
X65544Y965520D01*
X65831Y966617D01*
X65829Y966621D01*
X65831Y966622D01*
X65829Y966624D01*
X65832Y966626D01*
X65899Y967757D01*
X65897Y967761D01*
X65899Y967763D01*
X65832Y968894D01*
X65827Y968899D01*
X65831Y968903D01*
X65544Y970000D01*
X65538Y970004D01*
X65541Y970009D01*
X65046Y971028D01*
X65040Y971031D01*
X65041Y971036D01*
X64357Y971939D01*
X64350Y971941D01*
X64350Y971946D01*
X63503Y972699D01*
X63496Y972699D01*
X63495Y972704D01*
X62518Y973277D01*
X62511Y973276D01*
X62509Y973281D01*
X61438Y973652D01*
X61432Y973649D01*
X61429Y973654D01*
X60307Y973809D01*
X60302Y973806D01*
X60300Y973809D01*
X48300Y973809D01*
X48295Y973806D01*
X48292Y973809D01*
X47025Y973604D01*
X47019Y973598D01*
X47015Y973601D01*
X45825Y973119D01*
X45821Y973112D01*
X45815Y973114D01*
X44762Y972380D01*
X44760Y972372D01*
X44754Y972373D01*
X43891Y971423D01*
X43890Y971414D01*
X43885Y971414D01*
X43255Y970295D01*
X43256Y970287D01*
X43250Y970285D01*
X42885Y969055D01*
X42888Y969047D01*
X42883Y969044D01*
X42801Y967763D01*
X42804Y967759D01*
X42801Y967757D01*
X42883Y966476D01*
X42889Y966470D01*
X42885Y966465D01*
X43250Y965235D01*
X43257Y965230D01*
X43255Y965225D01*
X43885Y964106D01*
X43892Y964103D01*
X43891Y964097D01*
X44754Y963147D01*
X44762Y963146D01*
X44762Y963140D01*
X45815Y962406D01*
X45823Y962406D01*
X45825Y962401D01*
X47015Y961919D01*
X47022Y961921D01*
X47025Y961916D01*
X48292Y961711D01*
X48297Y961714D01*
X48300Y961711D01*
X60300Y961711D01*
X60304Y961714D01*
G37*
G36*
X700384Y875314D02*
X700384Y875314D01*
X700387Y875311D01*
X701509Y875466D01*
X701514Y875471D01*
X701518Y875468D01*
X702589Y875839D01*
X702593Y875845D01*
X702598Y875843D01*
X703575Y876416D01*
X703578Y876422D01*
X703583Y876421D01*
X704430Y877174D01*
X704432Y877181D01*
X704437Y877181D01*
X705121Y878084D01*
X705121Y878091D01*
X705126Y878092D01*
X705621Y879111D01*
X705619Y879118D01*
X705624Y879120D01*
X705911Y880217D01*
X705909Y880221D01*
X705911Y880222D01*
X705909Y880224D01*
X705912Y880226D01*
X705979Y881357D01*
X705977Y881361D01*
X705979Y881363D01*
X705912Y882494D01*
X705907Y882499D01*
X705911Y882503D01*
X705624Y883600D01*
X705618Y883604D01*
X705621Y883609D01*
X705126Y884628D01*
X705120Y884631D01*
X705121Y884636D01*
X704437Y885539D01*
X704430Y885541D01*
X704430Y885546D01*
X703583Y886299D01*
X703576Y886299D01*
X703575Y886304D01*
X702598Y886877D01*
X702591Y886876D01*
X702589Y886881D01*
X701518Y887252D01*
X701512Y887249D01*
X701509Y887254D01*
X700387Y887409D01*
X700382Y887406D01*
X700380Y887409D01*
X688380Y887409D01*
X688375Y887406D01*
X688372Y887409D01*
X687105Y887204D01*
X687099Y887198D01*
X687095Y887201D01*
X685905Y886719D01*
X685901Y886712D01*
X685895Y886714D01*
X684842Y885980D01*
X684840Y885972D01*
X684834Y885973D01*
X683971Y885023D01*
X683970Y885014D01*
X683965Y885014D01*
X683335Y883895D01*
X683336Y883887D01*
X683330Y883885D01*
X682965Y882655D01*
X682968Y882647D01*
X682963Y882644D01*
X682881Y881363D01*
X682884Y881359D01*
X682881Y881357D01*
X682963Y880076D01*
X682969Y880070D01*
X682965Y880065D01*
X683330Y878835D01*
X683337Y878830D01*
X683335Y878825D01*
X683965Y877706D01*
X683972Y877703D01*
X683971Y877697D01*
X684834Y876747D01*
X684842Y876746D01*
X684842Y876740D01*
X685895Y876006D01*
X685903Y876006D01*
X685905Y876001D01*
X687095Y875519D01*
X687102Y875521D01*
X687105Y875516D01*
X688372Y875311D01*
X688377Y875314D01*
X688380Y875311D01*
X700380Y875311D01*
X700384Y875314D01*
G37*
G36*
X60304Y875314D02*
X60304Y875314D01*
X60307Y875311D01*
X61429Y875466D01*
X61434Y875471D01*
X61438Y875468D01*
X62509Y875839D01*
X62513Y875845D01*
X62518Y875843D01*
X63495Y876416D01*
X63498Y876422D01*
X63503Y876421D01*
X64350Y877174D01*
X64352Y877181D01*
X64357Y877181D01*
X65041Y878084D01*
X65041Y878091D01*
X65046Y878092D01*
X65541Y879111D01*
X65539Y879118D01*
X65544Y879120D01*
X65831Y880217D01*
X65829Y880221D01*
X65831Y880222D01*
X65829Y880224D01*
X65832Y880226D01*
X65899Y881357D01*
X65897Y881361D01*
X65899Y881363D01*
X65832Y882494D01*
X65827Y882499D01*
X65831Y882503D01*
X65544Y883600D01*
X65538Y883604D01*
X65541Y883609D01*
X65046Y884628D01*
X65040Y884631D01*
X65041Y884636D01*
X64357Y885539D01*
X64350Y885541D01*
X64350Y885546D01*
X63503Y886299D01*
X63496Y886299D01*
X63495Y886304D01*
X62518Y886877D01*
X62511Y886876D01*
X62509Y886881D01*
X61438Y887252D01*
X61432Y887249D01*
X61429Y887254D01*
X60307Y887409D01*
X60302Y887406D01*
X60300Y887409D01*
X48300Y887409D01*
X48295Y887406D01*
X48292Y887409D01*
X47025Y887204D01*
X47019Y887198D01*
X47015Y887201D01*
X45825Y886719D01*
X45821Y886712D01*
X45815Y886714D01*
X44762Y885980D01*
X44760Y885972D01*
X44754Y885973D01*
X43891Y885023D01*
X43890Y885014D01*
X43885Y885014D01*
X43255Y883895D01*
X43256Y883887D01*
X43250Y883885D01*
X42885Y882655D01*
X42888Y882647D01*
X42883Y882644D01*
X42801Y881363D01*
X42804Y881359D01*
X42801Y881357D01*
X42883Y880076D01*
X42889Y880070D01*
X42885Y880065D01*
X43250Y878835D01*
X43257Y878830D01*
X43255Y878825D01*
X43885Y877706D01*
X43892Y877703D01*
X43891Y877697D01*
X44754Y876747D01*
X44762Y876746D01*
X44762Y876740D01*
X45815Y876006D01*
X45823Y876006D01*
X45825Y876001D01*
X47015Y875519D01*
X47022Y875521D01*
X47025Y875516D01*
X48292Y875311D01*
X48297Y875314D01*
X48300Y875311D01*
X60300Y875311D01*
X60304Y875314D01*
G37*
G36*
X700384Y550234D02*
X700384Y550234D01*
X700387Y550231D01*
X701509Y550386D01*
X701514Y550391D01*
X701518Y550388D01*
X702589Y550759D01*
X702593Y550765D01*
X702598Y550763D01*
X703575Y551336D01*
X703578Y551342D01*
X703583Y551341D01*
X704430Y552094D01*
X704432Y552101D01*
X704437Y552101D01*
X705121Y553004D01*
X705121Y553011D01*
X705126Y553012D01*
X705621Y554031D01*
X705619Y554038D01*
X705624Y554040D01*
X705911Y555137D01*
X705909Y555141D01*
X705911Y555142D01*
X705909Y555144D01*
X705912Y555146D01*
X705979Y556277D01*
X705977Y556281D01*
X705979Y556283D01*
X705912Y557414D01*
X705907Y557419D01*
X705911Y557423D01*
X705624Y558520D01*
X705618Y558524D01*
X705621Y558529D01*
X705126Y559548D01*
X705120Y559551D01*
X705121Y559556D01*
X704437Y560459D01*
X704430Y560461D01*
X704430Y560466D01*
X703583Y561219D01*
X703576Y561219D01*
X703575Y561224D01*
X702598Y561797D01*
X702591Y561796D01*
X702589Y561801D01*
X701518Y562172D01*
X701512Y562169D01*
X701509Y562174D01*
X700387Y562329D01*
X700382Y562326D01*
X700380Y562329D01*
X688380Y562329D01*
X688375Y562326D01*
X688372Y562329D01*
X687105Y562124D01*
X687099Y562118D01*
X687095Y562121D01*
X685905Y561639D01*
X685901Y561632D01*
X685895Y561634D01*
X684842Y560900D01*
X684840Y560892D01*
X684834Y560893D01*
X683971Y559943D01*
X683970Y559934D01*
X683965Y559934D01*
X683335Y558815D01*
X683336Y558807D01*
X683330Y558805D01*
X682965Y557575D01*
X682968Y557567D01*
X682963Y557564D01*
X682881Y556283D01*
X682884Y556279D01*
X682881Y556277D01*
X682963Y554996D01*
X682969Y554990D01*
X682965Y554985D01*
X683330Y553755D01*
X683337Y553750D01*
X683335Y553745D01*
X683965Y552626D01*
X683972Y552623D01*
X683971Y552617D01*
X684834Y551667D01*
X684842Y551666D01*
X684842Y551660D01*
X685895Y550926D01*
X685903Y550926D01*
X685905Y550921D01*
X687095Y550439D01*
X687102Y550441D01*
X687105Y550436D01*
X688372Y550231D01*
X688377Y550234D01*
X688380Y550231D01*
X700380Y550231D01*
X700384Y550234D01*
G37*
G36*
X700384Y463834D02*
X700384Y463834D01*
X700387Y463831D01*
X701509Y463986D01*
X701514Y463991D01*
X701518Y463988D01*
X702589Y464359D01*
X702593Y464365D01*
X702598Y464363D01*
X703575Y464936D01*
X703578Y464942D01*
X703583Y464941D01*
X704430Y465694D01*
X704432Y465701D01*
X704437Y465701D01*
X705121Y466604D01*
X705121Y466611D01*
X705126Y466612D01*
X705621Y467631D01*
X705619Y467638D01*
X705624Y467640D01*
X705911Y468737D01*
X705909Y468741D01*
X705911Y468742D01*
X705909Y468744D01*
X705912Y468746D01*
X705979Y469877D01*
X705977Y469881D01*
X705979Y469883D01*
X705912Y471014D01*
X705907Y471019D01*
X705911Y471023D01*
X705624Y472120D01*
X705618Y472124D01*
X705621Y472129D01*
X705126Y473148D01*
X705120Y473151D01*
X705121Y473156D01*
X704437Y474059D01*
X704430Y474061D01*
X704430Y474066D01*
X703583Y474819D01*
X703576Y474819D01*
X703575Y474824D01*
X702598Y475397D01*
X702591Y475396D01*
X702589Y475401D01*
X701518Y475772D01*
X701512Y475769D01*
X701509Y475774D01*
X700387Y475929D01*
X700382Y475926D01*
X700380Y475929D01*
X688380Y475929D01*
X688375Y475926D01*
X688372Y475929D01*
X687105Y475724D01*
X687099Y475718D01*
X687095Y475721D01*
X685905Y475239D01*
X685901Y475232D01*
X685895Y475234D01*
X684842Y474500D01*
X684840Y474492D01*
X684834Y474493D01*
X683971Y473543D01*
X683970Y473534D01*
X683965Y473534D01*
X683335Y472415D01*
X683336Y472407D01*
X683330Y472405D01*
X682965Y471175D01*
X682968Y471167D01*
X682963Y471164D01*
X682881Y469883D01*
X682884Y469879D01*
X682881Y469877D01*
X682963Y468596D01*
X682969Y468590D01*
X682965Y468585D01*
X683330Y467355D01*
X683337Y467350D01*
X683335Y467345D01*
X683965Y466226D01*
X683972Y466223D01*
X683971Y466217D01*
X684834Y465267D01*
X684842Y465266D01*
X684842Y465260D01*
X685895Y464526D01*
X685903Y464526D01*
X685905Y464521D01*
X687095Y464039D01*
X687102Y464041D01*
X687105Y464036D01*
X688372Y463831D01*
X688377Y463834D01*
X688380Y463831D01*
X700380Y463831D01*
X700384Y463834D01*
G37*
G36*
X60304Y463834D02*
X60304Y463834D01*
X60307Y463831D01*
X61429Y463986D01*
X61434Y463991D01*
X61438Y463988D01*
X62509Y464359D01*
X62513Y464365D01*
X62518Y464363D01*
X63495Y464936D01*
X63498Y464942D01*
X63503Y464941D01*
X64350Y465694D01*
X64352Y465701D01*
X64357Y465701D01*
X65041Y466604D01*
X65041Y466611D01*
X65046Y466612D01*
X65541Y467631D01*
X65539Y467638D01*
X65544Y467640D01*
X65831Y468737D01*
X65829Y468741D01*
X65831Y468742D01*
X65829Y468744D01*
X65832Y468746D01*
X65899Y469877D01*
X65897Y469881D01*
X65899Y469883D01*
X65832Y471014D01*
X65827Y471019D01*
X65831Y471023D01*
X65544Y472120D01*
X65538Y472124D01*
X65541Y472129D01*
X65046Y473148D01*
X65040Y473151D01*
X65041Y473156D01*
X64357Y474059D01*
X64350Y474061D01*
X64350Y474066D01*
X63503Y474819D01*
X63496Y474819D01*
X63495Y474824D01*
X62518Y475397D01*
X62511Y475396D01*
X62509Y475401D01*
X61438Y475772D01*
X61432Y475769D01*
X61429Y475774D01*
X60307Y475929D01*
X60302Y475926D01*
X60300Y475929D01*
X48300Y475929D01*
X48295Y475926D01*
X48292Y475929D01*
X47025Y475724D01*
X47019Y475718D01*
X47015Y475721D01*
X45825Y475239D01*
X45821Y475232D01*
X45815Y475234D01*
X44762Y474500D01*
X44760Y474492D01*
X44754Y474493D01*
X43891Y473543D01*
X43890Y473534D01*
X43885Y473534D01*
X43255Y472415D01*
X43256Y472407D01*
X43250Y472405D01*
X42885Y471175D01*
X42888Y471167D01*
X42883Y471164D01*
X42801Y469883D01*
X42804Y469879D01*
X42801Y469877D01*
X42883Y468596D01*
X42889Y468590D01*
X42885Y468585D01*
X43250Y467355D01*
X43257Y467350D01*
X43255Y467345D01*
X43885Y466226D01*
X43892Y466223D01*
X43891Y466217D01*
X44754Y465267D01*
X44762Y465266D01*
X44762Y465260D01*
X45815Y464526D01*
X45823Y464526D01*
X45825Y464521D01*
X47015Y464039D01*
X47022Y464041D01*
X47025Y464036D01*
X48292Y463831D01*
X48297Y463834D01*
X48300Y463831D01*
X60300Y463831D01*
X60304Y463834D01*
G37*
G36*
X60304Y550234D02*
X60304Y550234D01*
X60307Y550231D01*
X61429Y550386D01*
X61434Y550391D01*
X61438Y550388D01*
X62509Y550759D01*
X62513Y550765D01*
X62518Y550763D01*
X63495Y551336D01*
X63498Y551342D01*
X63503Y551341D01*
X64350Y552094D01*
X64352Y552101D01*
X64357Y552101D01*
X65041Y553004D01*
X65041Y553011D01*
X65046Y553012D01*
X65541Y554031D01*
X65539Y554038D01*
X65544Y554040D01*
X65831Y555137D01*
X65829Y555141D01*
X65831Y555142D01*
X65829Y555144D01*
X65832Y555146D01*
X65899Y556277D01*
X65897Y556281D01*
X65899Y556283D01*
X65832Y557414D01*
X65827Y557419D01*
X65831Y557423D01*
X65544Y558520D01*
X65538Y558524D01*
X65541Y558529D01*
X65046Y559548D01*
X65040Y559551D01*
X65041Y559556D01*
X64357Y560459D01*
X64350Y560461D01*
X64350Y560466D01*
X63503Y561219D01*
X63496Y561219D01*
X63495Y561224D01*
X62518Y561797D01*
X62511Y561796D01*
X62509Y561801D01*
X61438Y562172D01*
X61432Y562169D01*
X61429Y562174D01*
X60307Y562329D01*
X60302Y562326D01*
X60300Y562329D01*
X48300Y562329D01*
X48295Y562326D01*
X48292Y562329D01*
X47025Y562124D01*
X47019Y562118D01*
X47015Y562121D01*
X45825Y561639D01*
X45821Y561632D01*
X45815Y561634D01*
X44762Y560900D01*
X44760Y560892D01*
X44754Y560893D01*
X43891Y559943D01*
X43890Y559934D01*
X43885Y559934D01*
X43255Y558815D01*
X43256Y558807D01*
X43250Y558805D01*
X42885Y557575D01*
X42888Y557567D01*
X42883Y557564D01*
X42801Y556283D01*
X42804Y556279D01*
X42801Y556277D01*
X42883Y554996D01*
X42889Y554990D01*
X42885Y554985D01*
X43250Y553755D01*
X43257Y553750D01*
X43255Y553745D01*
X43885Y552626D01*
X43892Y552623D01*
X43891Y552617D01*
X44754Y551667D01*
X44762Y551666D01*
X44762Y551660D01*
X45815Y550926D01*
X45823Y550926D01*
X45825Y550921D01*
X47015Y550439D01*
X47022Y550441D01*
X47025Y550436D01*
X48292Y550231D01*
X48297Y550234D01*
X48300Y550231D01*
X60300Y550231D01*
X60304Y550234D01*
G37*
G36*
X60304Y138754D02*
X60304Y138754D01*
X60307Y138751D01*
X61429Y138906D01*
X61434Y138911D01*
X61438Y138908D01*
X62509Y139279D01*
X62513Y139285D01*
X62518Y139283D01*
X63495Y139856D01*
X63498Y139862D01*
X63503Y139861D01*
X64350Y140614D01*
X64352Y140621D01*
X64357Y140621D01*
X65041Y141524D01*
X65041Y141531D01*
X65046Y141532D01*
X65541Y142551D01*
X65539Y142558D01*
X65544Y142560D01*
X65831Y143657D01*
X65829Y143661D01*
X65831Y143662D01*
X65829Y143664D01*
X65832Y143666D01*
X65899Y144797D01*
X65897Y144801D01*
X65899Y144803D01*
X65832Y145934D01*
X65827Y145939D01*
X65831Y145943D01*
X65544Y147040D01*
X65538Y147044D01*
X65541Y147049D01*
X65046Y148068D01*
X65040Y148071D01*
X65041Y148076D01*
X64357Y148979D01*
X64350Y148981D01*
X64350Y148986D01*
X63503Y149739D01*
X63496Y149739D01*
X63495Y149744D01*
X62518Y150317D01*
X62511Y150316D01*
X62509Y150321D01*
X61438Y150692D01*
X61432Y150689D01*
X61429Y150694D01*
X60307Y150849D01*
X60302Y150846D01*
X60300Y150849D01*
X48300Y150849D01*
X48295Y150846D01*
X48292Y150849D01*
X47025Y150644D01*
X47019Y150638D01*
X47015Y150641D01*
X45825Y150159D01*
X45821Y150152D01*
X45815Y150154D01*
X44762Y149420D01*
X44760Y149412D01*
X44754Y149413D01*
X43891Y148463D01*
X43890Y148454D01*
X43885Y148454D01*
X43255Y147335D01*
X43256Y147327D01*
X43250Y147325D01*
X42885Y146095D01*
X42888Y146087D01*
X42883Y146084D01*
X42801Y144803D01*
X42804Y144799D01*
X42801Y144797D01*
X42883Y143516D01*
X42889Y143510D01*
X42885Y143505D01*
X43250Y142275D01*
X43257Y142270D01*
X43255Y142265D01*
X43885Y141146D01*
X43892Y141143D01*
X43891Y141137D01*
X44754Y140187D01*
X44762Y140186D01*
X44762Y140180D01*
X45815Y139446D01*
X45823Y139446D01*
X45825Y139441D01*
X47015Y138959D01*
X47022Y138961D01*
X47025Y138956D01*
X48292Y138751D01*
X48297Y138754D01*
X48300Y138751D01*
X60300Y138751D01*
X60304Y138754D01*
G37*
G36*
X700384Y138754D02*
X700384Y138754D01*
X700387Y138751D01*
X701509Y138906D01*
X701514Y138911D01*
X701518Y138908D01*
X702589Y139279D01*
X702593Y139285D01*
X702598Y139283D01*
X703575Y139856D01*
X703578Y139862D01*
X703583Y139861D01*
X704430Y140614D01*
X704432Y140621D01*
X704437Y140621D01*
X705121Y141524D01*
X705121Y141531D01*
X705126Y141532D01*
X705621Y142551D01*
X705619Y142558D01*
X705624Y142560D01*
X705911Y143657D01*
X705909Y143661D01*
X705911Y143662D01*
X705909Y143664D01*
X705912Y143666D01*
X705979Y144797D01*
X705977Y144801D01*
X705979Y144803D01*
X705912Y145934D01*
X705907Y145939D01*
X705911Y145943D01*
X705624Y147040D01*
X705618Y147044D01*
X705621Y147049D01*
X705126Y148068D01*
X705120Y148071D01*
X705121Y148076D01*
X704437Y148979D01*
X704430Y148981D01*
X704430Y148986D01*
X703583Y149739D01*
X703576Y149739D01*
X703575Y149744D01*
X702598Y150317D01*
X702591Y150316D01*
X702589Y150321D01*
X701518Y150692D01*
X701512Y150689D01*
X701509Y150694D01*
X700387Y150849D01*
X700382Y150846D01*
X700380Y150849D01*
X688380Y150849D01*
X688375Y150846D01*
X688372Y150849D01*
X687105Y150644D01*
X687099Y150638D01*
X687095Y150641D01*
X685905Y150159D01*
X685901Y150152D01*
X685895Y150154D01*
X684842Y149420D01*
X684840Y149412D01*
X684834Y149413D01*
X683971Y148463D01*
X683970Y148454D01*
X683965Y148454D01*
X683335Y147335D01*
X683336Y147327D01*
X683330Y147325D01*
X682965Y146095D01*
X682968Y146087D01*
X682963Y146084D01*
X682881Y144803D01*
X682884Y144799D01*
X682881Y144797D01*
X682963Y143516D01*
X682969Y143510D01*
X682965Y143505D01*
X683330Y142275D01*
X683337Y142270D01*
X683335Y142265D01*
X683965Y141146D01*
X683972Y141143D01*
X683971Y141137D01*
X684834Y140187D01*
X684842Y140186D01*
X684842Y140180D01*
X685895Y139446D01*
X685903Y139446D01*
X685905Y139441D01*
X687095Y138959D01*
X687102Y138961D01*
X687105Y138956D01*
X688372Y138751D01*
X688377Y138754D01*
X688380Y138751D01*
X700380Y138751D01*
X700384Y138754D01*
G37*
G36*
X60304Y52354D02*
X60304Y52354D01*
X60307Y52351D01*
X61429Y52506D01*
X61434Y52511D01*
X61438Y52508D01*
X62509Y52879D01*
X62513Y52885D01*
X62518Y52883D01*
X63495Y53456D01*
X63498Y53462D01*
X63503Y53461D01*
X64350Y54214D01*
X64352Y54221D01*
X64357Y54221D01*
X65041Y55124D01*
X65041Y55131D01*
X65046Y55132D01*
X65541Y56151D01*
X65539Y56158D01*
X65544Y56160D01*
X65831Y57257D01*
X65829Y57261D01*
X65831Y57262D01*
X65829Y57264D01*
X65832Y57266D01*
X65899Y58397D01*
X65897Y58401D01*
X65899Y58403D01*
X65832Y59534D01*
X65827Y59539D01*
X65831Y59543D01*
X65544Y60640D01*
X65538Y60644D01*
X65541Y60649D01*
X65046Y61668D01*
X65040Y61671D01*
X65041Y61676D01*
X64357Y62579D01*
X64350Y62581D01*
X64350Y62586D01*
X63503Y63339D01*
X63496Y63339D01*
X63495Y63344D01*
X62518Y63917D01*
X62511Y63916D01*
X62509Y63921D01*
X61438Y64292D01*
X61432Y64289D01*
X61429Y64294D01*
X60307Y64449D01*
X60302Y64446D01*
X60300Y64449D01*
X48300Y64449D01*
X48295Y64446D01*
X48292Y64449D01*
X47025Y64244D01*
X47019Y64238D01*
X47015Y64241D01*
X45825Y63759D01*
X45821Y63752D01*
X45815Y63754D01*
X44762Y63020D01*
X44760Y63012D01*
X44754Y63013D01*
X43891Y62063D01*
X43890Y62054D01*
X43885Y62054D01*
X43255Y60935D01*
X43256Y60927D01*
X43250Y60925D01*
X42885Y59695D01*
X42888Y59687D01*
X42883Y59684D01*
X42801Y58403D01*
X42804Y58399D01*
X42801Y58397D01*
X42883Y57116D01*
X42889Y57110D01*
X42885Y57105D01*
X43250Y55875D01*
X43257Y55870D01*
X43255Y55865D01*
X43885Y54746D01*
X43892Y54743D01*
X43891Y54737D01*
X44754Y53787D01*
X44762Y53786D01*
X44762Y53780D01*
X45815Y53046D01*
X45823Y53046D01*
X45825Y53041D01*
X47015Y52559D01*
X47022Y52561D01*
X47025Y52556D01*
X48292Y52351D01*
X48297Y52354D01*
X48300Y52351D01*
X60300Y52351D01*
X60304Y52354D01*
G37*
G36*
X700384Y52354D02*
X700384Y52354D01*
X700387Y52351D01*
X701509Y52506D01*
X701514Y52511D01*
X701518Y52508D01*
X702589Y52879D01*
X702593Y52885D01*
X702598Y52883D01*
X703575Y53456D01*
X703578Y53462D01*
X703583Y53461D01*
X704430Y54214D01*
X704432Y54221D01*
X704437Y54221D01*
X705121Y55124D01*
X705121Y55131D01*
X705126Y55132D01*
X705621Y56151D01*
X705619Y56158D01*
X705624Y56160D01*
X705911Y57257D01*
X705909Y57261D01*
X705911Y57262D01*
X705909Y57264D01*
X705912Y57266D01*
X705979Y58397D01*
X705977Y58401D01*
X705979Y58403D01*
X705912Y59534D01*
X705907Y59539D01*
X705911Y59543D01*
X705624Y60640D01*
X705618Y60644D01*
X705621Y60649D01*
X705126Y61668D01*
X705120Y61671D01*
X705121Y61676D01*
X704437Y62579D01*
X704430Y62581D01*
X704430Y62586D01*
X703583Y63339D01*
X703576Y63339D01*
X703575Y63344D01*
X702598Y63917D01*
X702591Y63916D01*
X702589Y63921D01*
X701518Y64292D01*
X701512Y64289D01*
X701509Y64294D01*
X700387Y64449D01*
X700382Y64446D01*
X700380Y64449D01*
X688380Y64449D01*
X688375Y64446D01*
X688372Y64449D01*
X687105Y64244D01*
X687099Y64238D01*
X687095Y64241D01*
X685905Y63759D01*
X685901Y63752D01*
X685895Y63754D01*
X684842Y63020D01*
X684840Y63012D01*
X684834Y63013D01*
X683971Y62063D01*
X683970Y62054D01*
X683965Y62054D01*
X683335Y60935D01*
X683336Y60927D01*
X683330Y60925D01*
X682965Y59695D01*
X682968Y59687D01*
X682963Y59684D01*
X682881Y58403D01*
X682884Y58399D01*
X682881Y58397D01*
X682963Y57116D01*
X682969Y57110D01*
X682965Y57105D01*
X683330Y55875D01*
X683337Y55870D01*
X683335Y55865D01*
X683965Y54746D01*
X683972Y54743D01*
X683971Y54737D01*
X684834Y53787D01*
X684842Y53786D01*
X684842Y53780D01*
X685895Y53046D01*
X685903Y53046D01*
X685905Y53041D01*
X687095Y52559D01*
X687102Y52561D01*
X687105Y52556D01*
X688372Y52351D01*
X688377Y52354D01*
X688380Y52351D01*
X700380Y52351D01*
X700384Y52354D01*
G37*
G36*
X655583Y1373193D02*
X655583Y1373193D01*
X655585Y1373191D01*
X656761Y1373302D01*
X656766Y1373307D01*
X656770Y1373304D01*
X657902Y1373642D01*
X657906Y1373648D01*
X657911Y1373646D01*
X658955Y1374198D01*
X658958Y1374205D01*
X658963Y1374203D01*
X659879Y1374949D01*
X659880Y1374956D01*
X659886Y1374956D01*
X660639Y1375866D01*
X660639Y1375873D01*
X660644Y1375874D01*
X661205Y1376913D01*
X661204Y1376918D01*
X661208Y1376920D01*
X661207Y1376921D01*
X661209Y1376922D01*
X661556Y1378051D01*
X661556Y1378052D01*
X661557Y1378053D01*
X661554Y1378057D01*
X661558Y1378060D01*
X661679Y1379235D01*
X661675Y1379242D01*
X661679Y1379246D01*
X661522Y1380586D01*
X661517Y1380592D01*
X661520Y1380597D01*
X661069Y1381868D01*
X661062Y1381873D01*
X661064Y1381878D01*
X660342Y1383017D01*
X660334Y1383020D01*
X660335Y1383026D01*
X659377Y1383976D01*
X659369Y1383977D01*
X659368Y1383983D01*
X658223Y1384696D01*
X658215Y1384695D01*
X658213Y1384701D01*
X656937Y1385141D01*
X656930Y1385139D01*
X656927Y1385143D01*
X655585Y1385289D01*
X655582Y1385287D01*
X655580Y1385289D01*
X649580Y1385289D01*
X649577Y1385287D01*
X649574Y1385289D01*
X648245Y1385134D01*
X648239Y1385128D01*
X648235Y1385131D01*
X646974Y1384684D01*
X646969Y1384677D01*
X646964Y1384679D01*
X645834Y1383962D01*
X645831Y1383955D01*
X645825Y1383956D01*
X644883Y1383006D01*
X644882Y1382997D01*
X644876Y1382997D01*
X644169Y1381861D01*
X644170Y1381853D01*
X644164Y1381851D01*
X643728Y1380586D01*
X643730Y1380578D01*
X643725Y1380576D01*
X643581Y1379245D01*
X643585Y1379239D01*
X643581Y1379235D01*
X643691Y1378069D01*
X643696Y1378064D01*
X643693Y1378060D01*
X644028Y1376937D01*
X644034Y1376933D01*
X644032Y1376929D01*
X644580Y1375893D01*
X644586Y1375890D01*
X644585Y1375885D01*
X645324Y1374977D01*
X645331Y1374975D01*
X645331Y1374970D01*
X646233Y1374223D01*
X646241Y1374223D01*
X646241Y1374218D01*
X647272Y1373661D01*
X647279Y1373662D01*
X647281Y1373657D01*
X648400Y1373313D01*
X648407Y1373315D01*
X648410Y1373311D01*
X649575Y1373191D01*
X649578Y1373193D01*
X649580Y1373191D01*
X655580Y1373191D01*
X655583Y1373193D01*
G37*
G36*
X15503Y1373193D02*
X15503Y1373193D01*
X15505Y1373191D01*
X16681Y1373302D01*
X16686Y1373307D01*
X16690Y1373304D01*
X17822Y1373642D01*
X17826Y1373648D01*
X17831Y1373646D01*
X18875Y1374198D01*
X18878Y1374205D01*
X18883Y1374203D01*
X19799Y1374949D01*
X19800Y1374956D01*
X19806Y1374956D01*
X20559Y1375866D01*
X20559Y1375873D01*
X20564Y1375874D01*
X21125Y1376913D01*
X21124Y1376918D01*
X21128Y1376920D01*
X21127Y1376921D01*
X21129Y1376922D01*
X21476Y1378051D01*
X21476Y1378052D01*
X21477Y1378053D01*
X21474Y1378057D01*
X21478Y1378060D01*
X21599Y1379235D01*
X21595Y1379242D01*
X21599Y1379246D01*
X21442Y1380586D01*
X21437Y1380592D01*
X21440Y1380597D01*
X20989Y1381868D01*
X20982Y1381873D01*
X20984Y1381878D01*
X20262Y1383017D01*
X20254Y1383020D01*
X20255Y1383026D01*
X19297Y1383976D01*
X19289Y1383977D01*
X19288Y1383983D01*
X18143Y1384696D01*
X18135Y1384695D01*
X18133Y1384701D01*
X16857Y1385141D01*
X16850Y1385139D01*
X16847Y1385143D01*
X15505Y1385289D01*
X15502Y1385287D01*
X15500Y1385289D01*
X9500Y1385289D01*
X9497Y1385287D01*
X9494Y1385289D01*
X8165Y1385134D01*
X8159Y1385128D01*
X8155Y1385131D01*
X6894Y1384684D01*
X6889Y1384677D01*
X6884Y1384679D01*
X5754Y1383962D01*
X5751Y1383955D01*
X5745Y1383956D01*
X4803Y1383006D01*
X4802Y1382997D01*
X4796Y1382997D01*
X4089Y1381861D01*
X4090Y1381853D01*
X4084Y1381851D01*
X3648Y1380586D01*
X3650Y1380578D01*
X3645Y1380576D01*
X3501Y1379245D01*
X3505Y1379239D01*
X3501Y1379235D01*
X3611Y1378069D01*
X3616Y1378064D01*
X3613Y1378060D01*
X3948Y1376937D01*
X3954Y1376933D01*
X3952Y1376929D01*
X4500Y1375893D01*
X4506Y1375890D01*
X4505Y1375885D01*
X5244Y1374977D01*
X5251Y1374975D01*
X5251Y1374970D01*
X6153Y1374223D01*
X6161Y1374223D01*
X6161Y1374218D01*
X7192Y1373661D01*
X7199Y1373662D01*
X7201Y1373657D01*
X8320Y1373313D01*
X8327Y1373315D01*
X8330Y1373311D01*
X9495Y1373191D01*
X9498Y1373193D01*
X9500Y1373191D01*
X15500Y1373191D01*
X15503Y1373193D01*
G37*
G36*
X15503Y1286793D02*
X15503Y1286793D01*
X15505Y1286791D01*
X16681Y1286902D01*
X16686Y1286907D01*
X16690Y1286904D01*
X17822Y1287242D01*
X17826Y1287248D01*
X17831Y1287246D01*
X18875Y1287798D01*
X18878Y1287805D01*
X18883Y1287803D01*
X19799Y1288549D01*
X19800Y1288556D01*
X19806Y1288556D01*
X20559Y1289466D01*
X20559Y1289473D01*
X20564Y1289474D01*
X21125Y1290513D01*
X21124Y1290518D01*
X21128Y1290520D01*
X21127Y1290521D01*
X21129Y1290522D01*
X21476Y1291651D01*
X21476Y1291652D01*
X21477Y1291653D01*
X21474Y1291657D01*
X21478Y1291660D01*
X21599Y1292835D01*
X21595Y1292842D01*
X21599Y1292846D01*
X21442Y1294186D01*
X21437Y1294192D01*
X21440Y1294197D01*
X20989Y1295468D01*
X20982Y1295473D01*
X20984Y1295478D01*
X20262Y1296617D01*
X20254Y1296620D01*
X20255Y1296626D01*
X19297Y1297576D01*
X19289Y1297577D01*
X19288Y1297583D01*
X18143Y1298296D01*
X18135Y1298295D01*
X18133Y1298301D01*
X16857Y1298741D01*
X16850Y1298739D01*
X16847Y1298743D01*
X15505Y1298889D01*
X15502Y1298887D01*
X15500Y1298889D01*
X9500Y1298889D01*
X9497Y1298887D01*
X9494Y1298889D01*
X8165Y1298734D01*
X8159Y1298728D01*
X8155Y1298731D01*
X6894Y1298284D01*
X6889Y1298277D01*
X6884Y1298279D01*
X5754Y1297562D01*
X5751Y1297555D01*
X5745Y1297556D01*
X4803Y1296606D01*
X4802Y1296597D01*
X4796Y1296597D01*
X4089Y1295461D01*
X4090Y1295453D01*
X4084Y1295451D01*
X3648Y1294186D01*
X3650Y1294178D01*
X3645Y1294176D01*
X3501Y1292845D01*
X3505Y1292839D01*
X3501Y1292835D01*
X3611Y1291669D01*
X3616Y1291664D01*
X3613Y1291660D01*
X3948Y1290537D01*
X3954Y1290533D01*
X3952Y1290529D01*
X4500Y1289493D01*
X4506Y1289490D01*
X4505Y1289485D01*
X5244Y1288577D01*
X5251Y1288575D01*
X5251Y1288570D01*
X6153Y1287823D01*
X6161Y1287823D01*
X6161Y1287818D01*
X7192Y1287261D01*
X7199Y1287262D01*
X7201Y1287257D01*
X8320Y1286913D01*
X8327Y1286915D01*
X8330Y1286911D01*
X9495Y1286791D01*
X9498Y1286793D01*
X9500Y1286791D01*
X15500Y1286791D01*
X15503Y1286793D01*
G37*
G36*
X655583Y1286793D02*
X655583Y1286793D01*
X655585Y1286791D01*
X656761Y1286902D01*
X656766Y1286907D01*
X656770Y1286904D01*
X657902Y1287242D01*
X657906Y1287248D01*
X657911Y1287246D01*
X658955Y1287798D01*
X658958Y1287805D01*
X658963Y1287803D01*
X659879Y1288549D01*
X659880Y1288556D01*
X659886Y1288556D01*
X660639Y1289466D01*
X660639Y1289473D01*
X660644Y1289474D01*
X661205Y1290513D01*
X661204Y1290518D01*
X661208Y1290520D01*
X661207Y1290521D01*
X661209Y1290522D01*
X661556Y1291651D01*
X661556Y1291652D01*
X661557Y1291653D01*
X661554Y1291657D01*
X661558Y1291660D01*
X661679Y1292835D01*
X661675Y1292842D01*
X661679Y1292846D01*
X661522Y1294186D01*
X661517Y1294192D01*
X661520Y1294197D01*
X661069Y1295468D01*
X661062Y1295473D01*
X661064Y1295478D01*
X660342Y1296617D01*
X660334Y1296620D01*
X660335Y1296626D01*
X659377Y1297576D01*
X659369Y1297577D01*
X659368Y1297583D01*
X658223Y1298296D01*
X658215Y1298295D01*
X658213Y1298301D01*
X656937Y1298741D01*
X656930Y1298739D01*
X656927Y1298743D01*
X655585Y1298889D01*
X655582Y1298887D01*
X655580Y1298889D01*
X649580Y1298889D01*
X649577Y1298887D01*
X649574Y1298889D01*
X648245Y1298734D01*
X648239Y1298728D01*
X648235Y1298731D01*
X646974Y1298284D01*
X646969Y1298277D01*
X646964Y1298279D01*
X645834Y1297562D01*
X645831Y1297555D01*
X645825Y1297556D01*
X644883Y1296606D01*
X644882Y1296597D01*
X644876Y1296597D01*
X644169Y1295461D01*
X644170Y1295453D01*
X644164Y1295451D01*
X643728Y1294186D01*
X643730Y1294178D01*
X643725Y1294176D01*
X643581Y1292845D01*
X643585Y1292839D01*
X643581Y1292835D01*
X643691Y1291669D01*
X643696Y1291664D01*
X643693Y1291660D01*
X644028Y1290537D01*
X644034Y1290533D01*
X644032Y1290529D01*
X644580Y1289493D01*
X644586Y1289490D01*
X644585Y1289485D01*
X645324Y1288577D01*
X645331Y1288575D01*
X645331Y1288570D01*
X646233Y1287823D01*
X646241Y1287823D01*
X646241Y1287818D01*
X647272Y1287261D01*
X647279Y1287262D01*
X647281Y1287257D01*
X648400Y1286913D01*
X648407Y1286915D01*
X648410Y1286911D01*
X649575Y1286791D01*
X649578Y1286793D01*
X649580Y1286791D01*
X655580Y1286791D01*
X655583Y1286793D01*
G37*
G36*
X15503Y961713D02*
X15503Y961713D01*
X15505Y961711D01*
X16681Y961822D01*
X16686Y961827D01*
X16690Y961824D01*
X17822Y962162D01*
X17826Y962168D01*
X17831Y962166D01*
X18875Y962718D01*
X18878Y962725D01*
X18883Y962723D01*
X19799Y963469D01*
X19800Y963476D01*
X19806Y963476D01*
X20559Y964386D01*
X20559Y964393D01*
X20564Y964394D01*
X21125Y965433D01*
X21124Y965438D01*
X21128Y965440D01*
X21127Y965441D01*
X21129Y965442D01*
X21476Y966571D01*
X21476Y966572D01*
X21477Y966573D01*
X21474Y966577D01*
X21478Y966580D01*
X21599Y967755D01*
X21595Y967762D01*
X21599Y967766D01*
X21442Y969106D01*
X21437Y969112D01*
X21440Y969117D01*
X20989Y970388D01*
X20982Y970393D01*
X20984Y970398D01*
X20262Y971537D01*
X20254Y971540D01*
X20255Y971546D01*
X19297Y972496D01*
X19289Y972497D01*
X19288Y972503D01*
X18143Y973216D01*
X18135Y973215D01*
X18133Y973221D01*
X16857Y973661D01*
X16850Y973659D01*
X16847Y973663D01*
X15505Y973809D01*
X15502Y973807D01*
X15500Y973809D01*
X9500Y973809D01*
X9497Y973807D01*
X9494Y973809D01*
X8165Y973654D01*
X8159Y973648D01*
X8155Y973651D01*
X6894Y973204D01*
X6889Y973197D01*
X6884Y973199D01*
X5754Y972482D01*
X5751Y972475D01*
X5745Y972476D01*
X4803Y971526D01*
X4802Y971517D01*
X4796Y971517D01*
X4089Y970381D01*
X4090Y970373D01*
X4084Y970371D01*
X3648Y969106D01*
X3650Y969098D01*
X3645Y969096D01*
X3501Y967765D01*
X3505Y967759D01*
X3501Y967755D01*
X3611Y966589D01*
X3616Y966584D01*
X3613Y966580D01*
X3948Y965457D01*
X3954Y965453D01*
X3952Y965449D01*
X4500Y964413D01*
X4506Y964410D01*
X4505Y964405D01*
X5244Y963497D01*
X5251Y963495D01*
X5251Y963490D01*
X6153Y962743D01*
X6161Y962743D01*
X6161Y962738D01*
X7192Y962181D01*
X7199Y962182D01*
X7201Y962177D01*
X8320Y961833D01*
X8327Y961835D01*
X8330Y961831D01*
X9495Y961711D01*
X9498Y961713D01*
X9500Y961711D01*
X15500Y961711D01*
X15503Y961713D01*
G37*
G36*
X655583Y961713D02*
X655583Y961713D01*
X655585Y961711D01*
X656761Y961822D01*
X656766Y961827D01*
X656770Y961824D01*
X657902Y962162D01*
X657906Y962168D01*
X657911Y962166D01*
X658955Y962718D01*
X658958Y962725D01*
X658963Y962723D01*
X659879Y963469D01*
X659880Y963476D01*
X659886Y963476D01*
X660639Y964386D01*
X660639Y964393D01*
X660644Y964394D01*
X661205Y965433D01*
X661204Y965438D01*
X661208Y965440D01*
X661207Y965441D01*
X661209Y965442D01*
X661556Y966571D01*
X661556Y966572D01*
X661557Y966573D01*
X661554Y966577D01*
X661558Y966580D01*
X661679Y967755D01*
X661675Y967762D01*
X661679Y967766D01*
X661522Y969106D01*
X661517Y969112D01*
X661520Y969117D01*
X661069Y970388D01*
X661062Y970393D01*
X661064Y970398D01*
X660342Y971537D01*
X660334Y971540D01*
X660335Y971546D01*
X659377Y972496D01*
X659369Y972497D01*
X659368Y972503D01*
X658223Y973216D01*
X658215Y973215D01*
X658213Y973221D01*
X656937Y973661D01*
X656930Y973659D01*
X656927Y973663D01*
X655585Y973809D01*
X655582Y973807D01*
X655580Y973809D01*
X649580Y973809D01*
X649577Y973807D01*
X649574Y973809D01*
X648245Y973654D01*
X648239Y973648D01*
X648235Y973651D01*
X646974Y973204D01*
X646969Y973197D01*
X646964Y973199D01*
X645834Y972482D01*
X645831Y972475D01*
X645825Y972476D01*
X644883Y971526D01*
X644882Y971517D01*
X644876Y971517D01*
X644169Y970381D01*
X644170Y970373D01*
X644164Y970371D01*
X643728Y969106D01*
X643730Y969098D01*
X643725Y969096D01*
X643581Y967765D01*
X643585Y967759D01*
X643581Y967755D01*
X643691Y966589D01*
X643696Y966584D01*
X643693Y966580D01*
X644028Y965457D01*
X644034Y965453D01*
X644032Y965449D01*
X644580Y964413D01*
X644586Y964410D01*
X644585Y964405D01*
X645324Y963497D01*
X645331Y963495D01*
X645331Y963490D01*
X646233Y962743D01*
X646241Y962743D01*
X646241Y962738D01*
X647272Y962181D01*
X647279Y962182D01*
X647281Y962177D01*
X648400Y961833D01*
X648407Y961835D01*
X648410Y961831D01*
X649575Y961711D01*
X649578Y961713D01*
X649580Y961711D01*
X655580Y961711D01*
X655583Y961713D01*
G37*
G36*
X15503Y875313D02*
X15503Y875313D01*
X15505Y875311D01*
X16681Y875422D01*
X16686Y875427D01*
X16690Y875424D01*
X17822Y875762D01*
X17826Y875768D01*
X17831Y875766D01*
X18875Y876318D01*
X18878Y876325D01*
X18883Y876323D01*
X19799Y877069D01*
X19800Y877076D01*
X19806Y877076D01*
X20559Y877986D01*
X20559Y877993D01*
X20564Y877994D01*
X21125Y879033D01*
X21124Y879038D01*
X21128Y879040D01*
X21127Y879041D01*
X21129Y879042D01*
X21476Y880171D01*
X21476Y880172D01*
X21477Y880173D01*
X21474Y880177D01*
X21478Y880180D01*
X21599Y881355D01*
X21595Y881362D01*
X21599Y881366D01*
X21442Y882706D01*
X21437Y882712D01*
X21440Y882717D01*
X20989Y883988D01*
X20982Y883993D01*
X20984Y883998D01*
X20262Y885137D01*
X20254Y885140D01*
X20255Y885146D01*
X19297Y886096D01*
X19289Y886097D01*
X19288Y886103D01*
X18143Y886816D01*
X18135Y886815D01*
X18133Y886821D01*
X16857Y887261D01*
X16850Y887259D01*
X16847Y887263D01*
X15505Y887409D01*
X15502Y887407D01*
X15500Y887409D01*
X9500Y887409D01*
X9497Y887407D01*
X9494Y887409D01*
X8165Y887254D01*
X8159Y887248D01*
X8155Y887251D01*
X6894Y886804D01*
X6889Y886797D01*
X6884Y886799D01*
X5754Y886082D01*
X5751Y886075D01*
X5745Y886076D01*
X4803Y885126D01*
X4802Y885117D01*
X4796Y885117D01*
X4089Y883981D01*
X4090Y883973D01*
X4084Y883971D01*
X3648Y882706D01*
X3650Y882698D01*
X3645Y882696D01*
X3501Y881365D01*
X3505Y881359D01*
X3501Y881355D01*
X3611Y880189D01*
X3616Y880184D01*
X3613Y880180D01*
X3948Y879057D01*
X3954Y879053D01*
X3952Y879049D01*
X4500Y878013D01*
X4506Y878010D01*
X4505Y878005D01*
X5244Y877097D01*
X5251Y877095D01*
X5251Y877090D01*
X6153Y876343D01*
X6161Y876343D01*
X6161Y876338D01*
X7192Y875781D01*
X7199Y875782D01*
X7201Y875777D01*
X8320Y875433D01*
X8327Y875435D01*
X8330Y875431D01*
X9495Y875311D01*
X9498Y875313D01*
X9500Y875311D01*
X15500Y875311D01*
X15503Y875313D01*
G37*
G36*
X655583Y875313D02*
X655583Y875313D01*
X655585Y875311D01*
X656761Y875422D01*
X656766Y875427D01*
X656770Y875424D01*
X657902Y875762D01*
X657906Y875768D01*
X657911Y875766D01*
X658955Y876318D01*
X658958Y876325D01*
X658963Y876323D01*
X659879Y877069D01*
X659880Y877076D01*
X659886Y877076D01*
X660639Y877986D01*
X660639Y877993D01*
X660644Y877994D01*
X661205Y879033D01*
X661204Y879038D01*
X661208Y879040D01*
X661207Y879041D01*
X661209Y879042D01*
X661556Y880171D01*
X661556Y880172D01*
X661557Y880173D01*
X661554Y880177D01*
X661558Y880180D01*
X661679Y881355D01*
X661675Y881362D01*
X661679Y881366D01*
X661522Y882706D01*
X661517Y882712D01*
X661520Y882717D01*
X661069Y883988D01*
X661062Y883993D01*
X661064Y883998D01*
X660342Y885137D01*
X660334Y885140D01*
X660335Y885146D01*
X659377Y886096D01*
X659369Y886097D01*
X659368Y886103D01*
X658223Y886816D01*
X658215Y886815D01*
X658213Y886821D01*
X656937Y887261D01*
X656930Y887259D01*
X656927Y887263D01*
X655585Y887409D01*
X655582Y887407D01*
X655580Y887409D01*
X649580Y887409D01*
X649577Y887407D01*
X649574Y887409D01*
X648245Y887254D01*
X648239Y887248D01*
X648235Y887251D01*
X646974Y886804D01*
X646969Y886797D01*
X646964Y886799D01*
X645834Y886082D01*
X645831Y886075D01*
X645825Y886076D01*
X644883Y885126D01*
X644882Y885117D01*
X644876Y885117D01*
X644169Y883981D01*
X644170Y883973D01*
X644164Y883971D01*
X643728Y882706D01*
X643730Y882698D01*
X643725Y882696D01*
X643581Y881365D01*
X643585Y881359D01*
X643581Y881355D01*
X643691Y880189D01*
X643696Y880184D01*
X643693Y880180D01*
X644028Y879057D01*
X644034Y879053D01*
X644032Y879049D01*
X644580Y878013D01*
X644586Y878010D01*
X644585Y878005D01*
X645324Y877097D01*
X645331Y877095D01*
X645331Y877090D01*
X646233Y876343D01*
X646241Y876343D01*
X646241Y876338D01*
X647272Y875781D01*
X647279Y875782D01*
X647281Y875777D01*
X648400Y875433D01*
X648407Y875435D01*
X648410Y875431D01*
X649575Y875311D01*
X649578Y875313D01*
X649580Y875311D01*
X655580Y875311D01*
X655583Y875313D01*
G37*
G36*
X655583Y550233D02*
X655583Y550233D01*
X655585Y550231D01*
X656761Y550342D01*
X656766Y550347D01*
X656770Y550344D01*
X657902Y550682D01*
X657906Y550688D01*
X657911Y550686D01*
X658955Y551238D01*
X658958Y551245D01*
X658963Y551243D01*
X659879Y551989D01*
X659880Y551996D01*
X659886Y551996D01*
X660639Y552906D01*
X660639Y552913D01*
X660644Y552914D01*
X661205Y553953D01*
X661204Y553958D01*
X661208Y553960D01*
X661207Y553961D01*
X661209Y553962D01*
X661556Y555091D01*
X661556Y555092D01*
X661557Y555093D01*
X661554Y555097D01*
X661558Y555100D01*
X661679Y556275D01*
X661675Y556282D01*
X661679Y556286D01*
X661522Y557626D01*
X661517Y557632D01*
X661520Y557637D01*
X661069Y558908D01*
X661062Y558913D01*
X661064Y558918D01*
X660342Y560057D01*
X660334Y560060D01*
X660335Y560066D01*
X659377Y561016D01*
X659369Y561017D01*
X659368Y561023D01*
X658223Y561736D01*
X658215Y561735D01*
X658213Y561741D01*
X656937Y562181D01*
X656930Y562179D01*
X656927Y562183D01*
X655585Y562329D01*
X655582Y562327D01*
X655580Y562329D01*
X649580Y562329D01*
X649577Y562327D01*
X649574Y562329D01*
X648245Y562174D01*
X648239Y562168D01*
X648235Y562171D01*
X646974Y561724D01*
X646969Y561717D01*
X646964Y561719D01*
X645834Y561002D01*
X645831Y560995D01*
X645825Y560996D01*
X644883Y560046D01*
X644882Y560037D01*
X644876Y560037D01*
X644169Y558901D01*
X644170Y558893D01*
X644164Y558891D01*
X643728Y557626D01*
X643730Y557618D01*
X643725Y557616D01*
X643581Y556285D01*
X643585Y556279D01*
X643581Y556275D01*
X643691Y555109D01*
X643696Y555104D01*
X643693Y555100D01*
X644028Y553977D01*
X644034Y553973D01*
X644032Y553969D01*
X644580Y552933D01*
X644586Y552930D01*
X644585Y552925D01*
X645324Y552017D01*
X645331Y552015D01*
X645331Y552010D01*
X646233Y551263D01*
X646241Y551263D01*
X646241Y551258D01*
X647272Y550701D01*
X647279Y550702D01*
X647281Y550697D01*
X648400Y550353D01*
X648407Y550355D01*
X648410Y550351D01*
X649575Y550231D01*
X649578Y550233D01*
X649580Y550231D01*
X655580Y550231D01*
X655583Y550233D01*
G37*
G36*
X655583Y463833D02*
X655583Y463833D01*
X655585Y463831D01*
X656761Y463942D01*
X656766Y463947D01*
X656770Y463944D01*
X657902Y464282D01*
X657906Y464288D01*
X657911Y464286D01*
X658955Y464838D01*
X658958Y464845D01*
X658963Y464843D01*
X659879Y465589D01*
X659880Y465596D01*
X659886Y465596D01*
X660639Y466506D01*
X660639Y466513D01*
X660644Y466514D01*
X661205Y467553D01*
X661204Y467558D01*
X661208Y467560D01*
X661207Y467561D01*
X661209Y467562D01*
X661556Y468691D01*
X661556Y468692D01*
X661557Y468693D01*
X661554Y468697D01*
X661558Y468700D01*
X661679Y469875D01*
X661675Y469882D01*
X661679Y469886D01*
X661522Y471226D01*
X661517Y471232D01*
X661520Y471237D01*
X661069Y472508D01*
X661062Y472513D01*
X661064Y472518D01*
X660342Y473657D01*
X660334Y473660D01*
X660335Y473666D01*
X659377Y474616D01*
X659369Y474617D01*
X659368Y474623D01*
X658223Y475336D01*
X658215Y475335D01*
X658213Y475341D01*
X656937Y475781D01*
X656930Y475779D01*
X656927Y475783D01*
X655585Y475929D01*
X655582Y475927D01*
X655580Y475929D01*
X649580Y475929D01*
X649577Y475927D01*
X649574Y475929D01*
X648245Y475774D01*
X648239Y475768D01*
X648235Y475771D01*
X646974Y475324D01*
X646969Y475317D01*
X646964Y475319D01*
X645834Y474602D01*
X645831Y474595D01*
X645825Y474596D01*
X644883Y473646D01*
X644882Y473637D01*
X644876Y473637D01*
X644169Y472501D01*
X644170Y472493D01*
X644164Y472491D01*
X643728Y471226D01*
X643730Y471218D01*
X643725Y471216D01*
X643581Y469885D01*
X643585Y469879D01*
X643581Y469875D01*
X643691Y468709D01*
X643696Y468704D01*
X643693Y468700D01*
X644028Y467577D01*
X644034Y467573D01*
X644032Y467569D01*
X644580Y466533D01*
X644586Y466530D01*
X644585Y466525D01*
X645324Y465617D01*
X645331Y465615D01*
X645331Y465610D01*
X646233Y464863D01*
X646241Y464863D01*
X646241Y464858D01*
X647272Y464301D01*
X647279Y464302D01*
X647281Y464297D01*
X648400Y463953D01*
X648407Y463955D01*
X648410Y463951D01*
X649575Y463831D01*
X649578Y463833D01*
X649580Y463831D01*
X655580Y463831D01*
X655583Y463833D01*
G37*
G36*
X15503Y463833D02*
X15503Y463833D01*
X15505Y463831D01*
X16681Y463942D01*
X16686Y463947D01*
X16690Y463944D01*
X17822Y464282D01*
X17826Y464288D01*
X17831Y464286D01*
X18875Y464838D01*
X18878Y464845D01*
X18883Y464843D01*
X19799Y465589D01*
X19800Y465596D01*
X19806Y465596D01*
X20559Y466506D01*
X20559Y466513D01*
X20564Y466514D01*
X21125Y467553D01*
X21124Y467558D01*
X21128Y467560D01*
X21127Y467561D01*
X21129Y467562D01*
X21476Y468691D01*
X21476Y468692D01*
X21477Y468693D01*
X21474Y468697D01*
X21478Y468700D01*
X21599Y469875D01*
X21595Y469882D01*
X21599Y469886D01*
X21442Y471226D01*
X21437Y471232D01*
X21440Y471237D01*
X20989Y472508D01*
X20982Y472513D01*
X20984Y472518D01*
X20262Y473657D01*
X20254Y473660D01*
X20255Y473666D01*
X19297Y474616D01*
X19289Y474617D01*
X19288Y474623D01*
X18143Y475336D01*
X18135Y475335D01*
X18133Y475341D01*
X16857Y475781D01*
X16850Y475779D01*
X16847Y475783D01*
X15505Y475929D01*
X15502Y475927D01*
X15500Y475929D01*
X9500Y475929D01*
X9497Y475927D01*
X9494Y475929D01*
X8165Y475774D01*
X8159Y475768D01*
X8155Y475771D01*
X6894Y475324D01*
X6889Y475317D01*
X6884Y475319D01*
X5754Y474602D01*
X5751Y474595D01*
X5745Y474596D01*
X4803Y473646D01*
X4802Y473637D01*
X4796Y473637D01*
X4089Y472501D01*
X4090Y472493D01*
X4084Y472491D01*
X3648Y471226D01*
X3650Y471218D01*
X3645Y471216D01*
X3501Y469885D01*
X3505Y469879D01*
X3501Y469875D01*
X3611Y468709D01*
X3616Y468704D01*
X3613Y468700D01*
X3948Y467577D01*
X3954Y467573D01*
X3952Y467569D01*
X4500Y466533D01*
X4506Y466530D01*
X4505Y466525D01*
X5244Y465617D01*
X5251Y465615D01*
X5251Y465610D01*
X6153Y464863D01*
X6161Y464863D01*
X6161Y464858D01*
X7192Y464301D01*
X7199Y464302D01*
X7201Y464297D01*
X8320Y463953D01*
X8327Y463955D01*
X8330Y463951D01*
X9495Y463831D01*
X9498Y463833D01*
X9500Y463831D01*
X15500Y463831D01*
X15503Y463833D01*
G37*
G36*
X15503Y550233D02*
X15503Y550233D01*
X15505Y550231D01*
X16681Y550342D01*
X16686Y550347D01*
X16690Y550344D01*
X17822Y550682D01*
X17826Y550688D01*
X17831Y550686D01*
X18875Y551238D01*
X18878Y551245D01*
X18883Y551243D01*
X19799Y551989D01*
X19800Y551996D01*
X19806Y551996D01*
X20559Y552906D01*
X20559Y552913D01*
X20564Y552914D01*
X21125Y553953D01*
X21124Y553958D01*
X21128Y553960D01*
X21127Y553961D01*
X21129Y553962D01*
X21476Y555091D01*
X21476Y555092D01*
X21477Y555093D01*
X21474Y555097D01*
X21478Y555100D01*
X21599Y556275D01*
X21595Y556282D01*
X21599Y556286D01*
X21442Y557626D01*
X21437Y557632D01*
X21440Y557637D01*
X20989Y558908D01*
X20982Y558913D01*
X20984Y558918D01*
X20262Y560057D01*
X20254Y560060D01*
X20255Y560066D01*
X19297Y561016D01*
X19289Y561017D01*
X19288Y561023D01*
X18143Y561736D01*
X18135Y561735D01*
X18133Y561741D01*
X16857Y562181D01*
X16850Y562179D01*
X16847Y562183D01*
X15505Y562329D01*
X15502Y562327D01*
X15500Y562329D01*
X9500Y562329D01*
X9497Y562327D01*
X9494Y562329D01*
X8165Y562174D01*
X8159Y562168D01*
X8155Y562171D01*
X6894Y561724D01*
X6889Y561717D01*
X6884Y561719D01*
X5754Y561002D01*
X5751Y560995D01*
X5745Y560996D01*
X4803Y560046D01*
X4802Y560037D01*
X4796Y560037D01*
X4089Y558901D01*
X4090Y558893D01*
X4084Y558891D01*
X3648Y557626D01*
X3650Y557618D01*
X3645Y557616D01*
X3501Y556285D01*
X3505Y556279D01*
X3501Y556275D01*
X3611Y555109D01*
X3616Y555104D01*
X3613Y555100D01*
X3948Y553977D01*
X3954Y553973D01*
X3952Y553969D01*
X4500Y552933D01*
X4506Y552930D01*
X4505Y552925D01*
X5244Y552017D01*
X5251Y552015D01*
X5251Y552010D01*
X6153Y551263D01*
X6161Y551263D01*
X6161Y551258D01*
X7192Y550701D01*
X7199Y550702D01*
X7201Y550697D01*
X8320Y550353D01*
X8327Y550355D01*
X8330Y550351D01*
X9495Y550231D01*
X9498Y550233D01*
X9500Y550231D01*
X15500Y550231D01*
X15503Y550233D01*
G37*
G36*
X655583Y138753D02*
X655583Y138753D01*
X655585Y138751D01*
X656761Y138862D01*
X656766Y138867D01*
X656770Y138864D01*
X657902Y139202D01*
X657906Y139208D01*
X657911Y139206D01*
X658955Y139758D01*
X658958Y139765D01*
X658963Y139763D01*
X659879Y140509D01*
X659880Y140516D01*
X659886Y140516D01*
X660639Y141426D01*
X660639Y141433D01*
X660644Y141434D01*
X661205Y142473D01*
X661204Y142478D01*
X661208Y142480D01*
X661207Y142481D01*
X661209Y142482D01*
X661556Y143611D01*
X661556Y143612D01*
X661557Y143613D01*
X661554Y143617D01*
X661558Y143620D01*
X661679Y144795D01*
X661675Y144802D01*
X661679Y144806D01*
X661522Y146146D01*
X661517Y146152D01*
X661520Y146157D01*
X661069Y147428D01*
X661062Y147433D01*
X661064Y147438D01*
X660342Y148577D01*
X660334Y148580D01*
X660335Y148586D01*
X659377Y149536D01*
X659369Y149537D01*
X659368Y149543D01*
X658223Y150256D01*
X658215Y150255D01*
X658213Y150261D01*
X656937Y150701D01*
X656930Y150699D01*
X656927Y150703D01*
X655585Y150849D01*
X655582Y150847D01*
X655580Y150849D01*
X649580Y150849D01*
X649577Y150847D01*
X649574Y150849D01*
X648245Y150694D01*
X648239Y150688D01*
X648235Y150691D01*
X646974Y150244D01*
X646969Y150237D01*
X646964Y150239D01*
X645834Y149522D01*
X645831Y149515D01*
X645825Y149516D01*
X644883Y148566D01*
X644882Y148557D01*
X644876Y148557D01*
X644169Y147421D01*
X644170Y147413D01*
X644164Y147411D01*
X643728Y146146D01*
X643730Y146138D01*
X643725Y146136D01*
X643581Y144805D01*
X643585Y144799D01*
X643581Y144795D01*
X643691Y143629D01*
X643696Y143624D01*
X643693Y143620D01*
X644028Y142497D01*
X644034Y142493D01*
X644032Y142489D01*
X644580Y141453D01*
X644586Y141450D01*
X644585Y141445D01*
X645324Y140537D01*
X645331Y140535D01*
X645331Y140530D01*
X646233Y139783D01*
X646241Y139783D01*
X646241Y139778D01*
X647272Y139221D01*
X647279Y139222D01*
X647281Y139217D01*
X648400Y138873D01*
X648407Y138875D01*
X648410Y138871D01*
X649575Y138751D01*
X649578Y138753D01*
X649580Y138751D01*
X655580Y138751D01*
X655583Y138753D01*
G37*
G36*
X15503Y138753D02*
X15503Y138753D01*
X15505Y138751D01*
X16681Y138862D01*
X16686Y138867D01*
X16690Y138864D01*
X17822Y139202D01*
X17826Y139208D01*
X17831Y139206D01*
X18875Y139758D01*
X18878Y139765D01*
X18883Y139763D01*
X19799Y140509D01*
X19800Y140516D01*
X19806Y140516D01*
X20559Y141426D01*
X20559Y141433D01*
X20564Y141434D01*
X21125Y142473D01*
X21124Y142478D01*
X21128Y142480D01*
X21127Y142481D01*
X21129Y142482D01*
X21476Y143611D01*
X21476Y143612D01*
X21477Y143613D01*
X21474Y143617D01*
X21478Y143620D01*
X21599Y144795D01*
X21595Y144802D01*
X21599Y144806D01*
X21442Y146146D01*
X21437Y146152D01*
X21440Y146157D01*
X20989Y147428D01*
X20982Y147433D01*
X20984Y147438D01*
X20262Y148577D01*
X20254Y148580D01*
X20255Y148586D01*
X19297Y149536D01*
X19289Y149537D01*
X19288Y149543D01*
X18143Y150256D01*
X18135Y150255D01*
X18133Y150261D01*
X16857Y150701D01*
X16850Y150699D01*
X16847Y150703D01*
X15505Y150849D01*
X15502Y150847D01*
X15500Y150849D01*
X9500Y150849D01*
X9497Y150847D01*
X9494Y150849D01*
X8165Y150694D01*
X8159Y150688D01*
X8155Y150691D01*
X6894Y150244D01*
X6889Y150237D01*
X6884Y150239D01*
X5754Y149522D01*
X5751Y149515D01*
X5745Y149516D01*
X4803Y148566D01*
X4802Y148557D01*
X4796Y148557D01*
X4089Y147421D01*
X4090Y147413D01*
X4084Y147411D01*
X3648Y146146D01*
X3650Y146138D01*
X3645Y146136D01*
X3501Y144805D01*
X3505Y144799D01*
X3501Y144795D01*
X3611Y143629D01*
X3616Y143624D01*
X3613Y143620D01*
X3948Y142497D01*
X3954Y142493D01*
X3952Y142489D01*
X4500Y141453D01*
X4506Y141450D01*
X4505Y141445D01*
X5244Y140537D01*
X5251Y140535D01*
X5251Y140530D01*
X6153Y139783D01*
X6161Y139783D01*
X6161Y139778D01*
X7192Y139221D01*
X7199Y139222D01*
X7201Y139217D01*
X8320Y138873D01*
X8327Y138875D01*
X8330Y138871D01*
X9495Y138751D01*
X9498Y138753D01*
X9500Y138751D01*
X15500Y138751D01*
X15503Y138753D01*
G37*
G36*
X15503Y52353D02*
X15503Y52353D01*
X15505Y52351D01*
X16681Y52462D01*
X16686Y52467D01*
X16690Y52464D01*
X17822Y52802D01*
X17826Y52808D01*
X17831Y52806D01*
X18875Y53358D01*
X18878Y53365D01*
X18883Y53363D01*
X19799Y54109D01*
X19800Y54116D01*
X19806Y54116D01*
X20559Y55026D01*
X20559Y55033D01*
X20564Y55034D01*
X21125Y56073D01*
X21124Y56078D01*
X21128Y56080D01*
X21127Y56081D01*
X21129Y56082D01*
X21476Y57211D01*
X21476Y57212D01*
X21477Y57213D01*
X21474Y57217D01*
X21478Y57220D01*
X21599Y58395D01*
X21595Y58402D01*
X21599Y58406D01*
X21442Y59746D01*
X21437Y59752D01*
X21440Y59757D01*
X20989Y61028D01*
X20982Y61033D01*
X20984Y61038D01*
X20262Y62177D01*
X20254Y62180D01*
X20255Y62186D01*
X19297Y63136D01*
X19289Y63137D01*
X19288Y63143D01*
X18143Y63856D01*
X18135Y63855D01*
X18133Y63861D01*
X16857Y64301D01*
X16850Y64299D01*
X16847Y64303D01*
X15505Y64449D01*
X15502Y64447D01*
X15500Y64449D01*
X9500Y64449D01*
X9497Y64447D01*
X9494Y64449D01*
X8165Y64294D01*
X8159Y64288D01*
X8155Y64291D01*
X6894Y63844D01*
X6889Y63837D01*
X6884Y63839D01*
X5754Y63122D01*
X5751Y63115D01*
X5745Y63116D01*
X4803Y62166D01*
X4802Y62157D01*
X4796Y62157D01*
X4089Y61021D01*
X4090Y61013D01*
X4084Y61011D01*
X3648Y59746D01*
X3650Y59738D01*
X3645Y59736D01*
X3501Y58405D01*
X3505Y58399D01*
X3501Y58395D01*
X3611Y57229D01*
X3616Y57224D01*
X3613Y57220D01*
X3948Y56097D01*
X3954Y56093D01*
X3952Y56089D01*
X4500Y55053D01*
X4506Y55050D01*
X4505Y55045D01*
X5244Y54137D01*
X5251Y54135D01*
X5251Y54130D01*
X6153Y53383D01*
X6161Y53383D01*
X6161Y53378D01*
X7192Y52821D01*
X7199Y52822D01*
X7201Y52817D01*
X8320Y52473D01*
X8327Y52475D01*
X8330Y52471D01*
X9495Y52351D01*
X9498Y52353D01*
X9500Y52351D01*
X15500Y52351D01*
X15503Y52353D01*
G37*
G36*
X655583Y52353D02*
X655583Y52353D01*
X655585Y52351D01*
X656761Y52462D01*
X656766Y52467D01*
X656770Y52464D01*
X657902Y52802D01*
X657906Y52808D01*
X657911Y52806D01*
X658955Y53358D01*
X658958Y53365D01*
X658963Y53363D01*
X659879Y54109D01*
X659880Y54116D01*
X659886Y54116D01*
X660639Y55026D01*
X660639Y55033D01*
X660644Y55034D01*
X661205Y56073D01*
X661204Y56078D01*
X661208Y56080D01*
X661207Y56081D01*
X661209Y56082D01*
X661556Y57211D01*
X661556Y57212D01*
X661557Y57213D01*
X661554Y57217D01*
X661558Y57220D01*
X661679Y58395D01*
X661675Y58402D01*
X661679Y58406D01*
X661522Y59746D01*
X661517Y59752D01*
X661520Y59757D01*
X661069Y61028D01*
X661062Y61033D01*
X661064Y61038D01*
X660342Y62177D01*
X660334Y62180D01*
X660335Y62186D01*
X659377Y63136D01*
X659369Y63137D01*
X659368Y63143D01*
X658223Y63856D01*
X658215Y63855D01*
X658213Y63861D01*
X656937Y64301D01*
X656930Y64299D01*
X656927Y64303D01*
X655585Y64449D01*
X655582Y64447D01*
X655580Y64449D01*
X649580Y64449D01*
X649577Y64447D01*
X649574Y64449D01*
X648245Y64294D01*
X648239Y64288D01*
X648235Y64291D01*
X646974Y63844D01*
X646969Y63837D01*
X646964Y63839D01*
X645834Y63122D01*
X645831Y63115D01*
X645825Y63116D01*
X644883Y62166D01*
X644882Y62157D01*
X644876Y62157D01*
X644169Y61021D01*
X644170Y61013D01*
X644164Y61011D01*
X643728Y59746D01*
X643730Y59738D01*
X643725Y59736D01*
X643581Y58405D01*
X643585Y58399D01*
X643581Y58395D01*
X643691Y57229D01*
X643696Y57224D01*
X643693Y57220D01*
X644028Y56097D01*
X644034Y56093D01*
X644032Y56089D01*
X644580Y55053D01*
X644586Y55050D01*
X644585Y55045D01*
X645324Y54137D01*
X645331Y54135D01*
X645331Y54130D01*
X646233Y53383D01*
X646241Y53383D01*
X646241Y53378D01*
X647272Y52821D01*
X647279Y52822D01*
X647281Y52817D01*
X648400Y52473D01*
X648407Y52475D01*
X648410Y52471D01*
X649575Y52351D01*
X649578Y52353D01*
X649580Y52351D01*
X655580Y52351D01*
X655583Y52353D01*
G37*
D10*
X60100Y94100D03*
X60100Y99100D03*
D11*
X60100Y69350D03*
X60100Y77100D03*
D10*
X60100Y84100D03*
X60100Y89100D03*
X60100Y109100D03*
X60100Y104100D03*
D11*
X60100Y133850D03*
X60100Y126100D03*
D10*
X60100Y119100D03*
X60100Y114100D03*
D12*
X49050Y130500D03*
X49050Y72700D03*
D13*
X76200Y135500D03*
X76200Y118500D03*
X76200Y67700D03*
X76200Y84700D03*
D14*
X91850Y87850D03*
X98350Y87850D03*
X104850Y87850D03*
X111350Y87850D03*
X111350Y115350D03*
X104850Y115350D03*
X98350Y115350D03*
X91850Y115350D03*
D15*
X101600Y101600D03*
D16*
X93100Y139700D03*
X110100Y139700D03*
D17*
X7620Y7620D03*
X601980Y400050D03*
D18*
X584200Y381000D03*
X25400Y381000D03*
X584200Y25400D03*
X25400Y25400D03*
D13*
X541020Y160900D03*
X541020Y143900D03*
D19*
X450500Y349800D03*
D20*
X508000Y369500D03*
X508000Y392500D03*
D13*
X491490Y389500D03*
X491490Y372500D03*
D21*
X595550Y86300D03*
X595550Y142300D03*
D22*
X558800Y99300D03*
X558800Y109300D03*
X558800Y119300D03*
X558800Y129300D03*
D13*
X596900Y156600D03*
X596900Y173600D03*
X574040Y156600D03*
X574040Y173600D03*
D23*
X320040Y22860D03*
X264160Y22860D03*
X320040Y60960D03*
X264160Y60960D03*
D16*
X93100Y154940D03*
X110100Y154940D03*
D24*
X34036Y203200D03*
X42164Y203200D03*
D25*
X23100Y177800D03*
X53100Y177800D03*
D26*
X102900Y177800D03*
X74900Y177800D03*
D13*
X152400Y143900D03*
X152400Y160900D03*
X137160Y160900D03*
X137160Y143900D03*
D27*
X93980Y63500D03*
X119380Y63500D03*
D28*
X158750Y190500D03*
X158750Y203200D03*
X158750Y215900D03*
X158750Y228600D03*
X158750Y177800D03*
X146050Y190500D03*
X146050Y203200D03*
X146050Y215900D03*
X146050Y228600D03*
X146050Y177800D03*
D23*
X243840Y22860D03*
X187960Y22860D03*
X243840Y60960D03*
X187960Y60960D03*
D27*
X342900Y368300D03*
X317500Y368300D03*
X292100Y368300D03*
X266700Y368300D03*
X241300Y368300D03*
X215900Y368300D03*
X215900Y393700D03*
X241300Y393700D03*
X266700Y393700D03*
X292100Y393700D03*
X317500Y393700D03*
X342900Y393700D03*
D29*
X448500Y268000D03*
X448500Y211000D03*
D30*
X580000Y195000D03*
X590000Y326500D03*
D31*
X551500Y279900D03*
X547500Y268900D03*
X551500Y257900D03*
X553500Y246900D03*
X551500Y235900D03*
X553500Y224900D03*
X551500Y213900D03*
X551500Y202900D03*
D27*
X444500Y12700D03*
X469900Y12700D03*
X495300Y12700D03*
X520700Y12700D03*
D32*
X440690Y149860D03*
D13*
X127000Y110100D03*
X127000Y93100D03*
D20*
X146050Y113100D03*
X146050Y90100D03*
D33*
X149200Y292401D03*
X139700Y292401D03*
X130200Y292401D03*
X130200Y266399D03*
X149200Y266399D03*
D13*
X165100Y287900D03*
X165100Y270900D03*
X127000Y309000D03*
X127000Y326000D03*
D16*
X131200Y251460D03*
X148200Y251460D03*
D34*
X106880Y314010D02*
X106880Y320990D01*
X113860Y320990D01*
X113860Y314010D01*
X106880Y314010D01*
X106880Y318810D02*
X113860Y318810D01*
X89340Y320990D02*
X89340Y314010D01*
X89340Y320990D02*
X96320Y320990D01*
X96320Y314010D01*
X89340Y314010D01*
X89340Y318810D02*
X96320Y318810D01*
D13*
X149860Y309000D03*
X149860Y326000D03*
D35*
X75100Y269400D03*
X75100Y289400D03*
D36*
X23100Y245400D03*
X23100Y313400D03*
D27*
X25400Y292100D03*
X25400Y266700D03*
X107950Y228600D03*
X107950Y203200D03*
D20*
X114300Y267900D03*
X114300Y290900D03*
D27*
X190500Y393700D03*
X165100Y393700D03*
X139700Y393700D03*
X114300Y393700D03*
X88900Y393700D03*
X63500Y393700D03*
X342900Y12700D03*
X368300Y12700D03*
X393700Y12700D03*
X419100Y12700D03*
D13*
X139700Y59300D03*
X139700Y42300D03*
X154940Y59300D03*
X154940Y42300D03*
X170180Y59300D03*
X170180Y42300D03*
X541020Y110100D03*
X541020Y93100D03*
D37*
X241300Y90500D03*
D38*
X241300Y290500D03*
D39*
X188550Y98000D03*
D40*
X196300Y87000D03*
X196300Y294000D03*
D39*
X264050Y100500D03*
X188550Y103000D03*
X264050Y105500D03*
X188550Y108000D03*
X264050Y110500D03*
X188550Y113000D03*
X264050Y115500D03*
X188550Y118000D03*
X264050Y120500D03*
X188550Y123000D03*
X264050Y125500D03*
X188550Y128000D03*
X264050Y130500D03*
X188550Y133000D03*
X264050Y135500D03*
X188550Y138000D03*
X264050Y140500D03*
X188550Y143000D03*
X264050Y145500D03*
X188550Y148000D03*
X264050Y150500D03*
X188550Y153000D03*
X264050Y175500D03*
X188550Y178000D03*
X264050Y180500D03*
X188550Y183000D03*
X264050Y185500D03*
X188550Y188000D03*
X264050Y190500D03*
X188550Y193000D03*
X264050Y195500D03*
X188550Y198000D03*
X264050Y200500D03*
X188550Y203000D03*
X264050Y205500D03*
X188550Y208000D03*
X264050Y210500D03*
X188550Y213000D03*
X264050Y215500D03*
X188550Y218000D03*
X264050Y220500D03*
X188550Y223000D03*
X264050Y225500D03*
X188550Y228000D03*
X264050Y230500D03*
X188550Y233000D03*
X264050Y235500D03*
X188550Y238000D03*
X264050Y240500D03*
X188550Y243000D03*
X264050Y245500D03*
X188550Y248000D03*
X264050Y250500D03*
X188550Y253000D03*
X264050Y255500D03*
X188550Y258000D03*
X264050Y260500D03*
X188550Y263000D03*
X264050Y265500D03*
X188550Y268000D03*
X264050Y270500D03*
X188550Y273000D03*
X264050Y275500D03*
X188550Y278000D03*
X264050Y280500D03*
X188550Y283000D03*
D27*
X546100Y12700D03*
D41*
X543400Y371500D03*
X543400Y390500D03*
X522400Y381000D03*
D27*
X254000Y38100D03*
D16*
X67700Y38100D03*
X84700Y38100D03*
D34*
X81480Y28890D02*
X81480Y21910D01*
X81480Y28890D02*
X88460Y28890D01*
X88460Y21910D01*
X81480Y21910D01*
X81480Y26710D02*
X88460Y26710D01*
X63940Y28890D02*
X63940Y21910D01*
X63940Y28890D02*
X70920Y28890D01*
X70920Y21910D01*
X63940Y21910D01*
X63940Y26710D02*
X70920Y26710D01*
D16*
X105800Y38100D03*
X122800Y38100D03*
D34*
X119580Y28890D02*
X119580Y21910D01*
X119580Y28890D02*
X126560Y28890D01*
X126560Y21910D01*
X119580Y21910D01*
X119580Y26710D02*
X126560Y26710D01*
X102040Y28890D02*
X102040Y21910D01*
X102040Y28890D02*
X109020Y28890D01*
X109020Y21910D01*
X102040Y21910D01*
X102040Y26710D02*
X109020Y26710D01*
D16*
X499500Y76200D03*
X516500Y76200D03*
X499500Y127000D03*
X516500Y127000D03*
X482990Y177800D03*
X499990Y177800D03*
D18*
X381000Y381000D03*
D42*
X494999Y111100D03*
X494999Y101600D03*
X494999Y92100D03*
X521001Y92100D03*
X521001Y111100D03*
X494999Y161900D03*
X494999Y152400D03*
X494999Y142900D03*
X521001Y142900D03*
X521001Y161900D03*
D16*
X516010Y177800D03*
X533010Y177800D03*
D10*
X700180Y94100D03*
X700180Y99100D03*
D11*
X700180Y69350D03*
X700180Y77100D03*
D10*
X700180Y84100D03*
X700180Y89100D03*
X700180Y109100D03*
X700180Y104100D03*
D11*
X700180Y133850D03*
X700180Y126100D03*
D10*
X700180Y119100D03*
X700180Y114100D03*
D12*
X689130Y130500D03*
X689130Y72700D03*
D13*
X716280Y135500D03*
X716280Y118500D03*
X716280Y67700D03*
X716280Y84700D03*
D14*
X731930Y87850D03*
X738430Y87850D03*
X744930Y87850D03*
X751430Y87850D03*
X751430Y115350D03*
X744930Y115350D03*
X738430Y115350D03*
X731930Y115350D03*
D15*
X741680Y101600D03*
D16*
X733180Y139700D03*
X750180Y139700D03*
D17*
X647700Y7620D03*
X1242060Y400050D03*
D18*
X1224280Y381000D03*
X665480Y381000D03*
X1224280Y25400D03*
X665480Y25400D03*
D13*
X1181100Y160900D03*
X1181100Y143900D03*
D19*
X1090580Y349800D03*
D20*
X1148080Y369500D03*
X1148080Y392500D03*
D13*
X1131570Y389500D03*
X1131570Y372500D03*
D21*
X1235630Y86300D03*
X1235630Y142300D03*
D22*
X1198880Y99300D03*
X1198880Y109300D03*
X1198880Y119300D03*
X1198880Y129300D03*
D13*
X1236980Y156600D03*
X1236980Y173600D03*
X1214120Y156600D03*
X1214120Y173600D03*
D23*
X960120Y22860D03*
X904240Y22860D03*
X960120Y60960D03*
X904240Y60960D03*
D16*
X733180Y154940D03*
X750180Y154940D03*
D24*
X674116Y203200D03*
X682244Y203200D03*
D25*
X663180Y177800D03*
X693180Y177800D03*
D26*
X742980Y177800D03*
X714980Y177800D03*
D13*
X792480Y143900D03*
X792480Y160900D03*
X777240Y160900D03*
X777240Y143900D03*
D27*
X734060Y63500D03*
X759460Y63500D03*
D28*
X798830Y190500D03*
X798830Y203200D03*
X798830Y215900D03*
X798830Y228600D03*
X798830Y177800D03*
X786130Y190500D03*
X786130Y203200D03*
X786130Y215900D03*
X786130Y228600D03*
X786130Y177800D03*
D23*
X883920Y22860D03*
X828040Y22860D03*
X883920Y60960D03*
X828040Y60960D03*
D27*
X982980Y368300D03*
X957580Y368300D03*
X932180Y368300D03*
X906780Y368300D03*
X881380Y368300D03*
X855980Y368300D03*
X855980Y393700D03*
X881380Y393700D03*
X906780Y393700D03*
X932180Y393700D03*
X957580Y393700D03*
X982980Y393700D03*
D29*
X1088580Y268000D03*
X1088580Y211000D03*
D30*
X1220080Y195000D03*
X1230080Y326500D03*
D31*
X1191580Y279900D03*
X1187580Y268900D03*
X1191580Y257900D03*
X1193580Y246900D03*
X1191580Y235900D03*
X1193580Y224900D03*
X1191580Y213900D03*
X1191580Y202900D03*
D27*
X1084580Y12700D03*
X1109980Y12700D03*
X1135380Y12700D03*
X1160780Y12700D03*
D32*
X1080770Y149860D03*
D13*
X767080Y110100D03*
X767080Y93100D03*
D20*
X786130Y113100D03*
X786130Y90100D03*
D33*
X789280Y292401D03*
X779780Y292401D03*
X770280Y292401D03*
X770280Y266399D03*
X789280Y266399D03*
D13*
X805180Y287900D03*
X805180Y270900D03*
X767080Y309000D03*
X767080Y326000D03*
D16*
X771280Y251460D03*
X788280Y251460D03*
D34*
X746960Y314010D02*
X746960Y320990D01*
X753940Y320990D01*
X753940Y314010D01*
X746960Y314010D01*
X746960Y318810D02*
X753940Y318810D01*
X729420Y320990D02*
X729420Y314010D01*
X729420Y320990D02*
X736400Y320990D01*
X736400Y314010D01*
X729420Y314010D01*
X729420Y318810D02*
X736400Y318810D01*
D13*
X789940Y309000D03*
X789940Y326000D03*
D35*
X715180Y269400D03*
X715180Y289400D03*
D36*
X663180Y245400D03*
X663180Y313400D03*
D27*
X665480Y292100D03*
X665480Y266700D03*
X748030Y228600D03*
X748030Y203200D03*
D20*
X754380Y267900D03*
X754380Y290900D03*
D27*
X830580Y393700D03*
X805180Y393700D03*
X779780Y393700D03*
X754380Y393700D03*
X728980Y393700D03*
X703580Y393700D03*
X982980Y12700D03*
X1008380Y12700D03*
X1033780Y12700D03*
X1059180Y12700D03*
D13*
X779780Y59300D03*
X779780Y42300D03*
X795020Y59300D03*
X795020Y42300D03*
X810260Y59300D03*
X810260Y42300D03*
X1181100Y110100D03*
X1181100Y93100D03*
D37*
X881380Y90500D03*
D38*
X881380Y290500D03*
D39*
X828630Y98000D03*
D40*
X836380Y87000D03*
X836380Y294000D03*
D39*
X904130Y100500D03*
X828630Y103000D03*
X904130Y105500D03*
X828630Y108000D03*
X904130Y110500D03*
X828630Y113000D03*
X904130Y115500D03*
X828630Y118000D03*
X904130Y120500D03*
X828630Y123000D03*
X904130Y125500D03*
X828630Y128000D03*
X904130Y130500D03*
X828630Y133000D03*
X904130Y135500D03*
X828630Y138000D03*
X904130Y140500D03*
X828630Y143000D03*
X904130Y145500D03*
X828630Y148000D03*
X904130Y150500D03*
X828630Y153000D03*
X904130Y175500D03*
X828630Y178000D03*
X904130Y180500D03*
X828630Y183000D03*
X904130Y185500D03*
X828630Y188000D03*
X904130Y190500D03*
X828630Y193000D03*
X904130Y195500D03*
X828630Y198000D03*
X904130Y200500D03*
X828630Y203000D03*
X904130Y205500D03*
X828630Y208000D03*
X904130Y210500D03*
X828630Y213000D03*
X904130Y215500D03*
X828630Y218000D03*
X904130Y220500D03*
X828630Y223000D03*
X904130Y225500D03*
X828630Y228000D03*
X904130Y230500D03*
X828630Y233000D03*
X904130Y235500D03*
X828630Y238000D03*
X904130Y240500D03*
X828630Y243000D03*
X904130Y245500D03*
X828630Y248000D03*
X904130Y250500D03*
X828630Y253000D03*
X904130Y255500D03*
X828630Y258000D03*
X904130Y260500D03*
X828630Y263000D03*
X904130Y265500D03*
X828630Y268000D03*
X904130Y270500D03*
X828630Y273000D03*
X904130Y275500D03*
X828630Y278000D03*
X904130Y280500D03*
X828630Y283000D03*
D27*
X1186180Y12700D03*
D41*
X1183480Y371500D03*
X1183480Y390500D03*
X1162480Y381000D03*
D27*
X894080Y38100D03*
D16*
X707780Y38100D03*
X724780Y38100D03*
D34*
X721560Y28890D02*
X721560Y21910D01*
X721560Y28890D02*
X728540Y28890D01*
X728540Y21910D01*
X721560Y21910D01*
X721560Y26710D02*
X728540Y26710D01*
X704020Y28890D02*
X704020Y21910D01*
X704020Y28890D02*
X711000Y28890D01*
X711000Y21910D01*
X704020Y21910D01*
X704020Y26710D02*
X711000Y26710D01*
D16*
X745880Y38100D03*
X762880Y38100D03*
D34*
X759660Y28890D02*
X759660Y21910D01*
X759660Y28890D02*
X766640Y28890D01*
X766640Y21910D01*
X759660Y21910D01*
X759660Y26710D02*
X766640Y26710D01*
X742120Y28890D02*
X742120Y21910D01*
X742120Y28890D02*
X749100Y28890D01*
X749100Y21910D01*
X742120Y21910D01*
X742120Y26710D02*
X749100Y26710D01*
D16*
X1139580Y76200D03*
X1156580Y76200D03*
X1139580Y127000D03*
X1156580Y127000D03*
X1123070Y177800D03*
X1140070Y177800D03*
D18*
X1021080Y381000D03*
D42*
X1135079Y111100D03*
X1135079Y101600D03*
X1135079Y92100D03*
X1161081Y92100D03*
X1161081Y111100D03*
X1135079Y161900D03*
X1135079Y152400D03*
X1135079Y142900D03*
X1161081Y142900D03*
X1161081Y161900D03*
D16*
X1156090Y177800D03*
X1173090Y177800D03*
D10*
X60100Y505580D03*
X60100Y510580D03*
D11*
X60100Y480830D03*
X60100Y488580D03*
D10*
X60100Y495580D03*
X60100Y500580D03*
X60100Y520580D03*
X60100Y515580D03*
D11*
X60100Y545330D03*
X60100Y537580D03*
D10*
X60100Y530580D03*
X60100Y525580D03*
D12*
X49050Y541980D03*
X49050Y484180D03*
D13*
X76200Y546980D03*
X76200Y529980D03*
X76200Y479180D03*
X76200Y496180D03*
D14*
X91850Y499330D03*
X98350Y499330D03*
X104850Y499330D03*
X111350Y499330D03*
X111350Y526830D03*
X104850Y526830D03*
X98350Y526830D03*
X91850Y526830D03*
D15*
X101600Y513080D03*
D16*
X93100Y551180D03*
X110100Y551180D03*
D17*
X7620Y419100D03*
X601980Y811530D03*
D18*
X584200Y792480D03*
X25400Y792480D03*
X584200Y436880D03*
X25400Y436880D03*
D13*
X541020Y572380D03*
X541020Y555380D03*
D19*
X450500Y761280D03*
D20*
X508000Y780980D03*
X508000Y803980D03*
D13*
X491490Y800980D03*
X491490Y783980D03*
D21*
X595550Y497780D03*
X595550Y553780D03*
D22*
X558800Y510780D03*
X558800Y520780D03*
X558800Y530780D03*
X558800Y540780D03*
D13*
X596900Y568080D03*
X596900Y585080D03*
X574040Y568080D03*
X574040Y585080D03*
D23*
X320040Y434340D03*
X264160Y434340D03*
X320040Y472440D03*
X264160Y472440D03*
D16*
X93100Y566420D03*
X110100Y566420D03*
D24*
X34036Y614680D03*
X42164Y614680D03*
D25*
X23100Y589280D03*
X53100Y589280D03*
D26*
X102900Y589280D03*
X74900Y589280D03*
D13*
X152400Y555380D03*
X152400Y572380D03*
X137160Y572380D03*
X137160Y555380D03*
D27*
X93980Y474980D03*
X119380Y474980D03*
D28*
X158750Y601980D03*
X158750Y614680D03*
X158750Y627380D03*
X158750Y640080D03*
X158750Y589280D03*
X146050Y601980D03*
X146050Y614680D03*
X146050Y627380D03*
X146050Y640080D03*
X146050Y589280D03*
D23*
X243840Y434340D03*
X187960Y434340D03*
X243840Y472440D03*
X187960Y472440D03*
D27*
X342900Y779780D03*
X317500Y779780D03*
X292100Y779780D03*
X266700Y779780D03*
X241300Y779780D03*
X215900Y779780D03*
X215900Y805180D03*
X241300Y805180D03*
X266700Y805180D03*
X292100Y805180D03*
X317500Y805180D03*
X342900Y805180D03*
D29*
X448500Y679480D03*
X448500Y622480D03*
D30*
X580000Y606480D03*
X590000Y737980D03*
D31*
X551500Y691380D03*
X547500Y680380D03*
X551500Y669380D03*
X553500Y658380D03*
X551500Y647380D03*
X553500Y636380D03*
X551500Y625380D03*
X551500Y614380D03*
D27*
X444500Y424180D03*
X469900Y424180D03*
X495300Y424180D03*
X520700Y424180D03*
D32*
X440690Y561340D03*
D13*
X127000Y521580D03*
X127000Y504580D03*
D20*
X146050Y524580D03*
X146050Y501580D03*
D33*
X149200Y703881D03*
X139700Y703881D03*
X130200Y703881D03*
X130200Y677879D03*
X149200Y677879D03*
D13*
X165100Y699380D03*
X165100Y682380D03*
X127000Y720480D03*
X127000Y737480D03*
D16*
X131200Y662940D03*
X148200Y662940D03*
D34*
X106880Y725490D02*
X106880Y732470D01*
X113860Y732470D01*
X113860Y725490D01*
X106880Y725490D01*
X106880Y730290D02*
X113860Y730290D01*
X89340Y732470D02*
X89340Y725490D01*
X89340Y732470D02*
X96320Y732470D01*
X96320Y725490D01*
X89340Y725490D01*
X89340Y730290D02*
X96320Y730290D01*
D13*
X149860Y720480D03*
X149860Y737480D03*
D35*
X75100Y680880D03*
X75100Y700880D03*
D36*
X23100Y656880D03*
X23100Y724880D03*
D27*
X25400Y703580D03*
X25400Y678180D03*
X107950Y640080D03*
X107950Y614680D03*
D20*
X114300Y679380D03*
X114300Y702380D03*
D27*
X190500Y805180D03*
X165100Y805180D03*
X139700Y805180D03*
X114300Y805180D03*
X88900Y805180D03*
X63500Y805180D03*
X342900Y424180D03*
X368300Y424180D03*
X393700Y424180D03*
X419100Y424180D03*
D13*
X139700Y470780D03*
X139700Y453780D03*
X154940Y470780D03*
X154940Y453780D03*
X170180Y470780D03*
X170180Y453780D03*
X541020Y521580D03*
X541020Y504580D03*
D37*
X241300Y501980D03*
D38*
X241300Y701980D03*
D39*
X188550Y509480D03*
D40*
X196300Y498480D03*
X196300Y705480D03*
D39*
X264050Y511980D03*
X188550Y514480D03*
X264050Y516980D03*
X188550Y519480D03*
X264050Y521980D03*
X188550Y524480D03*
X264050Y526980D03*
X188550Y529480D03*
X264050Y531980D03*
X188550Y534480D03*
X264050Y536980D03*
X188550Y539480D03*
X264050Y541980D03*
X188550Y544480D03*
X264050Y546980D03*
X188550Y549480D03*
X264050Y551980D03*
X188550Y554480D03*
X264050Y556980D03*
X188550Y559480D03*
X264050Y561980D03*
X188550Y564480D03*
X264050Y586980D03*
X188550Y589480D03*
X264050Y591980D03*
X188550Y594480D03*
X264050Y596980D03*
X188550Y599480D03*
X264050Y601980D03*
X188550Y604480D03*
X264050Y606980D03*
X188550Y609480D03*
X264050Y611980D03*
X188550Y614480D03*
X264050Y616980D03*
X188550Y619480D03*
X264050Y621980D03*
X188550Y624480D03*
X264050Y626980D03*
X188550Y629480D03*
X264050Y631980D03*
X188550Y634480D03*
X264050Y636980D03*
X188550Y639480D03*
X264050Y641980D03*
X188550Y644480D03*
X264050Y646980D03*
X188550Y649480D03*
X264050Y651980D03*
X188550Y654480D03*
X264050Y656980D03*
X188550Y659480D03*
X264050Y661980D03*
X188550Y664480D03*
X264050Y666980D03*
X188550Y669480D03*
X264050Y671980D03*
X188550Y674480D03*
X264050Y676980D03*
X188550Y679480D03*
X264050Y681980D03*
X188550Y684480D03*
X264050Y686980D03*
X188550Y689480D03*
X264050Y691980D03*
X188550Y694480D03*
D27*
X546100Y424180D03*
D41*
X543400Y782980D03*
X543400Y801980D03*
X522400Y792480D03*
D27*
X254000Y449580D03*
D16*
X67700Y449580D03*
X84700Y449580D03*
D34*
X81480Y440370D02*
X81480Y433390D01*
X81480Y440370D02*
X88460Y440370D01*
X88460Y433390D01*
X81480Y433390D01*
X81480Y438190D02*
X88460Y438190D01*
X63940Y440370D02*
X63940Y433390D01*
X63940Y440370D02*
X70920Y440370D01*
X70920Y433390D01*
X63940Y433390D01*
X63940Y438190D02*
X70920Y438190D01*
D16*
X105800Y449580D03*
X122800Y449580D03*
D34*
X119580Y440370D02*
X119580Y433390D01*
X119580Y440370D02*
X126560Y440370D01*
X126560Y433390D01*
X119580Y433390D01*
X119580Y438190D02*
X126560Y438190D01*
X102040Y440370D02*
X102040Y433390D01*
X102040Y440370D02*
X109020Y440370D01*
X109020Y433390D01*
X102040Y433390D01*
X102040Y438190D02*
X109020Y438190D01*
D16*
X499500Y487680D03*
X516500Y487680D03*
X499500Y538480D03*
X516500Y538480D03*
X482990Y589280D03*
X499990Y589280D03*
D18*
X381000Y792480D03*
D42*
X494999Y522580D03*
X494999Y513080D03*
X494999Y503580D03*
X521001Y503580D03*
X521001Y522580D03*
X494999Y573380D03*
X494999Y563880D03*
X494999Y554380D03*
X521001Y554380D03*
X521001Y573380D03*
D16*
X516010Y589280D03*
X533010Y589280D03*
D10*
X700180Y505580D03*
X700180Y510580D03*
D11*
X700180Y480830D03*
X700180Y488580D03*
D10*
X700180Y495580D03*
X700180Y500580D03*
X700180Y520580D03*
X700180Y515580D03*
D11*
X700180Y545330D03*
X700180Y537580D03*
D10*
X700180Y530580D03*
X700180Y525580D03*
D12*
X689130Y541980D03*
X689130Y484180D03*
D13*
X716280Y546980D03*
X716280Y529980D03*
X716280Y479180D03*
X716280Y496180D03*
D14*
X731930Y499330D03*
X738430Y499330D03*
X744930Y499330D03*
X751430Y499330D03*
X751430Y526830D03*
X744930Y526830D03*
X738430Y526830D03*
X731930Y526830D03*
D15*
X741680Y513080D03*
D16*
X733180Y551180D03*
X750180Y551180D03*
D17*
X647700Y419100D03*
X1242060Y811530D03*
D18*
X1224280Y792480D03*
X665480Y792480D03*
X1224280Y436880D03*
X665480Y436880D03*
D13*
X1181100Y572380D03*
X1181100Y555380D03*
D19*
X1090580Y761280D03*
D20*
X1148080Y780980D03*
X1148080Y803980D03*
D13*
X1131570Y800980D03*
X1131570Y783980D03*
D21*
X1235630Y497780D03*
X1235630Y553780D03*
D22*
X1198880Y510780D03*
X1198880Y520780D03*
X1198880Y530780D03*
X1198880Y540780D03*
D13*
X1236980Y568080D03*
X1236980Y585080D03*
X1214120Y568080D03*
X1214120Y585080D03*
D23*
X960120Y434340D03*
X904240Y434340D03*
X960120Y472440D03*
X904240Y472440D03*
D16*
X733180Y566420D03*
X750180Y566420D03*
D24*
X674116Y614680D03*
X682244Y614680D03*
D25*
X663180Y589280D03*
X693180Y589280D03*
D26*
X742980Y589280D03*
X714980Y589280D03*
D13*
X792480Y555380D03*
X792480Y572380D03*
X777240Y572380D03*
X777240Y555380D03*
D27*
X734060Y474980D03*
X759460Y474980D03*
D28*
X798830Y601980D03*
X798830Y614680D03*
X798830Y627380D03*
X798830Y640080D03*
X798830Y589280D03*
X786130Y601980D03*
X786130Y614680D03*
X786130Y627380D03*
X786130Y640080D03*
X786130Y589280D03*
D23*
X883920Y434340D03*
X828040Y434340D03*
X883920Y472440D03*
X828040Y472440D03*
D27*
X982980Y779780D03*
X957580Y779780D03*
X932180Y779780D03*
X906780Y779780D03*
X881380Y779780D03*
X855980Y779780D03*
X855980Y805180D03*
X881380Y805180D03*
X906780Y805180D03*
X932180Y805180D03*
X957580Y805180D03*
X982980Y805180D03*
D29*
X1088580Y679480D03*
X1088580Y622480D03*
D30*
X1220080Y606480D03*
X1230080Y737980D03*
D31*
X1191580Y691380D03*
X1187580Y680380D03*
X1191580Y669380D03*
X1193580Y658380D03*
X1191580Y647380D03*
X1193580Y636380D03*
X1191580Y625380D03*
X1191580Y614380D03*
D27*
X1084580Y424180D03*
X1109980Y424180D03*
X1135380Y424180D03*
X1160780Y424180D03*
D32*
X1080770Y561340D03*
D13*
X767080Y521580D03*
X767080Y504580D03*
D20*
X786130Y524580D03*
X786130Y501580D03*
D33*
X789280Y703881D03*
X779780Y703881D03*
X770280Y703881D03*
X770280Y677879D03*
X789280Y677879D03*
D13*
X805180Y699380D03*
X805180Y682380D03*
X767080Y720480D03*
X767080Y737480D03*
D16*
X771280Y662940D03*
X788280Y662940D03*
D34*
X746960Y725490D02*
X746960Y732470D01*
X753940Y732470D01*
X753940Y725490D01*
X746960Y725490D01*
X746960Y730290D02*
X753940Y730290D01*
X729420Y732470D02*
X729420Y725490D01*
X729420Y732470D02*
X736400Y732470D01*
X736400Y725490D01*
X729420Y725490D01*
X729420Y730290D02*
X736400Y730290D01*
D13*
X789940Y720480D03*
X789940Y737480D03*
D35*
X715180Y680880D03*
X715180Y700880D03*
D36*
X663180Y656880D03*
X663180Y724880D03*
D27*
X665480Y703580D03*
X665480Y678180D03*
X748030Y640080D03*
X748030Y614680D03*
D20*
X754380Y679380D03*
X754380Y702380D03*
D27*
X830580Y805180D03*
X805180Y805180D03*
X779780Y805180D03*
X754380Y805180D03*
X728980Y805180D03*
X703580Y805180D03*
X982980Y424180D03*
X1008380Y424180D03*
X1033780Y424180D03*
X1059180Y424180D03*
D13*
X779780Y470780D03*
X779780Y453780D03*
X795020Y470780D03*
X795020Y453780D03*
X810260Y470780D03*
X810260Y453780D03*
X1181100Y521580D03*
X1181100Y504580D03*
D37*
X881380Y501980D03*
D38*
X881380Y701980D03*
D39*
X828630Y509480D03*
D40*
X836380Y498480D03*
X836380Y705480D03*
D39*
X904130Y511980D03*
X828630Y514480D03*
X904130Y516980D03*
X828630Y519480D03*
X904130Y521980D03*
X828630Y524480D03*
X904130Y526980D03*
X828630Y529480D03*
X904130Y531980D03*
X828630Y534480D03*
X904130Y536980D03*
X828630Y539480D03*
X904130Y541980D03*
X828630Y544480D03*
X904130Y546980D03*
X828630Y549480D03*
X904130Y551980D03*
X828630Y554480D03*
X904130Y556980D03*
X828630Y559480D03*
X904130Y561980D03*
X828630Y564480D03*
X904130Y586980D03*
X828630Y589480D03*
X904130Y591980D03*
X828630Y594480D03*
X904130Y596980D03*
X828630Y599480D03*
X904130Y601980D03*
X828630Y604480D03*
X904130Y606980D03*
X828630Y609480D03*
X904130Y611980D03*
X828630Y614480D03*
X904130Y616980D03*
X828630Y619480D03*
X904130Y621980D03*
X828630Y624480D03*
X904130Y626980D03*
X828630Y629480D03*
X904130Y631980D03*
X828630Y634480D03*
X904130Y636980D03*
X828630Y639480D03*
X904130Y641980D03*
X828630Y644480D03*
X904130Y646980D03*
X828630Y649480D03*
X904130Y651980D03*
X828630Y654480D03*
X904130Y656980D03*
X828630Y659480D03*
X904130Y661980D03*
X828630Y664480D03*
X904130Y666980D03*
X828630Y669480D03*
X904130Y671980D03*
X828630Y674480D03*
X904130Y676980D03*
X828630Y679480D03*
X904130Y681980D03*
X828630Y684480D03*
X904130Y686980D03*
X828630Y689480D03*
X904130Y691980D03*
X828630Y694480D03*
D27*
X1186180Y424180D03*
D41*
X1183480Y782980D03*
X1183480Y801980D03*
X1162480Y792480D03*
D27*
X894080Y449580D03*
D16*
X707780Y449580D03*
X724780Y449580D03*
D34*
X721560Y440370D02*
X721560Y433390D01*
X721560Y440370D02*
X728540Y440370D01*
X728540Y433390D01*
X721560Y433390D01*
X721560Y438190D02*
X728540Y438190D01*
X704020Y440370D02*
X704020Y433390D01*
X704020Y440370D02*
X711000Y440370D01*
X711000Y433390D01*
X704020Y433390D01*
X704020Y438190D02*
X711000Y438190D01*
D16*
X745880Y449580D03*
X762880Y449580D03*
D34*
X759660Y440370D02*
X759660Y433390D01*
X759660Y440370D02*
X766640Y440370D01*
X766640Y433390D01*
X759660Y433390D01*
X759660Y438190D02*
X766640Y438190D01*
X742120Y440370D02*
X742120Y433390D01*
X742120Y440370D02*
X749100Y440370D01*
X749100Y433390D01*
X742120Y433390D01*
X742120Y438190D02*
X749100Y438190D01*
D16*
X1139580Y487680D03*
X1156580Y487680D03*
X1139580Y538480D03*
X1156580Y538480D03*
X1123070Y589280D03*
X1140070Y589280D03*
D18*
X1021080Y792480D03*
D42*
X1135079Y522580D03*
X1135079Y513080D03*
X1135079Y503580D03*
X1161081Y503580D03*
X1161081Y522580D03*
X1135079Y573380D03*
X1135079Y563880D03*
X1135079Y554380D03*
X1161081Y554380D03*
X1161081Y573380D03*
D16*
X1156090Y589280D03*
X1173090Y589280D03*
D10*
X60100Y917060D03*
X60100Y922060D03*
D11*
X60100Y892310D03*
X60100Y900060D03*
D10*
X60100Y907060D03*
X60100Y912060D03*
X60100Y932060D03*
X60100Y927060D03*
D11*
X60100Y956810D03*
X60100Y949060D03*
D10*
X60100Y942060D03*
X60100Y937060D03*
D12*
X49050Y953460D03*
X49050Y895660D03*
D13*
X76200Y958460D03*
X76200Y941460D03*
X76200Y890660D03*
X76200Y907660D03*
D14*
X91850Y910810D03*
X98350Y910810D03*
X104850Y910810D03*
X111350Y910810D03*
X111350Y938310D03*
X104850Y938310D03*
X98350Y938310D03*
X91850Y938310D03*
D15*
X101600Y924560D03*
D16*
X93100Y962660D03*
X110100Y962660D03*
D17*
X7620Y830580D03*
X601980Y1223010D03*
D18*
X584200Y1203960D03*
X25400Y1203960D03*
X584200Y848360D03*
X25400Y848360D03*
D13*
X541020Y983860D03*
X541020Y966860D03*
D19*
X450500Y1172760D03*
D20*
X508000Y1192460D03*
X508000Y1215460D03*
D13*
X491490Y1212460D03*
X491490Y1195460D03*
D21*
X595550Y909260D03*
X595550Y965260D03*
D22*
X558800Y922260D03*
X558800Y932260D03*
X558800Y942260D03*
X558800Y952260D03*
D13*
X596900Y979560D03*
X596900Y996560D03*
X574040Y979560D03*
X574040Y996560D03*
D23*
X320040Y845820D03*
X264160Y845820D03*
X320040Y883920D03*
X264160Y883920D03*
D16*
X93100Y977900D03*
X110100Y977900D03*
D24*
X34036Y1026160D03*
X42164Y1026160D03*
D25*
X23100Y1000760D03*
X53100Y1000760D03*
D26*
X102900Y1000760D03*
X74900Y1000760D03*
D13*
X152400Y966860D03*
X152400Y983860D03*
X137160Y983860D03*
X137160Y966860D03*
D27*
X93980Y886460D03*
X119380Y886460D03*
D28*
X158750Y1013460D03*
X158750Y1026160D03*
X158750Y1038860D03*
X158750Y1051560D03*
X158750Y1000760D03*
X146050Y1013460D03*
X146050Y1026160D03*
X146050Y1038860D03*
X146050Y1051560D03*
X146050Y1000760D03*
D23*
X243840Y845820D03*
X187960Y845820D03*
X243840Y883920D03*
X187960Y883920D03*
D27*
X342900Y1191260D03*
X317500Y1191260D03*
X292100Y1191260D03*
X266700Y1191260D03*
X241300Y1191260D03*
X215900Y1191260D03*
X215900Y1216660D03*
X241300Y1216660D03*
X266700Y1216660D03*
X292100Y1216660D03*
X317500Y1216660D03*
X342900Y1216660D03*
D29*
X448500Y1090960D03*
X448500Y1033960D03*
D30*
X580000Y1017960D03*
X590000Y1149460D03*
D31*
X551500Y1102860D03*
X547500Y1091860D03*
X551500Y1080860D03*
X553500Y1069860D03*
X551500Y1058860D03*
X553500Y1047860D03*
X551500Y1036860D03*
X551500Y1025860D03*
D27*
X444500Y835660D03*
X469900Y835660D03*
X495300Y835660D03*
X520700Y835660D03*
D32*
X440690Y972820D03*
D13*
X127000Y933060D03*
X127000Y916060D03*
D20*
X146050Y936060D03*
X146050Y913060D03*
D33*
X149200Y1115361D03*
X139700Y1115361D03*
X130200Y1115361D03*
X130200Y1089359D03*
X149200Y1089359D03*
D13*
X165100Y1110860D03*
X165100Y1093860D03*
X127000Y1131960D03*
X127000Y1148960D03*
D16*
X131200Y1074420D03*
X148200Y1074420D03*
D34*
X106880Y1136970D02*
X106880Y1143950D01*
X113860Y1143950D01*
X113860Y1136970D01*
X106880Y1136970D01*
X106880Y1141770D02*
X113860Y1141770D01*
X89340Y1143950D02*
X89340Y1136970D01*
X89340Y1143950D02*
X96320Y1143950D01*
X96320Y1136970D01*
X89340Y1136970D01*
X89340Y1141770D02*
X96320Y1141770D01*
D13*
X149860Y1131960D03*
X149860Y1148960D03*
D35*
X75100Y1092360D03*
X75100Y1112360D03*
D36*
X23100Y1068360D03*
X23100Y1136360D03*
D27*
X25400Y1115060D03*
X25400Y1089660D03*
X107950Y1051560D03*
X107950Y1026160D03*
D20*
X114300Y1090860D03*
X114300Y1113860D03*
D27*
X190500Y1216660D03*
X165100Y1216660D03*
X139700Y1216660D03*
X114300Y1216660D03*
X88900Y1216660D03*
X63500Y1216660D03*
X342900Y835660D03*
X368300Y835660D03*
X393700Y835660D03*
X419100Y835660D03*
D13*
X139700Y882260D03*
X139700Y865260D03*
X154940Y882260D03*
X154940Y865260D03*
X170180Y882260D03*
X170180Y865260D03*
X541020Y933060D03*
X541020Y916060D03*
D37*
X241300Y913460D03*
D38*
X241300Y1113460D03*
D39*
X188550Y920960D03*
D40*
X196300Y909960D03*
X196300Y1116960D03*
D39*
X264050Y923460D03*
X188550Y925960D03*
X264050Y928460D03*
X188550Y930960D03*
X264050Y933460D03*
X188550Y935960D03*
X264050Y938460D03*
X188550Y940960D03*
X264050Y943460D03*
X188550Y945960D03*
X264050Y948460D03*
X188550Y950960D03*
X264050Y953460D03*
X188550Y955960D03*
X264050Y958460D03*
X188550Y960960D03*
X264050Y963460D03*
X188550Y965960D03*
X264050Y968460D03*
X188550Y970960D03*
X264050Y973460D03*
X188550Y975960D03*
X264050Y998460D03*
X188550Y1000960D03*
X264050Y1003460D03*
X188550Y1005960D03*
X264050Y1008460D03*
X188550Y1010960D03*
X264050Y1013460D03*
X188550Y1015960D03*
X264050Y1018460D03*
X188550Y1020960D03*
X264050Y1023460D03*
X188550Y1025960D03*
X264050Y1028460D03*
X188550Y1030960D03*
X264050Y1033460D03*
X188550Y1035960D03*
X264050Y1038460D03*
X188550Y1040960D03*
X264050Y1043460D03*
X188550Y1045960D03*
X264050Y1048460D03*
X188550Y1050960D03*
X264050Y1053460D03*
X188550Y1055960D03*
X264050Y1058460D03*
X188550Y1060960D03*
X264050Y1063460D03*
X188550Y1065960D03*
X264050Y1068460D03*
X188550Y1070960D03*
X264050Y1073460D03*
X188550Y1075960D03*
X264050Y1078460D03*
X188550Y1080960D03*
X264050Y1083460D03*
X188550Y1085960D03*
X264050Y1088460D03*
X188550Y1090960D03*
X264050Y1093460D03*
X188550Y1095960D03*
X264050Y1098460D03*
X188550Y1100960D03*
X264050Y1103460D03*
X188550Y1105960D03*
D27*
X546100Y835660D03*
D41*
X543400Y1194460D03*
X543400Y1213460D03*
X522400Y1203960D03*
D27*
X254000Y861060D03*
D16*
X67700Y861060D03*
X84700Y861060D03*
D34*
X81480Y851850D02*
X81480Y844870D01*
X81480Y851850D02*
X88460Y851850D01*
X88460Y844870D01*
X81480Y844870D01*
X81480Y849670D02*
X88460Y849670D01*
X63940Y851850D02*
X63940Y844870D01*
X63940Y851850D02*
X70920Y851850D01*
X70920Y844870D01*
X63940Y844870D01*
X63940Y849670D02*
X70920Y849670D01*
D16*
X105800Y861060D03*
X122800Y861060D03*
D34*
X119580Y851850D02*
X119580Y844870D01*
X119580Y851850D02*
X126560Y851850D01*
X126560Y844870D01*
X119580Y844870D01*
X119580Y849670D02*
X126560Y849670D01*
X102040Y851850D02*
X102040Y844870D01*
X102040Y851850D02*
X109020Y851850D01*
X109020Y844870D01*
X102040Y844870D01*
X102040Y849670D02*
X109020Y849670D01*
D16*
X499500Y899160D03*
X516500Y899160D03*
X499500Y949960D03*
X516500Y949960D03*
X482990Y1000760D03*
X499990Y1000760D03*
D18*
X381000Y1203960D03*
D42*
X494999Y934060D03*
X494999Y924560D03*
X494999Y915060D03*
X521001Y915060D03*
X521001Y934060D03*
X494999Y984860D03*
X494999Y975360D03*
X494999Y965860D03*
X521001Y965860D03*
X521001Y984860D03*
D16*
X516010Y1000760D03*
X533010Y1000760D03*
D10*
X700180Y917060D03*
X700180Y922060D03*
D11*
X700180Y892310D03*
X700180Y900060D03*
D10*
X700180Y907060D03*
X700180Y912060D03*
X700180Y932060D03*
X700180Y927060D03*
D11*
X700180Y956810D03*
X700180Y949060D03*
D10*
X700180Y942060D03*
X700180Y937060D03*
D12*
X689130Y953460D03*
X689130Y895660D03*
D13*
X716280Y958460D03*
X716280Y941460D03*
X716280Y890660D03*
X716280Y907660D03*
D14*
X731930Y910810D03*
X738430Y910810D03*
X744930Y910810D03*
X751430Y910810D03*
X751430Y938310D03*
X744930Y938310D03*
X738430Y938310D03*
X731930Y938310D03*
D15*
X741680Y924560D03*
D16*
X733180Y962660D03*
X750180Y962660D03*
D17*
X647700Y830580D03*
X1242060Y1223010D03*
D18*
X1224280Y1203960D03*
X665480Y1203960D03*
X1224280Y848360D03*
X665480Y848360D03*
D13*
X1181100Y983860D03*
X1181100Y966860D03*
D19*
X1090580Y1172760D03*
D20*
X1148080Y1192460D03*
X1148080Y1215460D03*
D13*
X1131570Y1212460D03*
X1131570Y1195460D03*
D21*
X1235630Y909260D03*
X1235630Y965260D03*
D22*
X1198880Y922260D03*
X1198880Y932260D03*
X1198880Y942260D03*
X1198880Y952260D03*
D13*
X1236980Y979560D03*
X1236980Y996560D03*
X1214120Y979560D03*
X1214120Y996560D03*
D23*
X960120Y845820D03*
X904240Y845820D03*
X960120Y883920D03*
X904240Y883920D03*
D16*
X733180Y977900D03*
X750180Y977900D03*
D24*
X674116Y1026160D03*
X682244Y1026160D03*
D25*
X663180Y1000760D03*
X693180Y1000760D03*
D26*
X742980Y1000760D03*
X714980Y1000760D03*
D13*
X792480Y966860D03*
X792480Y983860D03*
X777240Y983860D03*
X777240Y966860D03*
D27*
X734060Y886460D03*
X759460Y886460D03*
D28*
X798830Y1013460D03*
X798830Y1026160D03*
X798830Y1038860D03*
X798830Y1051560D03*
X798830Y1000760D03*
X786130Y1013460D03*
X786130Y1026160D03*
X786130Y1038860D03*
X786130Y1051560D03*
X786130Y1000760D03*
D23*
X883920Y845820D03*
X828040Y845820D03*
X883920Y883920D03*
X828040Y883920D03*
D27*
X982980Y1191260D03*
X957580Y1191260D03*
X932180Y1191260D03*
X906780Y1191260D03*
X881380Y1191260D03*
X855980Y1191260D03*
X855980Y1216660D03*
X881380Y1216660D03*
X906780Y1216660D03*
X932180Y1216660D03*
X957580Y1216660D03*
X982980Y1216660D03*
D29*
X1088580Y1090960D03*
X1088580Y1033960D03*
D30*
X1220080Y1017960D03*
X1230080Y1149460D03*
D31*
X1191580Y1102860D03*
X1187580Y1091860D03*
X1191580Y1080860D03*
X1193580Y1069860D03*
X1191580Y1058860D03*
X1193580Y1047860D03*
X1191580Y1036860D03*
X1191580Y1025860D03*
D27*
X1084580Y835660D03*
X1109980Y835660D03*
X1135380Y835660D03*
X1160780Y835660D03*
D32*
X1080770Y972820D03*
D13*
X767080Y933060D03*
X767080Y916060D03*
D20*
X786130Y936060D03*
X786130Y913060D03*
D33*
X789280Y1115361D03*
X779780Y1115361D03*
X770280Y1115361D03*
X770280Y1089359D03*
X789280Y1089359D03*
D13*
X805180Y1110860D03*
X805180Y1093860D03*
X767080Y1131960D03*
X767080Y1148960D03*
D16*
X771280Y1074420D03*
X788280Y1074420D03*
D34*
X746960Y1136970D02*
X746960Y1143950D01*
X753940Y1143950D01*
X753940Y1136970D01*
X746960Y1136970D01*
X746960Y1141770D02*
X753940Y1141770D01*
X729420Y1143950D02*
X729420Y1136970D01*
X729420Y1143950D02*
X736400Y1143950D01*
X736400Y1136970D01*
X729420Y1136970D01*
X729420Y1141770D02*
X736400Y1141770D01*
D13*
X789940Y1131960D03*
X789940Y1148960D03*
D35*
X715180Y1092360D03*
X715180Y1112360D03*
D36*
X663180Y1068360D03*
X663180Y1136360D03*
D27*
X665480Y1115060D03*
X665480Y1089660D03*
X748030Y1051560D03*
X748030Y1026160D03*
D20*
X754380Y1090860D03*
X754380Y1113860D03*
D27*
X830580Y1216660D03*
X805180Y1216660D03*
X779780Y1216660D03*
X754380Y1216660D03*
X728980Y1216660D03*
X703580Y1216660D03*
X982980Y835660D03*
X1008380Y835660D03*
X1033780Y835660D03*
X1059180Y835660D03*
D13*
X779780Y882260D03*
X779780Y865260D03*
X795020Y882260D03*
X795020Y865260D03*
X810260Y882260D03*
X810260Y865260D03*
X1181100Y933060D03*
X1181100Y916060D03*
D37*
X881380Y913460D03*
D38*
X881380Y1113460D03*
D39*
X828630Y920960D03*
D40*
X836380Y909960D03*
X836380Y1116960D03*
D39*
X904130Y923460D03*
X828630Y925960D03*
X904130Y928460D03*
X828630Y930960D03*
X904130Y933460D03*
X828630Y935960D03*
X904130Y938460D03*
X828630Y940960D03*
X904130Y943460D03*
X828630Y945960D03*
X904130Y948460D03*
X828630Y950960D03*
X904130Y953460D03*
X828630Y955960D03*
X904130Y958460D03*
X828630Y960960D03*
X904130Y963460D03*
X828630Y965960D03*
X904130Y968460D03*
X828630Y970960D03*
X904130Y973460D03*
X828630Y975960D03*
X904130Y998460D03*
X828630Y1000960D03*
X904130Y1003460D03*
X828630Y1005960D03*
X904130Y1008460D03*
X828630Y1010960D03*
X904130Y1013460D03*
X828630Y1015960D03*
X904130Y1018460D03*
X828630Y1020960D03*
X904130Y1023460D03*
X828630Y1025960D03*
X904130Y1028460D03*
X828630Y1030960D03*
X904130Y1033460D03*
X828630Y1035960D03*
X904130Y1038460D03*
X828630Y1040960D03*
X904130Y1043460D03*
X828630Y1045960D03*
X904130Y1048460D03*
X828630Y1050960D03*
X904130Y1053460D03*
X828630Y1055960D03*
X904130Y1058460D03*
X828630Y1060960D03*
X904130Y1063460D03*
X828630Y1065960D03*
X904130Y1068460D03*
X828630Y1070960D03*
X904130Y1073460D03*
X828630Y1075960D03*
X904130Y1078460D03*
X828630Y1080960D03*
X904130Y1083460D03*
X828630Y1085960D03*
X904130Y1088460D03*
X828630Y1090960D03*
X904130Y1093460D03*
X828630Y1095960D03*
X904130Y1098460D03*
X828630Y1100960D03*
X904130Y1103460D03*
X828630Y1105960D03*
D27*
X1186180Y835660D03*
D41*
X1183480Y1194460D03*
X1183480Y1213460D03*
X1162480Y1203960D03*
D27*
X894080Y861060D03*
D16*
X707780Y861060D03*
X724780Y861060D03*
D34*
X721560Y851850D02*
X721560Y844870D01*
X721560Y851850D02*
X728540Y851850D01*
X728540Y844870D01*
X721560Y844870D01*
X721560Y849670D02*
X728540Y849670D01*
X704020Y851850D02*
X704020Y844870D01*
X704020Y851850D02*
X711000Y851850D01*
X711000Y844870D01*
X704020Y844870D01*
X704020Y849670D02*
X711000Y849670D01*
D16*
X745880Y861060D03*
X762880Y861060D03*
D34*
X759660Y851850D02*
X759660Y844870D01*
X759660Y851850D02*
X766640Y851850D01*
X766640Y844870D01*
X759660Y844870D01*
X759660Y849670D02*
X766640Y849670D01*
X742120Y851850D02*
X742120Y844870D01*
X742120Y851850D02*
X749100Y851850D01*
X749100Y844870D01*
X742120Y844870D01*
X742120Y849670D02*
X749100Y849670D01*
D16*
X1139580Y899160D03*
X1156580Y899160D03*
X1139580Y949960D03*
X1156580Y949960D03*
X1123070Y1000760D03*
X1140070Y1000760D03*
D18*
X1021080Y1203960D03*
D42*
X1135079Y934060D03*
X1135079Y924560D03*
X1135079Y915060D03*
X1161081Y915060D03*
X1161081Y934060D03*
X1135079Y984860D03*
X1135079Y975360D03*
X1135079Y965860D03*
X1161081Y965860D03*
X1161081Y984860D03*
D16*
X1156090Y1000760D03*
X1173090Y1000760D03*
D10*
X60100Y1328540D03*
X60100Y1333540D03*
D11*
X60100Y1303790D03*
X60100Y1311540D03*
D10*
X60100Y1318540D03*
X60100Y1323540D03*
X60100Y1343540D03*
X60100Y1338540D03*
D11*
X60100Y1368290D03*
X60100Y1360540D03*
D10*
X60100Y1353540D03*
X60100Y1348540D03*
D12*
X49050Y1364940D03*
X49050Y1307140D03*
D13*
X76200Y1369940D03*
X76200Y1352940D03*
X76200Y1302140D03*
X76200Y1319140D03*
D14*
X91850Y1322290D03*
X98350Y1322290D03*
X104850Y1322290D03*
X111350Y1322290D03*
X111350Y1349790D03*
X104850Y1349790D03*
X98350Y1349790D03*
X91850Y1349790D03*
D15*
X101600Y1336040D03*
D16*
X93100Y1374140D03*
X110100Y1374140D03*
D17*
X7620Y1242060D03*
X601980Y1634490D03*
D18*
X584200Y1615440D03*
X25400Y1615440D03*
X584200Y1259840D03*
X25400Y1259840D03*
D13*
X541020Y1395340D03*
X541020Y1378340D03*
D19*
X450500Y1584240D03*
D20*
X508000Y1603940D03*
X508000Y1626940D03*
D13*
X491490Y1623940D03*
X491490Y1606940D03*
D21*
X595550Y1320740D03*
X595550Y1376740D03*
D22*
X558800Y1333740D03*
X558800Y1343740D03*
X558800Y1353740D03*
X558800Y1363740D03*
D13*
X596900Y1391040D03*
X596900Y1408040D03*
X574040Y1391040D03*
X574040Y1408040D03*
D23*
X320040Y1257300D03*
X264160Y1257300D03*
X320040Y1295400D03*
X264160Y1295400D03*
D16*
X93100Y1389380D03*
X110100Y1389380D03*
D24*
X34036Y1437640D03*
X42164Y1437640D03*
D25*
X23100Y1412240D03*
X53100Y1412240D03*
D26*
X102900Y1412240D03*
X74900Y1412240D03*
D13*
X152400Y1378340D03*
X152400Y1395340D03*
X137160Y1395340D03*
X137160Y1378340D03*
D27*
X93980Y1297940D03*
X119380Y1297940D03*
D28*
X158750Y1424940D03*
X158750Y1437640D03*
X158750Y1450340D03*
X158750Y1463040D03*
X158750Y1412240D03*
X146050Y1424940D03*
X146050Y1437640D03*
X146050Y1450340D03*
X146050Y1463040D03*
X146050Y1412240D03*
D23*
X243840Y1257300D03*
X187960Y1257300D03*
X243840Y1295400D03*
X187960Y1295400D03*
D27*
X342900Y1602740D03*
X317500Y1602740D03*
X292100Y1602740D03*
X266700Y1602740D03*
X241300Y1602740D03*
X215900Y1602740D03*
X215900Y1628140D03*
X241300Y1628140D03*
X266700Y1628140D03*
X292100Y1628140D03*
X317500Y1628140D03*
X342900Y1628140D03*
D29*
X448500Y1502440D03*
X448500Y1445440D03*
D30*
X580000Y1429440D03*
X590000Y1560940D03*
D31*
X551500Y1514340D03*
X547500Y1503340D03*
X551500Y1492340D03*
X553500Y1481340D03*
X551500Y1470340D03*
X553500Y1459340D03*
X551500Y1448340D03*
X551500Y1437340D03*
D27*
X444500Y1247140D03*
X469900Y1247140D03*
X495300Y1247140D03*
X520700Y1247140D03*
D32*
X440690Y1384300D03*
D13*
X127000Y1344540D03*
X127000Y1327540D03*
D20*
X146050Y1347540D03*
X146050Y1324540D03*
D33*
X149200Y1526841D03*
X139700Y1526841D03*
X130200Y1526841D03*
X130200Y1500839D03*
X149200Y1500839D03*
D13*
X165100Y1522340D03*
X165100Y1505340D03*
X127000Y1543440D03*
X127000Y1560440D03*
D16*
X131200Y1485900D03*
X148200Y1485900D03*
D34*
X106880Y1548450D02*
X106880Y1555430D01*
X113860Y1555430D01*
X113860Y1548450D01*
X106880Y1548450D01*
X106880Y1553250D02*
X113860Y1553250D01*
X89340Y1555430D02*
X89340Y1548450D01*
X89340Y1555430D02*
X96320Y1555430D01*
X96320Y1548450D01*
X89340Y1548450D01*
X89340Y1553250D02*
X96320Y1553250D01*
D13*
X149860Y1543440D03*
X149860Y1560440D03*
D35*
X75100Y1503840D03*
X75100Y1523840D03*
D36*
X23100Y1479840D03*
X23100Y1547840D03*
D27*
X25400Y1526540D03*
X25400Y1501140D03*
X107950Y1463040D03*
X107950Y1437640D03*
D20*
X114300Y1502340D03*
X114300Y1525340D03*
D27*
X190500Y1628140D03*
X165100Y1628140D03*
X139700Y1628140D03*
X114300Y1628140D03*
X88900Y1628140D03*
X63500Y1628140D03*
X342900Y1247140D03*
X368300Y1247140D03*
X393700Y1247140D03*
X419100Y1247140D03*
D13*
X139700Y1293740D03*
X139700Y1276740D03*
X154940Y1293740D03*
X154940Y1276740D03*
X170180Y1293740D03*
X170180Y1276740D03*
X541020Y1344540D03*
X541020Y1327540D03*
D37*
X241300Y1324940D03*
D38*
X241300Y1524940D03*
D39*
X188550Y1332440D03*
D40*
X196300Y1321440D03*
X196300Y1528440D03*
D39*
X264050Y1334940D03*
X188550Y1337440D03*
X264050Y1339940D03*
X188550Y1342440D03*
X264050Y1344940D03*
X188550Y1347440D03*
X264050Y1349940D03*
X188550Y1352440D03*
X264050Y1354940D03*
X188550Y1357440D03*
X264050Y1359940D03*
X188550Y1362440D03*
X264050Y1364940D03*
X188550Y1367440D03*
X264050Y1369940D03*
X188550Y1372440D03*
X264050Y1374940D03*
X188550Y1377440D03*
X264050Y1379940D03*
X188550Y1382440D03*
X264050Y1384940D03*
X188550Y1387440D03*
X264050Y1409940D03*
X188550Y1412440D03*
X264050Y1414940D03*
X188550Y1417440D03*
X264050Y1419940D03*
X188550Y1422440D03*
X264050Y1424940D03*
X188550Y1427440D03*
X264050Y1429940D03*
X188550Y1432440D03*
X264050Y1434940D03*
X188550Y1437440D03*
X264050Y1439940D03*
X188550Y1442440D03*
X264050Y1444940D03*
X188550Y1447440D03*
X264050Y1449940D03*
X188550Y1452440D03*
X264050Y1454940D03*
X188550Y1457440D03*
X264050Y1459940D03*
X188550Y1462440D03*
X264050Y1464940D03*
X188550Y1467440D03*
X264050Y1469940D03*
X188550Y1472440D03*
X264050Y1474940D03*
X188550Y1477440D03*
X264050Y1479940D03*
X188550Y1482440D03*
X264050Y1484940D03*
X188550Y1487440D03*
X264050Y1489940D03*
X188550Y1492440D03*
X264050Y1494940D03*
X188550Y1497440D03*
X264050Y1499940D03*
X188550Y1502440D03*
X264050Y1504940D03*
X188550Y1507440D03*
X264050Y1509940D03*
X188550Y1512440D03*
X264050Y1514940D03*
X188550Y1517440D03*
D27*
X546100Y1247140D03*
D41*
X543400Y1605940D03*
X543400Y1624940D03*
X522400Y1615440D03*
D27*
X254000Y1272540D03*
D16*
X67700Y1272540D03*
X84700Y1272540D03*
D34*
X81480Y1263330D02*
X81480Y1256350D01*
X81480Y1263330D02*
X88460Y1263330D01*
X88460Y1256350D01*
X81480Y1256350D01*
X81480Y1261150D02*
X88460Y1261150D01*
X63940Y1263330D02*
X63940Y1256350D01*
X63940Y1263330D02*
X70920Y1263330D01*
X70920Y1256350D01*
X63940Y1256350D01*
X63940Y1261150D02*
X70920Y1261150D01*
D16*
X105800Y1272540D03*
X122800Y1272540D03*
D34*
X119580Y1263330D02*
X119580Y1256350D01*
X119580Y1263330D02*
X126560Y1263330D01*
X126560Y1256350D01*
X119580Y1256350D01*
X119580Y1261150D02*
X126560Y1261150D01*
X102040Y1263330D02*
X102040Y1256350D01*
X102040Y1263330D02*
X109020Y1263330D01*
X109020Y1256350D01*
X102040Y1256350D01*
X102040Y1261150D02*
X109020Y1261150D01*
D16*
X499500Y1310640D03*
X516500Y1310640D03*
X499500Y1361440D03*
X516500Y1361440D03*
X482990Y1412240D03*
X499990Y1412240D03*
D18*
X381000Y1615440D03*
D42*
X494999Y1345540D03*
X494999Y1336040D03*
X494999Y1326540D03*
X521001Y1326540D03*
X521001Y1345540D03*
X494999Y1396340D03*
X494999Y1386840D03*
X494999Y1377340D03*
X521001Y1377340D03*
X521001Y1396340D03*
D16*
X516010Y1412240D03*
X533010Y1412240D03*
D10*
X700180Y1328540D03*
X700180Y1333540D03*
D11*
X700180Y1303790D03*
X700180Y1311540D03*
D10*
X700180Y1318540D03*
X700180Y1323540D03*
X700180Y1343540D03*
X700180Y1338540D03*
D11*
X700180Y1368290D03*
X700180Y1360540D03*
D10*
X700180Y1353540D03*
X700180Y1348540D03*
D12*
X689130Y1364940D03*
X689130Y1307140D03*
D13*
X716280Y1369940D03*
X716280Y1352940D03*
X716280Y1302140D03*
X716280Y1319140D03*
D14*
X731930Y1322290D03*
X738430Y1322290D03*
X744930Y1322290D03*
X751430Y1322290D03*
X751430Y1349790D03*
X744930Y1349790D03*
X738430Y1349790D03*
X731930Y1349790D03*
D15*
X741680Y1336040D03*
D16*
X733180Y1374140D03*
X750180Y1374140D03*
D17*
X647700Y1242060D03*
X1242060Y1634490D03*
D18*
X1224280Y1615440D03*
X665480Y1615440D03*
X1224280Y1259840D03*
X665480Y1259840D03*
D13*
X1181100Y1395340D03*
X1181100Y1378340D03*
D19*
X1090580Y1584240D03*
D20*
X1148080Y1603940D03*
X1148080Y1626940D03*
D13*
X1131570Y1623940D03*
X1131570Y1606940D03*
D21*
X1235630Y1320740D03*
X1235630Y1376740D03*
D22*
X1198880Y1333740D03*
X1198880Y1343740D03*
X1198880Y1353740D03*
X1198880Y1363740D03*
D13*
X1236980Y1391040D03*
X1236980Y1408040D03*
X1214120Y1391040D03*
X1214120Y1408040D03*
D23*
X960120Y1257300D03*
X904240Y1257300D03*
X960120Y1295400D03*
X904240Y1295400D03*
D16*
X733180Y1389380D03*
X750180Y1389380D03*
D24*
X674116Y1437640D03*
X682244Y1437640D03*
D25*
X663180Y1412240D03*
X693180Y1412240D03*
D26*
X742980Y1412240D03*
X714980Y1412240D03*
D13*
X792480Y1378340D03*
X792480Y1395340D03*
X777240Y1395340D03*
X777240Y1378340D03*
D27*
X734060Y1297940D03*
X759460Y1297940D03*
D28*
X798830Y1424940D03*
X798830Y1437640D03*
X798830Y1450340D03*
X798830Y1463040D03*
X798830Y1412240D03*
X786130Y1424940D03*
X786130Y1437640D03*
X786130Y1450340D03*
X786130Y1463040D03*
X786130Y1412240D03*
D23*
X883920Y1257300D03*
X828040Y1257300D03*
X883920Y1295400D03*
X828040Y1295400D03*
D27*
X982980Y1602740D03*
X957580Y1602740D03*
X932180Y1602740D03*
X906780Y1602740D03*
X881380Y1602740D03*
X855980Y1602740D03*
X855980Y1628140D03*
X881380Y1628140D03*
X906780Y1628140D03*
X932180Y1628140D03*
X957580Y1628140D03*
X982980Y1628140D03*
D29*
X1088580Y1502440D03*
X1088580Y1445440D03*
D30*
X1220080Y1429440D03*
X1230080Y1560940D03*
D31*
X1191580Y1514340D03*
X1187580Y1503340D03*
X1191580Y1492340D03*
X1193580Y1481340D03*
X1191580Y1470340D03*
X1193580Y1459340D03*
X1191580Y1448340D03*
X1191580Y1437340D03*
D27*
X1084580Y1247140D03*
X1109980Y1247140D03*
X1135380Y1247140D03*
X1160780Y1247140D03*
D32*
X1080770Y1384300D03*
D13*
X767080Y1344540D03*
X767080Y1327540D03*
D20*
X786130Y1347540D03*
X786130Y1324540D03*
D33*
X789280Y1526841D03*
X779780Y1526841D03*
X770280Y1526841D03*
X770280Y1500839D03*
X789280Y1500839D03*
D13*
X805180Y1522340D03*
X805180Y1505340D03*
X767080Y1543440D03*
X767080Y1560440D03*
D16*
X771280Y1485900D03*
X788280Y1485900D03*
D34*
X746960Y1548450D02*
X746960Y1555430D01*
X753940Y1555430D01*
X753940Y1548450D01*
X746960Y1548450D01*
X746960Y1553250D02*
X753940Y1553250D01*
X729420Y1555430D02*
X729420Y1548450D01*
X729420Y1555430D02*
X736400Y1555430D01*
X736400Y1548450D01*
X729420Y1548450D01*
X729420Y1553250D02*
X736400Y1553250D01*
D13*
X789940Y1543440D03*
X789940Y1560440D03*
D35*
X715180Y1503840D03*
X715180Y1523840D03*
D36*
X663180Y1479840D03*
X663180Y1547840D03*
D27*
X665480Y1526540D03*
X665480Y1501140D03*
X748030Y1463040D03*
X748030Y1437640D03*
D20*
X754380Y1502340D03*
X754380Y1525340D03*
D27*
X830580Y1628140D03*
X805180Y1628140D03*
X779780Y1628140D03*
X754380Y1628140D03*
X728980Y1628140D03*
X703580Y1628140D03*
X982980Y1247140D03*
X1008380Y1247140D03*
X1033780Y1247140D03*
X1059180Y1247140D03*
D13*
X779780Y1293740D03*
X779780Y1276740D03*
X795020Y1293740D03*
X795020Y1276740D03*
X810260Y1293740D03*
X810260Y1276740D03*
X1181100Y1344540D03*
X1181100Y1327540D03*
D37*
X881380Y1324940D03*
D38*
X881380Y1524940D03*
D39*
X828630Y1332440D03*
D40*
X836380Y1321440D03*
X836380Y1528440D03*
D39*
X904130Y1334940D03*
X828630Y1337440D03*
X904130Y1339940D03*
X828630Y1342440D03*
X904130Y1344940D03*
X828630Y1347440D03*
X904130Y1349940D03*
X828630Y1352440D03*
X904130Y1354940D03*
X828630Y1357440D03*
X904130Y1359940D03*
X828630Y1362440D03*
X904130Y1364940D03*
X828630Y1367440D03*
X904130Y1369940D03*
X828630Y1372440D03*
X904130Y1374940D03*
X828630Y1377440D03*
X904130Y1379940D03*
X828630Y1382440D03*
X904130Y1384940D03*
X828630Y1387440D03*
X904130Y1409940D03*
X828630Y1412440D03*
X904130Y1414940D03*
X828630Y1417440D03*
X904130Y1419940D03*
X828630Y1422440D03*
X904130Y1424940D03*
X828630Y1427440D03*
X904130Y1429940D03*
X828630Y1432440D03*
X904130Y1434940D03*
X828630Y1437440D03*
X904130Y1439940D03*
X828630Y1442440D03*
X904130Y1444940D03*
X828630Y1447440D03*
X904130Y1449940D03*
X828630Y1452440D03*
X904130Y1454940D03*
X828630Y1457440D03*
X904130Y1459940D03*
X828630Y1462440D03*
X904130Y1464940D03*
X828630Y1467440D03*
X904130Y1469940D03*
X828630Y1472440D03*
X904130Y1474940D03*
X828630Y1477440D03*
X904130Y1479940D03*
X828630Y1482440D03*
X904130Y1484940D03*
X828630Y1487440D03*
X904130Y1489940D03*
X828630Y1492440D03*
X904130Y1494940D03*
X828630Y1497440D03*
X904130Y1499940D03*
X828630Y1502440D03*
X904130Y1504940D03*
X828630Y1507440D03*
X904130Y1509940D03*
X828630Y1512440D03*
X904130Y1514940D03*
X828630Y1517440D03*
D27*
X1186180Y1247140D03*
D41*
X1183480Y1605940D03*
X1183480Y1624940D03*
X1162480Y1615440D03*
D27*
X894080Y1272540D03*
D16*
X707780Y1272540D03*
X724780Y1272540D03*
D34*
X721560Y1263330D02*
X721560Y1256350D01*
X721560Y1263330D02*
X728540Y1263330D01*
X728540Y1256350D01*
X721560Y1256350D01*
X721560Y1261150D02*
X728540Y1261150D01*
X704020Y1263330D02*
X704020Y1256350D01*
X704020Y1263330D02*
X711000Y1263330D01*
X711000Y1256350D01*
X704020Y1256350D01*
X704020Y1261150D02*
X711000Y1261150D01*
D16*
X745880Y1272540D03*
X762880Y1272540D03*
D34*
X759660Y1263330D02*
X759660Y1256350D01*
X759660Y1263330D02*
X766640Y1263330D01*
X766640Y1256350D01*
X759660Y1256350D01*
X759660Y1261150D02*
X766640Y1261150D01*
X742120Y1263330D02*
X742120Y1256350D01*
X742120Y1263330D02*
X749100Y1263330D01*
X749100Y1256350D01*
X742120Y1256350D01*
X742120Y1261150D02*
X749100Y1261150D01*
D16*
X1139580Y1310640D03*
X1156580Y1310640D03*
X1139580Y1361440D03*
X1156580Y1361440D03*
X1123070Y1412240D03*
X1140070Y1412240D03*
D18*
X1021080Y1615440D03*
D42*
X1135079Y1345540D03*
X1135079Y1336040D03*
X1135079Y1326540D03*
X1161081Y1326540D03*
X1161081Y1345540D03*
X1135079Y1396340D03*
X1135079Y1386840D03*
X1135079Y1377340D03*
X1161081Y1377340D03*
X1161081Y1396340D03*
D16*
X1156090Y1412240D03*
X1173090Y1412240D03*
D28*
X93980Y1661795D03*
X1231265Y1661795D03*
D43*
X84925Y-20955D02*
X84928Y-20733D01*
X84936Y-20511D01*
X84950Y-20289D01*
X84969Y-20067D01*
X84993Y-19847D01*
X85023Y-19626D01*
X85058Y-19407D01*
X85099Y-19188D01*
X85145Y-18971D01*
X85196Y-18755D01*
X85253Y-18540D01*
X85315Y-18326D01*
X85382Y-18115D01*
X85454Y-17904D01*
X85532Y-17696D01*
X85614Y-17490D01*
X85702Y-17286D01*
X85794Y-17083D01*
X85892Y-16884D01*
X85994Y-16687D01*
X86101Y-16492D01*
X86213Y-16300D01*
X86330Y-16111D01*
X86451Y-15924D01*
X86577Y-15741D01*
X86707Y-15561D01*
X86842Y-15384D01*
X86980Y-15211D01*
X87123Y-15041D01*
X87271Y-14874D01*
X87422Y-14711D01*
X87577Y-14552D01*
X87736Y-14397D01*
X87899Y-14246D01*
X88066Y-14098D01*
X88236Y-13955D01*
X88409Y-13817D01*
X88586Y-13682D01*
X88766Y-13552D01*
X88949Y-13426D01*
X89136Y-13305D01*
X89325Y-13188D01*
X89517Y-13076D01*
X89712Y-12969D01*
X89909Y-12867D01*
X90108Y-12769D01*
X90311Y-12677D01*
X90515Y-12589D01*
X90721Y-12507D01*
X90929Y-12429D01*
X91140Y-12357D01*
X91351Y-12290D01*
X91565Y-12228D01*
X91780Y-12171D01*
X91996Y-12120D01*
X92213Y-12074D01*
X92432Y-12033D01*
X92651Y-11998D01*
X92872Y-11968D01*
X93092Y-11944D01*
X93314Y-11925D01*
X93536Y-11911D01*
X93758Y-11903D01*
X93980Y-11900D01*
X94202Y-11903D01*
X94424Y-11911D01*
X94646Y-11925D01*
X94868Y-11944D01*
X95088Y-11968D01*
X95309Y-11998D01*
X95528Y-12033D01*
X95747Y-12074D01*
X95964Y-12120D01*
X96180Y-12171D01*
X96395Y-12228D01*
X96609Y-12290D01*
X96820Y-12357D01*
X97031Y-12429D01*
X97239Y-12507D01*
X97445Y-12589D01*
X97649Y-12677D01*
X97852Y-12769D01*
X98051Y-12867D01*
X98248Y-12969D01*
X98443Y-13076D01*
X98635Y-13188D01*
X98824Y-13305D01*
X99011Y-13426D01*
X99194Y-13552D01*
X99374Y-13682D01*
X99551Y-13817D01*
X99724Y-13955D01*
X99894Y-14098D01*
X100061Y-14246D01*
X100224Y-14397D01*
X100383Y-14552D01*
X100538Y-14711D01*
X100689Y-14874D01*
X100837Y-15041D01*
X100980Y-15211D01*
X101118Y-15384D01*
X101253Y-15561D01*
X101383Y-15741D01*
X101509Y-15924D01*
X101630Y-16111D01*
X101747Y-16300D01*
X101859Y-16492D01*
X101966Y-16687D01*
X102068Y-16884D01*
X102166Y-17083D01*
X102258Y-17286D01*
X102346Y-17490D01*
X102428Y-17696D01*
X102506Y-17904D01*
X102578Y-18115D01*
X102645Y-18326D01*
X102707Y-18540D01*
X102764Y-18755D01*
X102815Y-18971D01*
X102861Y-19188D01*
X102902Y-19407D01*
X102937Y-19626D01*
X102967Y-19847D01*
X102991Y-20067D01*
X103010Y-20289D01*
X103024Y-20511D01*
X103032Y-20733D01*
X103035Y-20955D01*
X103032Y-21177D01*
X103024Y-21399D01*
X103010Y-21621D01*
X102991Y-21843D01*
X102967Y-22063D01*
X102937Y-22284D01*
X102902Y-22503D01*
X102861Y-22722D01*
X102815Y-22939D01*
X102764Y-23155D01*
X102707Y-23370D01*
X102645Y-23584D01*
X102578Y-23795D01*
X102506Y-24006D01*
X102428Y-24214D01*
X102346Y-24420D01*
X102258Y-24624D01*
X102166Y-24827D01*
X102068Y-25026D01*
X101966Y-25223D01*
X101859Y-25418D01*
X101747Y-25610D01*
X101630Y-25799D01*
X101509Y-25986D01*
X101383Y-26169D01*
X101253Y-26349D01*
X101118Y-26526D01*
X100980Y-26699D01*
X100837Y-26869D01*
X100689Y-27036D01*
X100538Y-27199D01*
X100383Y-27358D01*
X100224Y-27513D01*
X100061Y-27664D01*
X99894Y-27812D01*
X99724Y-27955D01*
X99551Y-28093D01*
X99374Y-28228D01*
X99194Y-28358D01*
X99011Y-28484D01*
X98824Y-28605D01*
X98635Y-28722D01*
X98443Y-28834D01*
X98248Y-28941D01*
X98051Y-29043D01*
X97852Y-29141D01*
X97649Y-29233D01*
X97445Y-29321D01*
X97239Y-29403D01*
X97031Y-29481D01*
X96820Y-29553D01*
X96609Y-29620D01*
X96395Y-29682D01*
X96180Y-29739D01*
X95964Y-29790D01*
X95747Y-29836D01*
X95528Y-29877D01*
X95309Y-29912D01*
X95088Y-29942D01*
X94868Y-29966D01*
X94646Y-29985D01*
X94424Y-29999D01*
X94202Y-30007D01*
X93980Y-30010D01*
X93758Y-30007D01*
X93536Y-29999D01*
X93314Y-29985D01*
X93092Y-29966D01*
X92872Y-29942D01*
X92651Y-29912D01*
X92432Y-29877D01*
X92213Y-29836D01*
X91996Y-29790D01*
X91780Y-29739D01*
X91565Y-29682D01*
X91351Y-29620D01*
X91140Y-29553D01*
X90929Y-29481D01*
X90721Y-29403D01*
X90515Y-29321D01*
X90311Y-29233D01*
X90108Y-29141D01*
X89909Y-29043D01*
X89712Y-28941D01*
X89517Y-28834D01*
X89325Y-28722D01*
X89136Y-28605D01*
X88949Y-28484D01*
X88766Y-28358D01*
X88586Y-28228D01*
X88409Y-28093D01*
X88236Y-27955D01*
X88066Y-27812D01*
X87899Y-27664D01*
X87736Y-27513D01*
X87577Y-27358D01*
X87422Y-27199D01*
X87271Y-27036D01*
X87123Y-26869D01*
X86980Y-26699D01*
X86842Y-26526D01*
X86707Y-26349D01*
X86577Y-26169D01*
X86451Y-25986D01*
X86330Y-25799D01*
X86213Y-25610D01*
X86101Y-25418D01*
X85994Y-25223D01*
X85892Y-25026D01*
X85794Y-24827D01*
X85702Y-24624D01*
X85614Y-24420D01*
X85532Y-24214D01*
X85454Y-24006D01*
X85382Y-23795D01*
X85315Y-23584D01*
X85253Y-23370D01*
X85196Y-23155D01*
X85145Y-22939D01*
X85099Y-22722D01*
X85058Y-22503D01*
X85023Y-22284D01*
X84993Y-22063D01*
X84969Y-21843D01*
X84950Y-21621D01*
X84936Y-21399D01*
X84928Y-21177D01*
X84925Y-20955D01*
D44*
X93980Y-20955D03*
M02*
